<?xml version="1.0" ?><!DOCTYPE svg  PUBLIC '-//W3C//DTD SVG 1.1//EN'  'http://www.w3.org/Graphics/SVG/1.1/DTD/svg11.dtd'><svg enable-background="new 0 0 512 512" height="512px" id="Слой_1" version="1.1" viewBox="0 0 512 512" width="512px" xml:space="preserve" xmlns="http://www.w3.org/2000/svg" xmlns:xlink="http://www.w3.org/1999/xlink"><g id="Web_Security"><g><g><path d="M511.352,176.592c0,7.863-6.371,14.234-14.23,14.234l-482.887,0.008C6.375,190.834,0,184.459,0,176.592     V79.146c0-7.859,6.375-14.234,14.234-14.234l482.887-0.004c7.859,0,14.23,6.371,14.23,14.238V176.592z" fill="#CCD1D9"/><rect fill="#F4F6F9" height="345.164" width="511.352" y="101.928"/><path d="M23.688,79.635c-2.789,0-5.063,2.273-5.063,5.059c0,2.797,2.273,5.07,5.063,5.07     c2.793,0,5.066-2.273,5.066-5.07C28.754,81.908,26.48,79.635,23.688,79.635z" fill="#E6E9ED"/><path d="M46.941,79.635c-2.789,0-5.063,2.273-5.063,5.059c0,2.797,2.273,5.07,5.063,5.07     c2.793,0,5.066-2.273,5.066-5.07C52.008,81.908,49.734,79.635,46.941,79.635z" fill="#E6E9ED"/><path d="M70.195,79.635c-2.789,0-5.063,2.273-5.063,5.059c0,2.797,2.273,5.07,5.063,5.07     c2.793,0,5.066-2.273,5.066-5.07C75.262,81.908,72.988,79.635,70.195,79.635z" fill="#E6E9ED"/><polygon fill="#4A89DC" points="25.898,130.412 25.613,237.553 486.328,237.553 486.328,130.412    "/><polygon fill="#FFFFFF" points="25.941,381.428 25.648,425.639 486.367,425.639 486.367,381.428    "/><rect fill="#656D78" height="3.473" width="310.414" x="100.832" y="397.361"/><rect fill="#656D78" height="3.477" width="155.293" x="178.395" y="407.982"/><g><rect fill="#FFFFFF" height="93.953" width="136.883" x="349.445" y="262.584"/><path d="M437.422,296.588c0,10.785-8.754,19.535-19.535,19.535c-10.793,0-19.535-8.75-19.535-19.535      s8.742-19.527,19.535-19.527C428.668,277.061,437.422,285.803,437.422,296.588z" fill="#5D9CEC"/><rect fill="#656D78" height="3.477" width="93.961" x="370.906" y="328.662"/><rect fill="#656D78" height="3.484" width="32.875" x="401.445" y="339.279"/></g><rect fill="#FFFFFF" height="93.953" width="136.879" x="187.527" y="262.584"/><path d="M275.5,296.588c0,10.785-8.738,19.535-19.531,19.535c-10.789,0-19.535-8.75-19.535-19.535     s8.746-19.527,19.535-19.527C266.762,277.061,275.5,285.803,275.5,296.588z" fill="#5D9CEC"/><rect fill="#656D78" height="3.477" width="93.957" x="208.988" y="328.662"/><rect fill="#656D78" height="3.484" width="32.879" x="239.527" y="339.279"/><g><rect fill="#FFFFFF" height="93.953" width="136.879" x="25.613" y="262.584"/><path d="M113.586,296.588c0,10.785-8.746,19.535-19.531,19.535c-10.793,0-19.535-8.75-19.535-19.535      s8.742-19.527,19.535-19.527C104.84,277.061,113.586,285.803,113.586,296.588z" fill="#5D9CEC"/><rect fill="#656D78" height="3.477" width="93.953" x="47.074" y="328.662"/><rect fill="#656D78" height="3.484" width="32.879" x="77.613" y="339.279"/></g></g><rect fill="#FFFFFF" height="3.473" width="310.414" x="100.754" y="171.029"/><rect fill="#FFFFFF" height="3.477" width="155.293" x="178.313" y="181.646"/><rect fill="#FFFFFF" height="3.473" width="77.691" x="217.113" y="192.268"/></g><g><path d="M512,206.584l-0.059-0.949c-0.008-2.926-2.395-5.32-5.316-5.34    c-24.18-0.906-84.883-7.195-128.547-46.027l-0.879-0.473l0.035-0.172c-0.84-0.516-1.813-0.801-2.82-0.809    c-1.273,0.02-2.555,0.508-3.535,1.402c-43.73,38.883-104.438,45.172-128.52,46.078c-3.02,0.02-5.414,2.414-5.418,5.34    l-0.055,1.395c3.992,109.531,72.02,194.512,134.547,237.609c1.801,1.223,4.219,1.223,6,0l0.848-0.578    C440.668,400.729,508.195,315.834,512,206.584z" fill="#424953" id="shield_1_"/><path d="M506.625,200.295c-24.18-0.906-84.883-7.195-128.547-46.027l-0.879-0.473l0.035-0.172    c-0.836-0.508-1.801-0.797-2.789-0.809v292.738c1.047,0,2.102-0.305,2.988-0.914l0.848-0.578    C440.668,400.729,508.195,315.834,512,206.584l-0.059-0.949C511.934,202.709,509.547,200.314,506.625,200.295z" fill="#303842"/><polygon fill="#FECD57" points="439.387,270.955 415.68,247.248 359.215,303.721 333.207,277.709 309.5,301.408 359.215,351.131     359.215,351.131 359.215,351.131   "/></g></g></svg>