<?xml version="1.0" ?><svg enable-background="new 0 0 24 24" id="Layer_1" version="1.1" viewBox="0 0 24 24" xml:space="preserve" xmlns="http://www.w3.org/2000/svg" xmlns:xlink="http://www.w3.org/1999/xlink"><g><path d="M23.2675781,6.5605469l-5.828125-5.828125C16.9667969,0.2602539,16.3398438,0,15.671875,0h-7.34375   C7.6601562,0,7.0332031,0.2602539,6.5605469,0.7324219l-5.828125,5.828125C0.2597656,7.0327148,0,7.6606445,0,8.3286133v7.3427734   c0,0.6679688,0.2597656,1.2958984,0.7324219,1.7680664l5.828125,5.828125C7.0332031,23.7397461,7.6601562,24,8.328125,24h7.34375   c0.6679688,0,1.2949219-0.2602539,1.7675781-0.7324219l5.828125-5.828125C23.7402344,16.9672852,24,16.3393555,24,15.6713867   V8.3286133C24,7.6606445,23.7402344,7.0327148,23.2675781,6.5605469z" fill="#303C42"/><path d="M23,15.6713867c0,0.4008789-0.15625,0.7773438-0.4394531,1.0610352l-5.828125,5.828125   C16.453125,22.8398438,16.0664062,23,15.671875,23h-7.34375c-0.3945312,0-0.78125-0.1601562-1.0605469-0.4394531   l-5.828125-5.828125C1.15625,16.4487305,1,16.0722656,1,15.6713867V8.3286133c0-0.4008789,0.15625-0.7773438,0.4394531-1.0610352   l5.828125-5.828125C7.546875,1.1601562,7.9335938,1,8.328125,1h7.34375c0.3945312,0,0.78125,0.1601562,1.0605469,0.4394531   l5.828125,5.828125C22.84375,7.5512695,23,7.9277344,23,8.3286133V15.6713867z" fill="#E53935"/><path d="M22.5605469,7.2675781l-0.0737305-0.0737305C22.4908447,7.2388916,22.5,7.2828369,22.5,7.3286133v7.3427734   c0,0.4008789-0.15625,0.7773438-0.4394531,1.0610352l-5.828125,5.828125C15.953125,21.8398438,15.5664062,22,15.171875,22h-7.34375   c-0.3945312,0-0.78125-0.1601562-1.0605469-0.4394531l-5.7543945-5.7543945   c0.031311,0.3494263,0.175415,0.6749878,0.4262695,0.9262695l5.828125,5.828125C7.546875,22.8398438,7.9335938,23,8.328125,23   h7.34375c0.3945312,0,0.78125-0.1601562,1.0605469-0.4394531l5.828125-5.828125C22.84375,16.4487305,23,16.0722656,23,15.6713867   V8.3286133C23,7.9277344,22.84375,7.5512695,22.5605469,7.2675781z" opacity="0.1"/><path d="M17.0546875,9.5507812c-0.5996094,0.1289062-1.109375,0.4868164-1.4423828,1.0219727L15,11.6333008V5.5   C15,4.6728516,14.3271484,4,13.5,4c-0.1974487,0-0.3850708,0.0404663-0.5578613,0.1101074   C12.7692261,3.4725952,12.1914673,3,11.5,3c-0.5327148,0-0.9984131,0.2811279-1.2645874,0.7007446   C10.0171509,3.5766602,9.7685547,3.5,9.5,3.5C8.6728516,3.5,8,4.1728516,8,5v1.0921021C7.8428345,6.0360718,7.6761475,6,7.5,6   C6.6728516,6,6,6.6728516,6,7.5v7.8393555C6,18.4604492,8.5390625,21,11.6601562,21   c2.5185547,0,4.6982422-1.6210938,5.4238281-4.0380859l1.8964844-6.527832   c0.0605469-0.2094727-0.0214844-0.4345703-0.203125-0.5556641C18.2666016,9.5380859,17.6572266,9.4208984,17.0546875,9.5507812z" fill="#303C42"/><path d="M16.125,16.6787109C15.5283203,18.6650391,13.734375,20,11.6601562,20   C9.0908203,20,7,17.9091797,7,15.3393555V7.5C7,7.2241211,7.2246094,7,7.5,7S8,7.2241211,8,7.5v3C8,10.7763672,8.2236328,11,8.5,11   S9,10.7763672,9,10.5V5c0-0.2758789,0.2246094-0.5,0.5-0.5S10,4.7241211,10,5v5c0,0.2763672,0.2236328,0.5,0.5,0.5   S11,10.2763672,11,10V4.5C11,4.2241211,11.2246094,4,11.5,4S12,4.2241211,12,4.5v6c0,0.2763672,0.2236328,0.5,0.5,0.5   s0.5-0.2236328,0.5-0.5v-5C13,5.2241211,13.2246094,5,13.5,5S14,5.2241211,14,5.5v8   c0,0.2265625,0.1523438,0.4243164,0.3710938,0.4829102c0.2197266,0.0605469,0.4482422-0.0371094,0.5615234-0.2329102   l1.5361328-2.6625977c0.1806641-0.2885742,0.4638672-0.4873047,0.796875-0.559082   c0.2148438-0.0458984,0.4326172-0.0361328,0.6376953,0.0283203L16.125,16.6787109z" fill="#FFFFFF"/><path d="M17.7019043,10.5211182L16.03125,16.2724609c-0.5966797,1.9863281-2.390625,3.3212891-4.4648438,3.3212891   c-2.1560059,0-3.9577637-1.4795532-4.4872437-3.4716797C7.4541016,18.3186646,9.3587646,20,11.6601562,20   c2.0742188,0,3.8681641-1.3349609,4.4648438-3.3212891l1.7783203-6.1220703   C17.8377686,10.5360718,17.7695312,10.5305176,17.7019043,10.5211182z" opacity="0.1"/><linearGradient gradientUnits="userSpaceOnUse" id="SVGID_1_" x1="0.5234029" x2="23.4765968" y1="6.648375" y2="17.3516254"><stop offset="0" style="stop-color:#FFFFFF;stop-opacity:0.2"/><stop offset="1" style="stop-color:#FFFFFF;stop-opacity:0"/></linearGradient><path d="M23.2675781,6.5605469l-5.828125-5.828125C16.9667969,0.2602539,16.3398438,0,15.671875,0h-7.34375   C7.6601562,0,7.0332031,0.2602539,6.5605469,0.7324219l-5.828125,5.828125C0.2597656,7.0327148,0,7.6606445,0,8.3286133v7.3427734   c0,0.6679688,0.2597656,1.2958984,0.7324219,1.7680664l5.828125,5.828125C7.0332031,23.7397461,7.6601562,24,8.328125,24h7.34375   c0.6679688,0,1.2949219-0.2602539,1.7675781-0.7324219l5.828125-5.828125C23.7402344,16.9672852,24,16.3393555,24,15.6713867   V8.3286133C24,7.6606445,23.7402344,7.0327148,23.2675781,6.5605469z" fill="url(#SVGID_1_)"/></g><g/><g/><g/><g/><g/><g/><g/><g/><g/><g/><g/><g/><g/><g/><g/></svg>