<?xml version="1.0" ?><svg id="katman_1" style="enable-background:new 0 0 512 512;" version="1.1" viewBox="0 0 512 512" xml:space="preserve" xmlns="http://www.w3.org/2000/svg" xmlns:xlink="http://www.w3.org/1999/xlink"><style type="text/css">
	.st0{fill:#3991CB;}
	.st1{fill:#A5A7A8;}
</style><g><path class="st0" d="M399.7,287.2v-35.1c0-18.7-16.1-33.9-35.9-33.9H148.2c-19.9,0-35.9,15.2-35.9,33.9v156   c0,18.7,16.1,33.9,35.9,33.9h215.6c19.8,0,35.9-15.2,35.9-33.9v-10.7h-47v-18.8h47v-25.8h-47v-18.8h47V306h-47v-18.8H399.7z    M268.6,348.3v23.5c0,5.5-5.6,9.9-12.6,9.9c-6.9,0-12.6-4.4-12.6-9.9v-23.5c-9.7-4.7-16.5-14.6-16.5-26.2c0-16,13-29,29-29   c16.1,0,29.1,13,29.1,29C285,333.7,278.3,343.6,268.6,348.3z"/><path d="M363.8,447.1H148.2c-22.6,0-40.9-17.5-40.9-38.9v-156c0-21.5,18.4-38.9,40.9-38.9h215.6c22.6,0,40.9,17.5,40.9,38.9v40.1   h-47v8.8h47v38.1h-47v8.8h47v35.8h-47v8.8h47v15.7C404.7,429.6,386.4,447.1,363.8,447.1z M148.2,223.2c-17.1,0-30.9,13-30.9,28.9   v156c0,15.9,13.9,28.9,30.9,28.9h215.6c17.1,0,30.9-13,30.9-28.9v-5.7h-47v-28.8h47v-15.8h-47v-28.8h47V311h-47v-28.8h47v-30.1   c0-16-13.9-28.9-30.9-28.9H148.2z M256,386.8c-9.7,0-17.6-6.7-17.6-14.9v-20.5c-10.2-6.2-16.5-17-16.5-29.1c0-18.8,15.3-34,34-34   c18.8,0,34.1,15.3,34.1,34c0,12.1-6.2,23-16.5,29.1v20.5C273.6,380.1,265.7,386.8,256,386.8z M256,298.1c-13.3,0-24,10.8-24,24   c0,9.3,5.2,17.6,13.6,21.7l2.8,1.4v26.7c0,2.3,3.1,4.9,7.6,4.9c4.5,0,7.6-2.6,7.6-4.9v-26.7l2.8-1.4c8.4-4.1,13.6-12.4,13.6-21.7   C280,308.9,269.3,298.1,256,298.1z"/><path class="st1" d="M181.1,156.3c0-31.3,25.3-56.6,56.6-56.6h36.6c31.2,0,56.6,25.3,56.6,56.6V196H371v-51.6   c0-42.8-34.7-77.5-77.4-77.5h-75.1c-42.7,0-77.4,34.7-77.4,77.5V196h40.1V156.3z"/><path d="M376,201h-50.1v-44.6c0-28.4-23.1-51.6-51.6-51.6h-36.6c-28.4,0-51.6,23.1-51.6,51.6V201H136v-56.6   c0-45.5,37-82.5,82.4-82.5h75.1c45.5,0,82.4,37,82.4,82.5V201z M335.9,191H366v-46.6c0-40-32.5-72.5-72.4-72.5h-75.1   c-39.9,0-72.4,32.5-72.4,72.5V191h30.1v-34.6c0-34,27.6-61.6,61.6-61.6h36.6c34,0,61.6,27.6,61.6,61.6V191z"/><polygon points="25,6.4 18.3,6.4 7.1,12.7 10.1,20.7 16.1,17.2 16.1,33.9 8.3,33.9 8.3,42.6 31.7,42.6 31.7,33.9 25,33.9  "/><path d="M79.1,10.5c-1.2-1.6-2.6-2.7-4.3-3.5C73.2,6.4,71.5,6,69.6,6c-2.2,0-4.1,0.4-5.8,1.3c-1.7,0.9-3.2,2.2-4.4,3.8   c-1.2,1.6-2.1,3.6-2.7,5.9c-0.6,2.3-0.9,4.8-0.9,7.7c0,3.1,0.3,5.8,0.9,8.1c0.6,2.3,1.5,4.3,2.7,5.8c1.2,1.6,2.6,2.7,4.3,3.5   c1.6,0.7,3.4,1.1,5.2,1.1c2.2,0,4.1-0.4,5.8-1.3c1.7-0.9,3.2-2.2,4.4-3.8c1.2-1.6,2.1-3.6,2.7-5.9c0.6-2.3,0.9-4.8,0.9-7.7   c0-3.1-0.3-5.8-0.9-8.1C81.1,14,80.2,12.1,79.1,10.5z M69.2,35c-0.9,0-1.6-0.3-2.2-0.8c-0.5-0.4-0.9-1-1.2-1.8l8.1-6.3   c-0.1,1.3-0.2,2.5-0.4,3.5c-0.3,1.3-0.7,2.4-1.1,3.2c-0.4,0.7-0.9,1.3-1.5,1.7C70.4,34.8,69.8,35,69.2,35z M67.6,14.7   c0.5-0.3,1.1-0.5,1.7-0.5c0.9,0,1.6,0.3,2.2,0.8c0.5,0.4,0.9,1.1,1.3,1.9l-8.2,6.3c0.1-1.4,0.2-2.6,0.4-3.6   c0.3-1.3,0.7-2.4,1.1-3.2C66.5,15.6,67,15,67.6,14.7z"/><path d="M134.9,10.5c-1.2-1.6-2.6-2.7-4.3-3.5C129,6.4,127.2,6,125.4,6c-2.2,0-4.1,0.4-5.8,1.3c-1.7,0.9-3.2,2.2-4.4,3.8   c-1.2,1.6-2.1,3.6-2.7,5.9c-0.6,2.3-0.9,4.8-0.9,7.7c0,3.1,0.3,5.8,0.9,8.1c0.6,2.3,1.5,4.3,2.7,5.8c1.2,1.6,2.6,2.7,4.3,3.5   c1.6,0.7,3.4,1.1,5.2,1.1c2.2,0,4.1-0.4,5.8-1.3c1.7-0.9,3.2-2.2,4.4-3.8c1.2-1.6,2.1-3.6,2.7-5.9c0.6-2.3,0.9-4.8,0.9-7.7   c0-3.1-0.3-5.8-0.9-8.1C136.9,14,136,12.1,134.9,10.5z M125,35c-0.9,0-1.6-0.3-2.2-0.8c-0.5-0.4-0.9-1-1.2-1.8l8.1-6.3   c-0.1,1.3-0.2,2.5-0.4,3.5c-0.3,1.3-0.7,2.4-1.1,3.2c-0.4,0.7-0.9,1.3-1.5,1.7C126.2,34.8,125.6,35,125,35z M123.3,14.7   c0.5-0.3,1.1-0.5,1.7-0.5c0.9,0,1.6,0.3,2.2,0.8c0.5,0.4,0.9,1.1,1.3,1.9l-8.2,6.3c0.1-1.4,0.2-2.6,0.4-3.6   c0.3-1.3,0.7-2.4,1.1-3.2C122.3,15.6,122.8,15,123.3,14.7z"/><polygon points="183.3,6.4 176.6,6.4 165.4,12.7 168.4,20.7 174.5,17.2 174.5,33.9 166.7,33.9 166.7,42.6 190,42.6 190,33.9    183.3,33.9  "/><path d="M240.4,10.5c-1.2-1.6-2.6-2.7-4.3-3.5c-1.6-0.7-3.4-1.1-5.2-1.1c-2.2,0-4.1,0.4-5.8,1.3c-1.7,0.9-3.2,2.2-4.4,3.8   c-1.2,1.6-2.1,3.6-2.7,5.9c-0.6,2.3-0.9,4.8-0.9,7.7c0,3.1,0.3,5.8,0.9,8.1c0.6,2.3,1.5,4.3,2.7,5.8c1.2,1.6,2.6,2.7,4.3,3.5   c1.6,0.7,3.4,1.1,5.2,1.1c2.2,0,4.1-0.4,5.8-1.3c1.7-0.9,3.2-2.2,4.4-3.8c1.2-1.6,2.1-3.6,2.7-5.9c0.6-2.3,0.9-4.8,0.9-7.7   c0-3.1-0.3-5.8-0.9-8.1C242.5,14,241.6,12.1,240.4,10.5z M230.6,35c-0.9,0-1.6-0.3-2.2-0.8c-0.5-0.4-0.9-1-1.2-1.8l8.1-6.3   c-0.1,1.3-0.2,2.5-0.4,3.5c-0.3,1.3-0.7,2.4-1.1,3.2c-0.4,0.7-0.9,1.3-1.5,1.7C231.7,34.8,231.2,35,230.6,35z M228.9,14.7   c0.5-0.3,1.1-0.5,1.7-0.5c0.9,0,1.6,0.3,2.2,0.8c0.5,0.4,0.9,1.1,1.3,1.9l-8.2,6.3c0.1-1.4,0.2-2.6,0.4-3.6   c0.3-1.3,0.7-2.4,1.1-3.2C227.9,15.6,228.4,15,228.9,14.7z"/><polygon points="288.9,6.4 282.2,6.4 270.9,12.7 274,20.7 280,17.2 280,33.9 272.2,33.9 272.2,42.6 295.6,42.6 295.6,33.9    288.9,33.9  "/><polygon points="341.7,6.4 335,6.4 323.7,12.7 326.7,20.7 332.8,17.2 332.8,33.9 325,33.9 325,42.6 348.4,42.6 348.4,33.9    341.7,33.9  "/><path d="M398.7,10.5c-1.2-1.6-2.6-2.7-4.3-3.5c-1.6-0.7-3.4-1.1-5.2-1.1c-2.2,0-4.1,0.4-5.8,1.3c-1.7,0.9-3.2,2.2-4.4,3.8   c-1.2,1.6-2.1,3.6-2.7,5.9c-0.6,2.3-0.9,4.8-0.9,7.7c0,3.1,0.3,5.8,0.9,8.1c0.6,2.3,1.5,4.3,2.7,5.8c1.2,1.6,2.6,2.7,4.3,3.5   c1.6,0.7,3.4,1.1,5.2,1.1c2.2,0,4.1-0.4,5.8-1.3c1.7-0.9,3.2-2.2,4.4-3.8c1.2-1.6,2.1-3.6,2.7-5.9c0.6-2.3,0.9-4.8,0.9-7.7   c0-3.1-0.3-5.8-0.9-8.1C400.8,14,399.9,12.1,398.7,10.5z M388.9,35c-0.9,0-1.6-0.3-2.2-0.8c-0.5-0.4-0.9-1-1.2-1.8l8.1-6.3   c-0.1,1.3-0.2,2.5-0.4,3.5c-0.3,1.3-0.7,2.4-1.1,3.2c-0.4,0.7-0.9,1.3-1.5,1.7C390.1,34.8,389.5,35,388.9,35z M387.2,14.7   c0.5-0.3,1.1-0.5,1.7-0.5c0.9,0,1.6,0.3,2.2,0.8c0.5,0.4,0.9,1.1,1.3,1.9l-8.2,6.3c0.1-1.4,0.2-2.6,0.4-3.6   c0.3-1.3,0.7-2.4,1.1-3.2C386.2,15.6,386.7,15,387.2,14.7z"/><polygon points="449.2,33.9 449.2,6.4 442.5,6.4 431.3,12.7 434.3,20.7 440.3,17.2 440.3,33.9 432.5,33.9 432.5,42.6 455.9,42.6    455.9,33.9  "/><path d="M29.3,88.7c-1.2-1.6-2.6-2.7-4.3-3.5c-1.6-0.7-3.4-1.1-5.2-1.1c-2.2,0-4.1,0.4-5.8,1.3c-1.7,0.9-3.2,2.2-4.4,3.8   c-1.2,1.6-2.1,3.6-2.7,5.9C6.3,97.5,6,100,6,102.9c0,3.1,0.3,5.8,0.9,8.1c0.6,2.3,1.5,4.3,2.7,5.8c1.2,1.6,2.6,2.7,4.3,3.5   c1.6,0.7,3.4,1.1,5.2,1.1c2.2,0,4.1-0.4,5.8-1.3c1.7-0.9,3.2-2.2,4.4-3.8c1.2-1.6,2.1-3.6,2.7-5.9c0.6-2.3,0.9-4.8,0.9-7.7   c0-3.1-0.3-5.8-0.9-8.1C31.3,92.1,30.4,90.2,29.3,88.7z M19.5,113.1c-0.9,0-1.6-0.3-2.2-0.8c-0.5-0.4-0.9-1-1.2-1.8l8.1-6.3   c-0.1,1.3-0.2,2.5-0.4,3.5c-0.3,1.3-0.7,2.4-1.1,3.2c-0.4,0.7-0.9,1.3-1.5,1.7C20.6,112.9,20.1,113.1,19.5,113.1z M17.8,92.8   c0.5-0.3,1.1-0.5,1.7-0.5c0.9,0,1.6,0.3,2.2,0.8c0.5,0.4,0.9,1.1,1.3,1.9l-8.2,6.3c0.1-1.4,0.2-2.6,0.4-3.6   c0.3-1.3,0.7-2.4,1.1-3.2C16.8,93.7,17.2,93.2,17.8,92.8z"/><path d="M79.1,88.7c-1.2-1.6-2.6-2.7-4.3-3.5c-1.6-0.7-3.4-1.1-5.2-1.1c-2.2,0-4.1,0.4-5.8,1.3c-1.7,0.9-3.2,2.2-4.4,3.8   c-1.2,1.6-2.1,3.6-2.7,5.9c-0.6,2.3-0.9,4.8-0.9,7.7c0,3.1,0.3,5.8,0.9,8.1c0.6,2.3,1.5,4.3,2.7,5.8c1.2,1.6,2.6,2.7,4.3,3.5   c1.6,0.7,3.4,1.1,5.2,1.1c2.2,0,4.1-0.4,5.8-1.3c1.7-0.9,3.2-2.2,4.4-3.8c1.2-1.6,2.1-3.6,2.7-5.9c0.6-2.3,0.9-4.8,0.9-7.7   c0-3.1-0.3-5.8-0.9-8.1C81.1,92.1,80.2,90.2,79.1,88.7z M69.2,113.1c-0.9,0-1.6-0.3-2.2-0.8c-0.5-0.4-0.9-1-1.2-1.8l8.1-6.3   c-0.1,1.3-0.2,2.5-0.4,3.5c-0.3,1.3-0.7,2.4-1.1,3.2c-0.4,0.7-0.9,1.3-1.5,1.7C70.4,112.9,69.8,113.1,69.2,113.1z M67.6,92.8   c0.5-0.3,1.1-0.5,1.7-0.5c0.9,0,1.6,0.3,2.2,0.8c0.5,0.4,0.9,1.1,1.3,1.9l-8.2,6.3c0.1-1.4,0.2-2.6,0.4-3.6   c0.3-1.3,0.7-2.4,1.1-3.2C66.5,93.7,67,93.2,67.6,92.8z"/><path d="M128.9,88.7c-1.2-1.6-2.6-2.7-4.3-3.5c-1.6-0.7-3.4-1.1-5.2-1.1c-2.2,0-4.1,0.4-5.8,1.3c-1.7,0.9-3.2,2.2-4.4,3.8   c-1.2,1.6-2.1,3.6-2.7,5.9c-0.6,2.3-0.9,4.8-0.9,7.7c0,3.1,0.3,5.8,0.9,8.1c0.6,2.3,1.5,4.3,2.7,5.8c1.2,1.6,2.6,2.7,4.3,3.5   c1.6,0.7,3.4,1.1,5.2,1.1c2.2,0,4.1-0.4,5.8-1.3c1.7-0.9,3.2-2.2,4.4-3.8c1.2-1.6,2.1-3.6,2.7-5.9c0.6-2.3,0.9-4.8,0.9-7.7   c0-3.1-0.3-5.8-0.9-8.1C130.9,92.1,130,90.2,128.9,88.7z M119,113.1c-0.9,0-1.6-0.3-2.2-0.8c-0.5-0.4-0.9-1-1.2-1.8l8.1-6.3   c-0.1,1.3-0.2,2.5-0.4,3.5c-0.3,1.3-0.7,2.4-1.1,3.2c-0.4,0.7-0.9,1.3-1.5,1.7C120.2,112.9,119.6,113.1,119,113.1z M117.3,92.8   c0.5-0.3,1.1-0.5,1.7-0.5c0.9,0,1.6,0.3,2.2,0.8c0.5,0.4,0.9,1.1,1.3,1.9l-8.2,6.3c0.1-1.4,0.2-2.6,0.4-3.6   c0.3-1.3,0.7-2.4,1.1-3.2C116.3,93.7,116.8,93.2,117.3,92.8z"/><path d="M404.7,88.7c-1.2-1.6-2.6-2.7-4.3-3.5c-1.6-0.7-3.4-1.1-5.2-1.1c-2.2,0-4.1,0.4-5.8,1.3c-1.7,0.9-3.2,2.2-4.4,3.8   c-1.2,1.6-2.1,3.6-2.7,5.9c-0.6,2.3-0.9,4.8-0.9,7.7c0,3.1,0.3,5.8,0.9,8.1c0.6,2.3,1.5,4.3,2.7,5.8c1.2,1.6,2.6,2.7,4.3,3.5   c1.6,0.7,3.4,1.1,5.2,1.1c2.2,0,4.1-0.4,5.8-1.3c1.7-0.9,3.2-2.2,4.4-3.8c1.2-1.6,2.1-3.6,2.7-5.9c0.6-2.3,0.9-4.8,0.9-7.7   c0-3.1-0.3-5.8-0.9-8.1C406.7,92.1,405.8,90.2,404.7,88.7z M394.8,113.1c-0.9,0-1.6-0.3-2.2-0.8c-0.5-0.4-0.9-1-1.2-1.8l8.1-6.3   c-0.1,1.3-0.2,2.5-0.4,3.5c-0.3,1.3-0.7,2.4-1.1,3.2c-0.4,0.7-0.9,1.3-1.5,1.7C396,112.9,395.4,113.1,394.8,113.1z M393.1,92.8   c0.5-0.3,1.1-0.5,1.7-0.5c0.9,0,1.6,0.3,2.2,0.8c0.5,0.4,0.9,1.1,1.3,1.9l-8.2,6.3c0.1-1.4,0.2-2.6,0.4-3.6   c0.3-1.3,0.7-2.4,1.1-3.2C392.1,93.7,392.6,93.2,393.1,92.8z"/><path d="M456.2,94.5c-0.6-2.3-1.5-4.3-2.7-5.8c-1.2-1.6-2.6-2.7-4.3-3.5c-1.6-0.7-3.4-1.1-5.2-1.1c-2.2,0-4.1,0.4-5.8,1.3   c-1.7,0.9-3.2,2.2-4.4,3.8c-1.2,1.6-2.1,3.6-2.7,5.9c-0.6,2.3-0.9,4.8-0.9,7.7c0,3.1,0.3,5.8,0.9,8.1c0.6,2.3,1.5,4.3,2.7,5.8   c1.2,1.6,2.6,2.7,4.3,3.5c1.6,0.7,3.4,1.1,5.2,1.1c2.2,0,4.1-0.4,5.8-1.3c1.7-0.9,3.2-2.2,4.4-3.8c1.2-1.6,2.1-3.6,2.7-5.9   c0.6-2.3,0.9-4.8,0.9-7.7C457.1,99.5,456.8,96.7,456.2,94.5z M443.7,113.1c-0.9,0-1.6-0.3-2.2-0.8c-0.5-0.4-0.9-1-1.2-1.8l8.1-6.3   c-0.1,1.3-0.2,2.5-0.4,3.5c-0.3,1.3-0.7,2.4-1.1,3.2c-0.4,0.7-0.9,1.3-1.5,1.7C444.8,112.9,444.3,113.1,443.7,113.1z M442,92.8   c0.5-0.3,1.1-0.5,1.7-0.5c0.9,0,1.6,0.3,2.2,0.8c0.5,0.4,0.9,1.1,1.3,1.9l-8.2,6.3c0.1-1.4,0.2-2.6,0.4-3.6   c0.3-1.3,0.7-2.4,1.1-3.2C441,93.7,441.5,93.2,442,92.8z"/><polygon points="25,160.6 18.3,160.6 7.1,167 10.1,175 16.1,171.4 16.1,188.2 8.3,188.2 8.3,196.9 31.7,196.9 31.7,188.2 25,188.2     "/><path d="M79.1,164.8c-1.2-1.6-2.6-2.7-4.3-3.5c-1.6-0.7-3.4-1.1-5.2-1.1c-2.2,0-4.1,0.4-5.8,1.3c-1.7,0.9-3.2,2.2-4.4,3.8   c-1.2,1.6-2.1,3.6-2.7,5.9c-0.6,2.3-0.9,4.8-0.9,7.7c0,3.1,0.3,5.8,0.9,8.1c0.6,2.3,1.5,4.3,2.7,5.8c1.2,1.6,2.6,2.7,4.3,3.5   c1.6,0.7,3.4,1.1,5.2,1.1c2.2,0,4.1-0.4,5.8-1.3c1.7-0.9,3.2-2.2,4.4-3.8c1.2-1.6,2.1-3.6,2.7-5.9c0.6-2.3,0.9-4.8,0.9-7.7   c0-3.1-0.3-5.8-0.9-8.1C81.1,168.3,80.2,166.3,79.1,164.8z M69.2,189.2c-0.9,0-1.6-0.3-2.2-0.8c-0.5-0.4-0.9-1-1.2-1.8l8.1-6.3   c-0.1,1.3-0.2,2.5-0.4,3.5c-0.3,1.3-0.7,2.4-1.1,3.2c-0.4,0.7-0.9,1.3-1.5,1.7C70.4,189.1,69.8,189.2,69.2,189.2z M67.6,169   c0.5-0.3,1.1-0.5,1.7-0.5c0.9,0,1.6,0.3,2.2,0.8c0.5,0.4,0.9,1.1,1.3,1.9l-8.2,6.3c0.1-1.4,0.2-2.6,0.4-3.6   c0.3-1.3,0.7-2.4,1.1-3.2C66.5,169.9,67,169.3,67.6,169z"/><polygon points="218.9,153.5 212.2,153.5 201,159.9 204,167.9 210,164.3 210,181.1 202.2,181.1 202.2,189.8 225.6,189.8    225.6,181.1 218.9,181.1  "/><polygon points="303.2,157.5 296.5,157.5 285.2,163.9 288.2,171.9 294.3,168.3 294.3,185.1 286.5,185.1 286.5,193.8 309.9,193.8    309.9,185.1 303.2,185.1  "/><path d="M265,127.8c-1.2-1.6-2.6-2.7-4.3-3.5c-1.6-0.7-3.4-1.1-5.2-1.1c-2.2,0-4.1,0.4-5.8,1.3c-1.7,0.9-3.2,2.2-4.4,3.8   c-1.2,1.6-2.1,3.6-2.7,5.9c-0.6,2.3-0.9,4.8-0.9,7.7c0,3.1,0.3,5.8,0.9,8.1c0.6,2.3,1.5,4.3,2.7,5.8c1.2,1.6,2.6,2.7,4.3,3.5   c1.6,0.7,3.4,1.1,5.2,1.1c2.2,0,4.1-0.4,5.8-1.3c1.7-0.9,3.2-2.2,4.4-3.8c1.2-1.6,2.1-3.6,2.7-5.9c0.6-2.3,0.9-4.8,0.9-7.7   c0-3.1-0.3-5.8-0.9-8.1C267,131.3,266.1,129.4,265,127.8z M255.2,152.3c-0.9,0-1.6-0.3-2.2-0.8c-0.5-0.4-0.9-1-1.2-1.8l8.1-6.3   c-0.1,1.3-0.2,2.5-0.4,3.5c-0.3,1.3-0.7,2.4-1.1,3.2c-0.4,0.7-0.9,1.3-1.5,1.7C256.3,152.1,255.8,152.3,255.2,152.3z M253.5,132   c0.5-0.3,1.1-0.5,1.7-0.5c0.9,0,1.6,0.3,2.2,0.8c0.5,0.4,0.9,1.1,1.3,1.9l-8.2,6.3c0.1-1.4,0.2-2.6,0.4-3.6   c0.3-1.3,0.7-2.4,1.1-3.2C252.5,132.9,253,132.3,253.5,132z"/><polygon points="449.2,188.2 449.2,160.6 442.5,160.6 431.3,167 434.3,175 440.3,171.4 440.3,188.2 432.5,188.2 432.5,196.9    455.9,196.9 455.9,188.2  "/><polygon points="410,188.2 410,160.6 403.3,160.6 392,167 395,175 401.1,171.4 401.1,188.2 393.3,188.2 393.3,196.9 416.7,196.9    416.7,188.2  "/><polygon points="120.9,188.2 120.9,160.6 114.3,160.6 103,167 106,175 112.1,171.4 112.1,188.2 104.3,188.2 104.3,196.9    127.7,196.9 127.7,188.2  "/><path d="M29.3,242c-1.2-1.6-2.6-2.7-4.3-3.5c-1.6-0.7-3.4-1.1-5.2-1.1c-2.2,0-4.1,0.4-5.8,1.3c-1.7,0.9-3.2,2.2-4.4,3.8   c-1.2,1.6-2.1,3.6-2.7,5.9c-0.6,2.3-0.9,4.8-0.9,7.7c0,3.1,0.3,5.8,0.9,8.1c0.6,2.3,1.5,4.3,2.7,5.8c1.2,1.6,2.6,2.7,4.3,3.5   c1.6,0.7,3.4,1.1,5.2,1.1c2.2,0,4.1-0.4,5.8-1.3c1.7-0.9,3.2-2.2,4.4-3.8c1.2-1.6,2.1-3.6,2.7-5.9c0.6-2.3,0.9-4.8,0.9-7.7   c0-3.1-0.3-5.8-0.9-8.1C31.3,245.4,30.4,243.5,29.3,242z M19.5,266.4c-0.9,0-1.6-0.3-2.2-0.8c-0.5-0.4-0.9-1-1.2-1.8l8.1-6.3   c-0.1,1.3-0.2,2.5-0.4,3.5c-0.3,1.3-0.7,2.4-1.1,3.2c-0.4,0.7-0.9,1.3-1.5,1.7C20.6,266.2,20.1,266.4,19.5,266.4z M17.8,246.1   c0.5-0.3,1.1-0.5,1.7-0.5c0.9,0,1.6,0.3,2.2,0.8c0.5,0.4,0.9,1.1,1.3,1.9l-8.2,6.3c0.1-1.4,0.2-2.6,0.4-3.6   c0.3-1.3,0.7-2.4,1.1-3.2C16.8,247,17.2,246.5,17.8,246.1z"/><path d="M79.1,242c-1.2-1.6-2.6-2.7-4.3-3.5c-1.6-0.7-3.4-1.1-5.2-1.1c-2.2,0-4.1,0.4-5.8,1.3c-1.7,0.9-3.2,2.2-4.4,3.8   c-1.2,1.6-2.1,3.6-2.7,5.9c-0.6,2.3-0.9,4.8-0.9,7.7c0,3.1,0.3,5.8,0.9,8.1c0.6,2.3,1.5,4.3,2.7,5.8c1.2,1.6,2.6,2.7,4.3,3.5   c1.6,0.7,3.4,1.1,5.2,1.1c2.2,0,4.1-0.4,5.8-1.3c1.7-0.9,3.2-2.2,4.4-3.8c1.2-1.6,2.1-3.6,2.7-5.9c0.6-2.3,0.9-4.8,0.9-7.7   c0-3.1-0.3-5.8-0.9-8.1C81.1,245.4,80.2,243.5,79.1,242z M69.2,266.4c-0.9,0-1.6-0.3-2.2-0.8c-0.5-0.4-0.9-1-1.2-1.8l8.1-6.3   c-0.1,1.3-0.2,2.5-0.4,3.5c-0.3,1.3-0.7,2.4-1.1,3.2c-0.4,0.7-0.9,1.3-1.5,1.7C70.4,266.2,69.8,266.4,69.2,266.4z M67.6,246.1   c0.5-0.3,1.1-0.5,1.7-0.5c0.9,0,1.6,0.3,2.2,0.8c0.5,0.4,0.9,1.1,1.3,1.9l-8.2,6.3c0.1-1.4,0.2-2.6,0.4-3.6   c0.3-1.3,0.7-2.4,1.1-3.2C66.5,247,67,246.5,67.6,246.1z"/><path d="M456.2,247.7c-0.6-2.3-1.5-4.3-2.7-5.8c-1.2-1.6-2.6-2.7-4.3-3.5c-1.6-0.7-3.4-1.1-5.2-1.1c-2.2,0-4.1,0.4-5.8,1.3   c-1.7,0.9-3.2,2.2-4.4,3.8c-1.2,1.6-2.1,3.6-2.7,5.9c-0.6,2.3-0.9,4.8-0.9,7.7c0,3.1,0.3,5.8,0.9,8.1c0.6,2.3,1.5,4.3,2.7,5.8   c1.2,1.6,2.6,2.7,4.3,3.5c1.6,0.7,3.4,1.1,5.2,1.1c2.2,0,4.1-0.4,5.8-1.3c1.7-0.9,3.2-2.2,4.4-3.8c1.2-1.6,2.1-3.6,2.7-5.9   c0.6-2.3,0.9-4.8,0.9-7.7C457.1,252.7,456.8,250,456.2,247.7z M443.7,266.4c-0.9,0-1.6-0.3-2.2-0.8c-0.5-0.4-0.9-1-1.2-1.8l8.1-6.3   c-0.1,1.3-0.2,2.5-0.4,3.5c-0.3,1.3-0.7,2.4-1.1,3.2c-0.4,0.7-0.9,1.3-1.5,1.7C444.8,266.2,444.3,266.4,443.7,266.4z M442,246.1   c0.5-0.3,1.1-0.5,1.7-0.5c0.9,0,1.6,0.3,2.2,0.8c0.5,0.4,0.9,1.1,1.3,1.9l-8.2,6.3c0.1-1.4,0.2-2.6,0.4-3.6   c0.3-1.3,0.7-2.4,1.1-3.2C441,247,441.5,246.5,442,246.1z"/><polygon points="25,314.9 18.3,314.9 7.1,321.3 10.1,329.3 16.1,325.7 16.1,342.5 8.3,342.5 8.3,351.1 31.7,351.1 31.7,342.5    25,342.5  "/><path d="M79.1,319.1c-1.2-1.6-2.6-2.7-4.3-3.5c-1.6-0.7-3.4-1.1-5.2-1.1c-2.2,0-4.1,0.4-5.8,1.3c-1.7,0.9-3.2,2.2-4.4,3.8   c-1.2,1.6-2.1,3.6-2.7,5.9c-0.6,2.3-0.9,4.8-0.9,7.7c0,3.1,0.3,5.8,0.9,8.1c0.6,2.3,1.5,4.3,2.7,5.8c1.2,1.6,2.6,2.7,4.3,3.5   c1.6,0.7,3.4,1.1,5.2,1.1c2.2,0,4.1-0.4,5.8-1.3c1.7-0.9,3.2-2.2,4.4-3.8c1.2-1.6,2.1-3.6,2.7-5.9c0.6-2.3,0.9-4.8,0.9-7.7   c0-3.1-0.3-5.8-0.9-8.1C81.1,322.6,80.2,320.6,79.1,319.1z M69.2,343.5c-0.9,0-1.6-0.3-2.2-0.8c-0.5-0.4-0.9-1-1.2-1.8l8.1-6.3   c-0.1,1.3-0.2,2.5-0.4,3.5c-0.3,1.3-0.7,2.4-1.1,3.2c-0.4,0.7-0.9,1.3-1.5,1.7C70.4,343.3,69.8,343.5,69.2,343.5z M67.6,323.3   c0.5-0.3,1.1-0.5,1.7-0.5c0.9,0,1.6,0.3,2.2,0.8c0.5,0.4,0.9,1.1,1.3,1.9l-8.2,6.3c0.1-1.4,0.2-2.6,0.4-3.6   c0.3-1.3,0.7-2.4,1.1-3.2C66.5,324.1,67,323.6,67.6,323.3z"/><polygon points="449.2,342.5 449.2,314.9 442.5,314.9 431.3,321.3 434.3,329.3 440.3,325.7 440.3,342.5 432.5,342.5 432.5,351.1    455.9,351.1 455.9,342.5  "/><path d="M29.3,396.2c-1.2-1.6-2.6-2.7-4.3-3.5c-1.6-0.7-3.4-1.1-5.2-1.1c-2.2,0-4.1,0.4-5.8,1.3c-1.7,0.9-3.2,2.2-4.4,3.8   c-1.2,1.6-2.1,3.6-2.7,5.9C6.3,405,6,407.6,6,410.4c0,3.1,0.3,5.8,0.9,8.1c0.6,2.3,1.5,4.3,2.7,5.8c1.2,1.6,2.6,2.7,4.3,3.5   c1.6,0.7,3.4,1.1,5.2,1.1c2.2,0,4.1-0.4,5.8-1.3c1.7-0.9,3.2-2.2,4.4-3.8c1.2-1.6,2.1-3.6,2.7-5.9c0.6-2.3,0.9-4.8,0.9-7.7   c0-3.1-0.3-5.8-0.9-8.1C31.3,399.7,30.4,397.8,29.3,396.2z M19.5,420.6c-0.9,0-1.6-0.3-2.2-0.8c-0.5-0.4-0.9-1-1.2-1.8l8.1-6.3   c-0.1,1.3-0.2,2.5-0.4,3.5c-0.3,1.3-0.7,2.4-1.1,3.2c-0.4,0.7-0.9,1.3-1.5,1.7C20.6,420.5,20.1,420.6,19.5,420.6z M17.8,400.4   c0.5-0.3,1.1-0.5,1.7-0.5c0.9,0,1.6,0.3,2.2,0.8c0.5,0.4,0.9,1.1,1.3,1.9l-8.2,6.3c0.1-1.4,0.2-2.6,0.4-3.6   c0.3-1.3,0.7-2.4,1.1-3.2C16.8,401.3,17.2,400.7,17.8,400.4z"/><path d="M79.1,396.2c-1.2-1.6-2.6-2.7-4.3-3.5c-1.6-0.7-3.4-1.1-5.2-1.1c-2.2,0-4.1,0.4-5.8,1.3c-1.7,0.9-3.2,2.2-4.4,3.8   c-1.2,1.6-2.1,3.6-2.7,5.9c-0.6,2.3-0.9,4.8-0.9,7.7c0,3.1,0.3,5.8,0.9,8.1c0.6,2.3,1.5,4.3,2.7,5.8c1.2,1.6,2.6,2.7,4.3,3.5   c1.6,0.7,3.4,1.1,5.2,1.1c2.2,0,4.1-0.4,5.8-1.3c1.7-0.9,3.2-2.2,4.4-3.8c1.2-1.6,2.1-3.6,2.7-5.9c0.6-2.3,0.9-4.8,0.9-7.7   c0-3.1-0.3-5.8-0.9-8.1C81.1,399.7,80.2,397.8,79.1,396.2z M69.2,420.6c-0.9,0-1.6-0.3-2.2-0.8c-0.5-0.4-0.9-1-1.2-1.8l8.1-6.3   c-0.1,1.3-0.2,2.5-0.4,3.5c-0.3,1.3-0.7,2.4-1.1,3.2c-0.4,0.7-0.9,1.3-1.5,1.7C70.4,420.5,69.8,420.6,69.2,420.6z M67.6,400.4   c0.5-0.3,1.1-0.5,1.7-0.5c0.9,0,1.6,0.3,2.2,0.8c0.5,0.4,0.9,1.1,1.3,1.9l-8.2,6.3c0.1-1.4,0.2-2.6,0.4-3.6   c0.3-1.3,0.7-2.4,1.1-3.2C66.5,401.3,67,400.7,67.6,400.4z"/><path d="M456.2,402c-0.6-2.3-1.5-4.3-2.7-5.8c-1.2-1.6-2.6-2.7-4.3-3.5c-1.6-0.7-3.4-1.1-5.2-1.1c-2.2,0-4.1,0.4-5.8,1.3   c-1.7,0.9-3.2,2.2-4.4,3.8c-1.2,1.6-2.1,3.6-2.7,5.9c-0.6,2.3-0.9,4.8-0.9,7.7c0,3.1,0.3,5.8,0.9,8.1c0.6,2.3,1.5,4.3,2.7,5.8   c1.2,1.6,2.6,2.7,4.3,3.5c1.6,0.7,3.4,1.1,5.2,1.1c2.2,0,4.1-0.4,5.8-1.3c1.7-0.9,3.2-2.2,4.4-3.8c1.2-1.6,2.1-3.6,2.7-5.9   c0.6-2.3,0.9-4.8,0.9-7.7C457.1,407,456.8,404.3,456.2,402z M443.7,420.6c-0.9,0-1.6-0.3-2.2-0.8c-0.5-0.4-0.9-1-1.2-1.8l8.1-6.3   c-0.1,1.3-0.2,2.5-0.4,3.5c-0.3,1.3-0.7,2.4-1.1,3.2c-0.4,0.7-0.9,1.3-1.5,1.7C444.8,420.5,444.3,420.6,443.7,420.6z M442,400.4   c0.5-0.3,1.1-0.5,1.7-0.5c0.9,0,1.6,0.3,2.2,0.8c0.5,0.4,0.9,1.1,1.3,1.9l-8.2,6.3c0.1-1.4,0.2-2.6,0.4-3.6   c0.3-1.3,0.7-2.4,1.1-3.2C441,401.3,441.5,400.7,442,400.4z"/><polygon points="25,469.2 18.3,469.2 7.1,475.5 10.1,483.6 16.1,480 16.1,496.8 8.3,496.8 8.3,505.4 31.7,505.4 31.7,496.8    25,496.8  "/><path d="M79.1,473.4c-1.2-1.6-2.6-2.7-4.3-3.5c-1.6-0.7-3.4-1.1-5.2-1.1c-2.2,0-4.1,0.4-5.8,1.3c-1.7,0.9-3.2,2.2-4.4,3.8   c-1.2,1.6-2.1,3.6-2.7,5.9c-0.6,2.3-0.9,4.8-0.9,7.7c0,3.1,0.3,5.8,0.9,8.1c0.6,2.3,1.5,4.3,2.7,5.8c1.2,1.6,2.6,2.7,4.3,3.5   c1.6,0.7,3.4,1.1,5.2,1.1c2.2,0,4.1-0.4,5.8-1.3c1.7-0.9,3.2-2.2,4.4-3.8c1.2-1.6,2.1-3.6,2.7-5.9c0.6-2.3,0.9-4.8,0.9-7.7   c0-3.1-0.3-5.8-0.9-8.1C81.1,476.8,80.2,474.9,79.1,473.4z M69.2,497.8c-0.9,0-1.6-0.3-2.2-0.8c-0.5-0.4-0.9-1-1.2-1.8l8.1-6.3   c-0.1,1.3-0.2,2.5-0.4,3.5c-0.3,1.3-0.7,2.4-1.1,3.2c-0.4,0.7-0.9,1.3-1.5,1.7C70.4,497.6,69.8,497.8,69.2,497.8z M67.6,477.5   c0.5-0.3,1.1-0.5,1.7-0.5c0.9,0,1.6,0.3,2.2,0.8c0.5,0.4,0.9,1.1,1.3,1.9l-8.2,6.3c0.1-1.4,0.2-2.6,0.4-3.6   c0.3-1.3,0.7-2.4,1.1-3.2C66.5,478.4,67,477.9,67.6,477.5z"/><path d="M134.9,473.4c-1.2-1.6-2.6-2.7-4.3-3.5c-1.6-0.7-3.4-1.1-5.2-1.1c-2.2,0-4.1,0.4-5.8,1.3c-1.7,0.9-3.2,2.2-4.4,3.8   c-1.2,1.6-2.1,3.6-2.7,5.9c-0.6,2.3-0.9,4.8-0.9,7.7c0,3.1,0.3,5.8,0.9,8.1c0.6,2.3,1.5,4.3,2.7,5.8c1.2,1.6,2.6,2.7,4.3,3.5   c1.6,0.7,3.4,1.1,5.2,1.1c2.2,0,4.1-0.4,5.8-1.3c1.7-0.9,3.2-2.2,4.4-3.8c1.2-1.6,2.1-3.6,2.7-5.9c0.6-2.3,0.9-4.8,0.9-7.7   c0-3.1-0.3-5.8-0.9-8.1C136.9,476.8,136,474.9,134.9,473.4z M125,497.8c-0.9,0-1.6-0.3-2.2-0.8c-0.5-0.4-0.9-1-1.2-1.8l8.1-6.3   c-0.1,1.3-0.2,2.5-0.4,3.5c-0.3,1.3-0.7,2.4-1.1,3.2c-0.4,0.7-0.9,1.3-1.5,1.7C126.2,497.6,125.6,497.8,125,497.8z M123.3,477.5   c0.5-0.3,1.1-0.5,1.7-0.5c0.9,0,1.6,0.3,2.2,0.8c0.5,0.4,0.9,1.1,1.3,1.9l-8.2,6.3c0.1-1.4,0.2-2.6,0.4-3.6   c0.3-1.3,0.7-2.4,1.1-3.2C122.3,478.4,122.8,477.9,123.3,477.5z"/><polygon points="183.3,469.2 176.6,469.2 165.4,475.5 168.4,483.6 174.5,480 174.5,496.8 166.7,496.8 166.7,505.4 190,505.4    190,496.8 183.3,496.8  "/><path d="M240.4,473.4c-1.2-1.6-2.6-2.7-4.3-3.5c-1.6-0.7-3.4-1.1-5.2-1.1c-2.2,0-4.1,0.4-5.8,1.3c-1.7,0.9-3.2,2.2-4.4,3.8   c-1.2,1.6-2.1,3.6-2.7,5.9c-0.6,2.3-0.9,4.8-0.9,7.7c0,3.1,0.3,5.8,0.9,8.1c0.6,2.3,1.5,4.3,2.7,5.8c1.2,1.6,2.6,2.7,4.3,3.5   c1.6,0.7,3.4,1.1,5.2,1.1c2.2,0,4.1-0.4,5.8-1.3c1.7-0.9,3.2-2.2,4.4-3.8c1.2-1.6,2.1-3.6,2.7-5.9c0.6-2.3,0.9-4.8,0.9-7.7   c0-3.1-0.3-5.8-0.9-8.1C242.5,476.8,241.6,474.9,240.4,473.4z M230.6,497.8c-0.9,0-1.6-0.3-2.2-0.8c-0.5-0.4-0.9-1-1.2-1.8l8.1-6.3   c-0.1,1.3-0.2,2.5-0.4,3.5c-0.3,1.3-0.7,2.4-1.1,3.2c-0.4,0.7-0.9,1.3-1.5,1.7C231.7,497.6,231.2,497.8,230.6,497.8z M228.9,477.5   c0.5-0.3,1.1-0.5,1.7-0.5c0.9,0,1.6,0.3,2.2,0.8c0.5,0.4,0.9,1.1,1.3,1.9l-8.2,6.3c0.1-1.4,0.2-2.6,0.4-3.6   c0.3-1.3,0.7-2.4,1.1-3.2C227.9,478.4,228.4,477.9,228.9,477.5z"/><polygon points="288.9,469.2 282.2,469.2 270.9,475.5 274,483.6 280,480 280,496.8 272.2,496.8 272.2,505.4 295.6,505.4    295.6,496.8 288.9,496.8  "/><polygon points="341.7,469.2 335,469.2 323.7,475.5 326.7,483.6 332.8,480 332.8,496.8 325,496.8 325,505.4 348.4,505.4    348.4,496.8 341.7,496.8  "/><path d="M398.7,473.4c-1.2-1.6-2.6-2.7-4.3-3.5c-1.6-0.7-3.4-1.1-5.2-1.1c-2.2,0-4.1,0.4-5.8,1.3c-1.7,0.9-3.2,2.2-4.4,3.8   c-1.2,1.6-2.1,3.6-2.7,5.9c-0.6,2.3-0.9,4.8-0.9,7.7c0,3.1,0.3,5.8,0.9,8.1c0.6,2.3,1.5,4.3,2.7,5.8c1.2,1.6,2.6,2.7,4.3,3.5   c1.6,0.7,3.4,1.1,5.2,1.1c2.2,0,4.1-0.4,5.8-1.3c1.7-0.9,3.2-2.2,4.4-3.8c1.2-1.6,2.1-3.6,2.7-5.9c0.6-2.3,0.9-4.8,0.9-7.7   c0-3.1-0.3-5.8-0.9-8.1C400.8,476.8,399.9,474.9,398.7,473.4z M388.9,497.8c-0.9,0-1.6-0.3-2.2-0.8c-0.5-0.4-0.9-1-1.2-1.8l8.1-6.3   c-0.1,1.3-0.2,2.5-0.4,3.5c-0.3,1.3-0.7,2.4-1.1,3.2c-0.4,0.7-0.9,1.3-1.5,1.7C390.1,497.6,389.5,497.8,388.9,497.8z M387.2,477.5   c0.5-0.3,1.1-0.5,1.7-0.5c0.9,0,1.6,0.3,2.2,0.8c0.5,0.4,0.9,1.1,1.3,1.9l-8.2,6.3c0.1-1.4,0.2-2.6,0.4-3.6   c0.3-1.3,0.7-2.4,1.1-3.2C386.2,478.4,386.7,477.9,387.2,477.5z"/><polygon points="449.2,496.8 449.2,469.2 442.5,469.2 431.3,475.5 434.3,483.6 440.3,480 440.3,496.8 432.5,496.8 432.5,505.4    455.9,505.4 455.9,496.8  "/><polygon points="498.1,33.9 498.1,6.4 491.4,6.4 480.2,12.7 483.2,20.7 489.2,17.2 489.2,33.9 481.4,33.9 481.4,42.6 504.8,42.6    504.8,33.9  "/><path d="M505.1,94.5c-0.6-2.3-1.5-4.3-2.7-5.8c-1.2-1.6-2.6-2.7-4.3-3.5c-1.6-0.7-3.4-1.1-5.2-1.1c-2.2,0-4.1,0.4-5.8,1.3   c-1.7,0.9-3.2,2.2-4.4,3.8c-1.2,1.6-2.1,3.6-2.7,5.9c-0.6,2.3-0.9,4.8-0.9,7.7c0,3.1,0.3,5.8,0.9,8.1c0.6,2.3,1.5,4.3,2.7,5.8   c1.2,1.6,2.6,2.7,4.3,3.5c1.6,0.7,3.4,1.1,5.2,1.1c2.2,0,4.1-0.4,5.8-1.3c1.7-0.9,3.2-2.2,4.4-3.8c1.2-1.6,2.1-3.6,2.7-5.9   c0.6-2.3,0.9-4.8,0.9-7.7C506,99.5,505.7,96.7,505.1,94.5z M492.5,113.1c-0.9,0-1.6-0.3-2.2-0.8c-0.5-0.4-0.9-1-1.2-1.8l8.1-6.3   c-0.1,1.3-0.2,2.5-0.4,3.5c-0.3,1.3-0.7,2.4-1.1,3.2c-0.4,0.7-0.9,1.3-1.5,1.7C493.7,112.9,493.2,113.1,492.5,113.1z M490.9,92.8   c0.5-0.3,1.1-0.5,1.7-0.5c0.9,0,1.6,0.3,2.2,0.8c0.5,0.4,0.9,1.1,1.3,1.9l-8.2,6.3c0.1-1.4,0.2-2.6,0.4-3.6   c0.3-1.3,0.7-2.4,1.1-3.2C489.9,93.7,490.3,93.2,490.9,92.8z"/><polygon points="498.1,188.2 498.1,160.6 491.4,160.6 480.2,167 483.2,175 489.2,171.4 489.2,188.2 481.4,188.2 481.4,196.9    504.8,196.9 504.8,188.2  "/><path d="M505.1,247.7c-0.6-2.3-1.5-4.3-2.7-5.8c-1.2-1.6-2.6-2.7-4.3-3.5c-1.6-0.7-3.4-1.1-5.2-1.1c-2.2,0-4.1,0.4-5.8,1.3   c-1.7,0.9-3.2,2.2-4.4,3.8c-1.2,1.6-2.1,3.6-2.7,5.9c-0.6,2.3-0.9,4.8-0.9,7.7c0,3.1,0.3,5.8,0.9,8.1c0.6,2.3,1.5,4.3,2.7,5.8   c1.2,1.6,2.6,2.7,4.3,3.5c1.6,0.7,3.4,1.1,5.2,1.1c2.2,0,4.1-0.4,5.8-1.3c1.7-0.9,3.2-2.2,4.4-3.8c1.2-1.6,2.1-3.6,2.7-5.9   c0.6-2.3,0.9-4.8,0.9-7.7C506,252.7,505.7,250,505.1,247.7z M492.5,266.4c-0.9,0-1.6-0.3-2.2-0.8c-0.5-0.4-0.9-1-1.2-1.8l8.1-6.3   c-0.1,1.3-0.2,2.5-0.4,3.5c-0.3,1.3-0.7,2.4-1.1,3.2c-0.4,0.7-0.9,1.3-1.5,1.7C493.7,266.2,493.2,266.4,492.5,266.4z M490.9,246.1   c0.5-0.3,1.1-0.5,1.7-0.5c0.9,0,1.6,0.3,2.2,0.8c0.5,0.4,0.9,1.1,1.3,1.9l-8.2,6.3c0.1-1.4,0.2-2.6,0.4-3.6   c0.3-1.3,0.7-2.4,1.1-3.2C489.9,247,490.3,246.5,490.9,246.1z"/><polygon points="498.1,342.5 498.1,314.9 491.4,314.9 480.2,321.3 483.2,329.3 489.2,325.7 489.2,342.5 481.4,342.5 481.4,351.1    504.8,351.1 504.8,342.5  "/><path d="M505.1,402c-0.6-2.3-1.5-4.3-2.7-5.8c-1.2-1.6-2.6-2.7-4.3-3.5c-1.6-0.7-3.4-1.1-5.2-1.1c-2.2,0-4.1,0.4-5.8,1.3   c-1.7,0.9-3.2,2.2-4.4,3.8c-1.2,1.6-2.1,3.6-2.7,5.9c-0.6,2.3-0.9,4.8-0.9,7.7c0,3.1,0.3,5.8,0.9,8.1c0.6,2.3,1.5,4.3,2.7,5.8   c1.2,1.6,2.6,2.7,4.3,3.5c1.6,0.7,3.4,1.1,5.2,1.1c2.2,0,4.1-0.4,5.8-1.3c1.7-0.9,3.2-2.2,4.4-3.8c1.2-1.6,2.1-3.6,2.7-5.9   c0.6-2.3,0.9-4.8,0.9-7.7C506,407,505.7,404.3,505.1,402z M492.5,420.6c-0.9,0-1.6-0.3-2.2-0.8c-0.5-0.4-0.9-1-1.2-1.8l8.1-6.3   c-0.1,1.3-0.2,2.5-0.4,3.5c-0.3,1.3-0.7,2.4-1.1,3.2c-0.4,0.7-0.9,1.3-1.5,1.7C493.7,420.5,493.2,420.6,492.5,420.6z M490.9,400.4   c0.5-0.3,1.1-0.5,1.7-0.5c0.9,0,1.6,0.3,2.2,0.8c0.5,0.4,0.9,1.1,1.3,1.9l-8.2,6.3c0.1-1.4,0.2-2.6,0.4-3.6   c0.3-1.3,0.7-2.4,1.1-3.2C489.9,401.3,490.3,400.7,490.9,400.4z"/><polygon points="498.1,496.8 498.1,469.2 491.4,469.2 480.2,475.5 483.2,483.6 489.2,480 489.2,496.8 481.4,496.8 481.4,505.4    504.8,505.4 504.8,496.8  "/></g></svg>