<?xml version="1.0" ?><svg id="katman_1" style="enable-background:new 0 0 512 512;" version="1.1" viewBox="0 0 512 512" xml:space="preserve" xmlns="http://www.w3.org/2000/svg" xmlns:xlink="http://www.w3.org/1999/xlink"><style type="text/css">
	.st0{fill:#4363AC;}
	.st1{fill:#284696;}
	.st2{fill:#EA5658;}
	.st3{fill:#E73937;}
</style><g><path class="st0" d="M130.7,245.3c1.7,0.8,3.8-0.1,4.5-1.8c19.2-42.1,65.2-68.5,119.9-68.5c0.1,0,0.2,0,0.2,0   c55.7,0,104.3,27.6,123.9,70.2c0.6,1.3,1.8,2,3.1,2c0.5,0,1-0.1,1.4-0.3c1.7-0.8,2.5-2.8,1.7-4.5c-10.7-23.3-29.3-42.7-53.7-55.8   c-22.6-12.1-49-18.7-76.4-18.7c-0.1,0-0.2,0-0.3,0c-57.4,0-105.7,28-126.1,72.6C128.3,242.3,129,244.6,130.7,245.3z"/><path class="st0" d="M136.9,212.5c0.6,0.4,1.3,0.6,2,0.6c1.1,0,2.1-0.5,2.8-1.5C165.1,178.3,205.7,160,256,160h0c0,0,0,0,0,0   c0,0,0,0,0,0c50.3,0,90.8,18.3,114.2,51.6c0.7,1,1.7,1.5,2.8,1.5c0.7,0,1.4-0.2,2-0.6c1.6-1.1,1.9-3.2,0.8-4.8   c-12.8-18.2-30.4-32.2-52.4-41.6c-19.8-8.5-43.1-12.9-67.5-12.9c0,0,0,0.4,0,0.4c0,0,0,0.4,0,0.4h0c-24.4,0-47.7,4-67.5,12.5   c-21.9,9.4-39.6,23.2-52.4,41.4C135,209.4,135.4,211.4,136.9,212.5z"/><path class="st0" d="M145,190c1,0,1.9,0.2,2.6-0.6C171.5,161,210,146,256,146h0c0,0,0-0.6,0-0.6c0,0,0-0.3,0-0.3   c45.9,0,84.4,15.5,108.4,43.9c0.7,0.8,1.6,1.1,2.6,1.1c0.8,0,1.6-0.3,2.2-0.8c1.4-1.2,1.6-3.3,0.4-4.8C344.4,154.5,304,138,256,138   h0h0h0c-48,0-88.3,16.4-113.6,46.4c-1.2,1.4-1,3.6,0.4,4.8C143.4,189.7,144.2,190,145,190z"/><path class="st0" d="M151.9,168c0.9,0,1.7-0.4,2.4-1.1c24-23.7,60.2-36.9,101.7-36.9h0l0,0l0,0h0c41.5,0,77.7,13.2,101.7,36.9   c0.7,0.7,1.5,1,2.4,1c0.9,0,1.8-0.3,2.4-1c1.3-1.3,1.3-3.7,0-5c-25.3-25-63.2-38.9-106.5-38.9h0h0h0c-43.4,0-81.2,13.9-106.5,38.9   c-1.3,1.3-1.4,3.6,0,4.9C150.1,167.6,151,168,151.9,168z"/><path class="st0" d="M165.5,142.8c0.7,0,1.4-0.4,2-0.9c23.3-16.8,53.9-25.9,88.5-25.9h0h0c34.6,0,65.2,9.1,88.5,25.9   c0.6,0.4,1.3,0.8,2,0.8c1.1,0,2.1-0.4,2.8-1.4c1.1-1.5,0.8-3.9-0.8-5.1C324,118.6,292,109,256,109h0h0h0c-36,0-68,9.6-92.5,27.2   c-1.5,1.1-1.9,3.4-0.8,4.9C163.4,142.1,164.4,142.8,165.5,142.8z"/><path class="st0" d="M372.1,328.4c-1.6-1.1-3.7-0.9-4.8,0.6c-23.1,32.9-61.6,50-111.3,50h0c0,0,0,0,0,0l0,0h0   c-50.3,0-90.8-18.1-114.2-51.4c-1.1-1.6-3.2-1.8-4.8-0.7c-1.6,1.1-1.9,3.3-0.8,4.8c12.8,18.2,30.4,32.6,52.4,42   c19.8,8.5,43.1,13.3,67.5,13.3h0c0,0,0-0.3,0-0.3c0,0,0-0.2,0-0.2c52,0,92.4-18.5,116.9-53.3C374,331.7,373.6,329.5,372.1,328.4z"/><path class="st0" d="M364.4,350.8C340.5,379.2,302,395,256,395h0c0,0,0,0,0,0l0,0h0c-45.9,0-84.4-15.8-108.4-44.2   c-1.2-1.4-3.4-1.7-4.8-0.5c-1.4,1.2-1.6,3.5-0.4,5C167.6,385.3,208,402,256,402h0c0,0,0-0.2,0-0.2c0,0,0-0.1,0-0.1   c48,0,88.3-16.5,113.6-46.5c1.2-1.4,1-3.6-0.4-4.8C367.8,349.2,365.6,349.4,364.4,350.8z"/><path class="st0" d="M357.7,372.3c-24,23.7-60.2,36.7-101.7,36.7h0c0,0,0,0.1,0,0.1c0,0,0,0.1,0,0.1c-41.5,0-77.7-13-101.7-36.8   c-1.3-1.3-3.5-1.3-4.9,0c-1.3,1.3-1.3,3.5,0,4.8c25.3,25,63.2,38.7,106.5,38.7h0h0h0c43.4,0,81.2-13.7,106.5-38.7   c1.3-1.3,1.4-3.5,0-4.9C361.3,371.1,359.1,371,357.7,372.3z"/><path class="st0" d="M344.5,397.4C321.2,414.1,290.6,423,256,423h0c0,0,0,0,0,0c0,0,0,0,0,0c-34.6,0-65.2-8.9-88.5-25.7   c-1.5-1.1-3.7-0.8-4.8,0.8c-1.1,1.5-0.8,3.7,0.8,4.8c24.5,17.6,56.5,27,92.5,27h0h0h0c36,0,68-9.4,92.5-27c1.5-1.1,1.9-3.3,0.8-4.8   C348.2,396.6,346.1,396.3,344.5,397.4z"/><path class="st0" d="M181.9,119.8c0.5,0,1.1-0.3,1.5-0.6c20.6-10.4,45.7-16.2,72.5-16.2h0l0,0l0,0h0c26.8,0,51.9,5.8,72.5,16.2   c0.5,0.3,1,0.5,1.5,0.5c1.3,0,2.5-0.6,3.1-1.8c0.9-1.7,0.2-3.7-1.5-4.6c-21.6-10.9-47.7-16.7-75.6-16.7c0,0,0,0.2,0,0.2   c0,0,0,0.2,0,0.2h0c-27.9,0-54,5.6-75.6,16.5c-1.7,0.9-2.4,2.8-1.5,4.5C179.5,119.2,180.7,119.8,181.9,119.8z"/><path class="st0" d="M128.7,269c0.6,0,1.2-0.2,1.8-0.5c7.7-4.6,12.1-12.1,16.9-20c2.2-3.7,4.5-7.6,7.3-11.5   c0.4-0.6,0.9-1.2,1.4-1.9c9.8-13.8,32.8-46.2,100-46.2s90.2,32.4,100,46.2c0.5,0.7,1,1.3,1.4,1.9c2.8,3.8,5.1,7.7,7.3,11.5   c4.7,7.9,9.2,15.4,16.9,20c0.5,0.3,1.2,0.5,1.8,0.5c1.2,0,2.3-0.6,3-1.7c1-1.6,0.4-3.7-1.2-4.7c-6.2-3.7-10-10.1-14.5-17.6   c-2.3-3.9-4.7-7.9-7.7-12c-0.4-0.6-0.9-1.2-1.3-1.9c-5.1-7.2-13.7-19.3-30.1-29.9c-19.8-12.7-45.2-19.2-75.5-19.2   s-55.6,6.5-75.5,19.2c-16.4,10.6-25,22.7-30.1,29.9c-0.5,0.7-0.9,1.3-1.3,1.9c-3,4.1-5.4,8.1-7.7,12c-4.5,7.5-8.3,13.9-14.5,17.6   c-1.6,1-2.2,3.1-1.2,4.7C126.4,268.5,127.5,269,128.7,269z"/><path class="st0" d="M256,365.1c-66.5,0-89.8-29.9-99.7-42.6c-1.2-1.5-3.3-1.8-4.8-0.6c-1.5,1.2-1.8,3.3-0.6,4.8   C161.4,340.2,186.2,372,256,372c69.8,0,94.6-31.7,105.1-45.3c1.2-1.5,0.9-3.7-0.6-4.8c-1.5-1.2-3.7-0.9-4.8,0.6   C345.8,335.2,322.5,365.1,256,365.1z"/><path class="st0" d="M347.4,314.8c-1.5-1.2-3.6-0.9-4.8,0.5c-18.8,23.4-47.9,35.3-86.5,35.3c-47.5,0-69.9-16.7-80.4-30.6   c-1.1-1.5-3.3-1.8-4.8-0.7c-1.5,1.1-1.8,3.3-0.7,4.8c11.4,15.2,35.6,33.4,85.9,33.4c40.8,0,71.8-12.7,91.9-37.9   C349.1,318.1,348.8,316,347.4,314.8z"/><path class="st0" d="M335.6,304.6c-1.5-1.2-3.7-0.9-4.8,0.6c-21,27-52.8,30.2-75,30.2c-26.1,0-46.3-4.7-55.5-12.9   c-1.4-1.3-3.6-1.1-4.8,0.3c-1.3,1.4-1.1,3.6,0.3,4.8c14.2,12.6,43.3,14.4,59.7,14.5c0,0,0-0.1,0-0.1c0.1,0,0.1,0,0.2,0   c0.1,0,0.2,0,0.3,0c0,0,0,0.1,0,0.1c23.7-0.1,57.5-3.6,80.2-32.8C337.4,307.8,337.1,305.8,335.6,304.6z"/><path class="st0" d="M386,282.2c-10-3.6-23.6-21.1-34.4-36.1c-11.9-16.6-22.9-29.3-37.8-37.6c-14.6-8.2-32.5-11.9-57.9-11.9   s-43.3,3.7-57.9,11.9c-14.8,8.3-25.8,21.1-37.8,37.6c-10.8,14.9-24.4,32.5-34.4,36.1c-1.8,0.6-2.7,2.6-2.1,4.4   c0.5,1.4,1.8,2.3,3.2,2.3c0.4,0,0.8-0.1,1.2-0.2c11.7-4.2,25.6-21.8,37.6-38.5c23.7-32.9,41.5-46.7,90.1-46.7s66.3,13.8,90.1,46.7   c12,16.7,25.9,34.3,37.6,38.5c0.4,0.1,0.8,0.2,1.2,0.2c1.4,0,2.7-0.9,3.2-2.3C388.7,284.8,387.8,282.8,386,282.2z"/><path class="st0" d="M194.5,99c0.3,0,0.7,0,1-0.2c18-5.6,34-9.8,60.5-10c26.5,0.1,42.5,4.4,60.5,10c0.3,0.1,0.7,0.2,1,0.2   c1.5,0,2.8-0.9,3.3-2.4c0.6-1.8-0.5-3.7-2.3-4.3c-14.4-4.4-32.2-9.9-61.1-10.3c-0.1,0-0.1,0-0.2,0c-0.4,0-0.9,0-1.3,0   c-0.4,0-0.9,0-1.3,0c-0.1,0-0.1,0-0.2,0c-28.9,0.3-46.7,5.8-61.1,10.3c-1.8,0.6-2.8,2.5-2.3,4.3C191.7,98.1,193,99,194.5,99z"/><path class="st0" d="M203.8,317.3c14.5,3.8,30.9,8.1,53.3,8.1c31.7,0,57.6-25.8,57.6-57.6s-25.8-57.6-57.6-57.6   c-51.2,0-69.4,25-87,49.2c-11.6,16-22.6,31-42.7,39.5c-1.7,0.7-2.6,2.7-1.8,4.5c0.7,1.7,2.7,2.6,4.5,1.8   c21.9-9.2,34-25.8,45.6-41.8c17.3-23.9,33.7-46.4,81.5-46.4c28,0,50.7,22.7,50.7,50.7s-22.7,50.7-50.7,50.7   c-21.5,0-36.7-4-51.5-7.9c-22.2-5.9-41.5-10.9-73.8-0.1c-1.8,0.6-2.8,2.5-2.2,4.3c0.6,1.8,2.5,2.8,4.3,2.2   C164.3,306.9,182.6,311.7,203.8,317.3z"/><path class="st0" d="M384.7,299.1c-20.1-8.5-31.1-23.5-42.7-39.5c-6.9-9.5-14.1-19.4-23.3-27.6c-1.4-1.3-3.6-1.1-4.8,0.3   c-1.3,1.4-1.1,3.6,0.3,4.8c8.7,7.8,15.6,17.3,22.3,26.5c11.6,16,23.7,32.6,45.6,41.8c0.4,0.2,0.9,0.3,1.3,0.3   c1.3,0,2.6-0.8,3.2-2.1C387.2,301.8,386.4,299.8,384.7,299.1z"/><path class="st0" d="M164.3,297.4c16-0.5,29.1,3,43,6.6c14.4,3.8,29.2,7.7,49.8,7.7c24.2,0,43.8-19.7,43.8-43.8   s-19.7-43.8-43.8-43.8c-40.8,0-59.9,21.5-75.9,43.6c-5.8,8-11.9,16.3-19.4,23.9c-1,1-1.3,2.5-0.7,3.8   C161.6,296.6,163,297.5,164.3,297.4z M186.7,271.7c15.6-21.5,32.7-40.7,70.4-40.7c20.4,0,37,16.6,37,37s-16.6,37-37,37   c-19.7,0-34.1-3.8-48-7.5c-12.1-3.2-23.6-6.2-37-6.8C177.5,284.4,182.1,277.9,186.7,271.7z"/><path class="st0" d="M257.1,298c16.6,0,30.1-13.5,30.1-30.1s-13.5-30.1-30.1-30.1c-30.9,0-48.3,15.2-64.8,37.9   c-1.2,1.6-2.4,3.2-3.6,4.9c-0.7,0.9-0.9,2.2-0.4,3.3c0.4,1.1,1.4,1.9,2.5,2.1c6.9,1.3,13.6,3.1,20,4.8   C224.9,294.5,238.3,298,257.1,298z M197.8,279.7c15.8-21.7,31.2-35.1,59.3-35.1c12.8,0,23.3,10.4,23.3,23.3   c0,12.8-10.4,23.3-23.3,23.3c-17.9,0-30.8-3.4-44.5-7c-4.9-1.3-10-2.6-15.2-3.8C197.5,280.2,197.6,279.9,197.8,279.7z"/><path class="st0" d="M214.3,277.5c13.8,3.6,25.8,6.8,42.8,6.8c9,0,16.4-7.4,16.4-16.4s-7.4-16.4-16.4-16.4   c-27.8,0-43.2,18.4-44.9,20.5c-0.7,0.9-0.9,2.1-0.6,3.2c0.4,1.1,1.2,1.9,2.4,2.2L214.3,277.5z M257.1,258.4c5.3,0,9.5,4.3,9.5,9.5   s-4.3,9.5-9.5,9.5c-14,0-24.5-2.3-35.7-5.2C227.1,266.9,239.1,258.4,257.1,258.4z"/><path class="st0" d="M382.8,313c-24.4-2.7-40.6-28.3-49.2-42.1c-2.1-3.3-3.7-5.8-5-7.5c-1-1.2-2.7-1.6-4.1-1   c-1.4,0.7-2.2,2.2-1.9,3.7c0,0.2,3.7,21.4-8.7,35.2c-1.3,1.4-1.2,3.6,0.3,4.8c1.4,1.3,3.6,1.2,4.8-0.3c8-8.8,10.4-19.8,10.9-28.2   c9.7,15.2,26.4,39.1,52.2,42c0.1,0,0.3,0,0.4,0c1.7,0,3.2-1.3,3.4-3.1C386.1,314.9,384.7,313.3,382.8,313z"/></g><g><path class="st1" d="M384.7,299.1c-20.1-8.5-31.1-23.5-42.7-39.5c-6.9-9.5-14.1-19.4-23.3-27.6c-1.4-1.3-3.6-1.1-4.8,0.3   c-1.3,1.4-1.1,3.6,0.3,4.8c8.7,7.8,15.6,17.3,22.3,26.5c11.6,16,23.7,32.6,45.6,41.8c0.4,0.2,0.9,0.3,1.3,0.3   c1.3,0,2.6-0.8,3.2-2.1C387.2,301.8,386.4,299.8,384.7,299.1z"/><path class="st1" d="M382.8,313c-24.4-2.7-40.6-28.3-49.2-42.1c-2.1-3.3-3.7-5.8-5-7.5c-1-1.2-2.7-1.6-4.1-1   c-1.4,0.7-2.2,2.2-1.9,3.7c0,0.2,3.7,21.4-8.7,35.2c-1.3,1.4-1.2,3.6,0.3,4.8c1.4,1.3,3.6,1.2,4.8-0.3c8-8.8,10.4-19.8,10.9-28.2   c9.7,15.2,26.4,39.1,52.2,42c0.1,0,0.3,0,0.4,0c1.7,0,3.2-1.3,3.4-3.1C386.1,314.9,384.7,313.3,382.8,313z"/><path class="st1" d="M349.3,398.2c-1.1-1.5-3.3-1.9-4.8-0.8c-23.1,16.6-53.3,25.4-87.5,25.6v7c35.6-0.2,67.2-9.5,91.5-27   C350.1,401.9,350.4,399.7,349.3,398.2z"/><path class="st1" d="M362.6,372.4c-1.3-1.3-3.5-1.4-4.9-0.1c-23.8,23.5-59.6,36.4-100.7,36.7v7c42.9-0.2,80.4-13.9,105.5-38.7   C363.9,376,363.9,373.8,362.6,372.4z"/><path class="st1" d="M369.3,350.4c-1.4-1.2-3.6-1-4.8,0.4c-23.8,28.2-61.9,43.9-107.4,44.1v6.7c47.5-0.2,87.5-16.8,112.6-46.5   C370.9,353.7,370.7,351.6,369.3,350.4z"/><path class="st1" d="M372.1,328.4c-1.6-1.1-3.7-0.9-4.8,0.6c-22.9,32.6-61,49.8-110.2,50v7.5c51.5-0.2,91.6-18.7,115.9-53.2   C374,331.7,373.6,329.5,372.1,328.4z"/><path class="st1" d="M360.5,321.9c-1.5-1.2-3.7-0.9-4.8,0.6c-9.9,12.7-33,42.3-98.7,42.6v6.9c69-0.3,93.6-31.8,104.1-45.3   C362.3,325.2,362,323,360.5,321.9z"/><path class="st1" d="M347.4,314.8c-1.5-1.2-3.6-0.9-4.8,0.5c-18.6,23.2-47.3,35.1-85.5,35.3v6.9c40.3-0.2,70.9-13,90.8-37.9   C349.1,318.1,348.8,316,347.4,314.8z"/><path class="st1" d="M335.6,304.6c-1.5-1.2-3.7-0.9-4.8,0.6c-20.6,26.4-51.6,30-73.7,30.2v6.7c23.6-0.2,56.8-4,79.2-32.8   C337.4,307.8,337.1,305.8,335.6,304.6z"/><path class="st1" d="M257.1,251.5v6.9c5.3,0,9.5,4.3,9.5,9.5s-4.3,9.5-9.5,9.5v6.9c9,0,16.4-7.4,16.4-16.4S266.1,251.5,257.1,251.5   z"/><path class="st1" d="M257.1,237.8v6.9c12.8,0,23.3,10.4,23.3,23.3c0,12.8-10.4,23.3-23.3,23.3v6.9c16.6,0,30.1-13.5,30.1-30.1   C287.2,251.3,273.7,237.8,257.1,237.8z"/><path class="st1" d="M257.1,224.1v6.9c20.4,0,37,16.6,37,37s-16.6,37-37,37v6.9c24.2,0,43.8-19.7,43.8-43.8   S281.2,224.1,257.1,224.1z"/><path class="st1" d="M257.1,210.3v6.9c28,0,50.7,22.7,50.7,50.7s-22.7,50.7-50.7,50.7v6.9c31.7,0,57.6-25.8,57.6-57.6   S288.8,210.3,257.1,210.3z"/><path class="st1" d="M386,282.2c-10-3.6-23.6-21.1-34.4-36.1c-11.9-16.6-22.9-29.3-37.8-37.6c-14.4-8.1-32-11.8-56.8-11.9v6.9   c47.8,0.2,65.5,14,89,46.7c12,16.7,25.9,34.3,37.6,38.5c0.4,0.1,0.8,0.2,1.2,0.2c1.4,0,2.7-0.9,3.2-2.3   C388.7,284.8,387.8,282.8,386,282.2z"/><path class="st1" d="M385.1,262.7c-6.2-3.7-10-10.1-14.5-17.6c-2.3-3.9-4.7-7.9-7.7-12c-0.4-0.6-0.9-1.2-1.3-1.9   c-5.1-7.2-13.7-19.3-30.1-29.9c-19.6-12.6-44.6-19-74.4-19.2v6.9c66.4,0.3,89.2,32.4,98.9,46.2c0.5,0.7,1,1.3,1.4,1.9   c2.8,3.8,5.1,7.7,7.3,11.5c4.7,7.9,9.2,15.4,16.9,20c0.5,0.3,1.2,0.5,1.8,0.5c1.2,0,2.3-0.6,3-1.7   C387.3,265.7,386.7,263.6,385.1,262.7z"/><path class="st1" d="M385.6,242.4c-10.7-23.3-29.3-42.7-53.7-55.8c-22.2-11.9-48-18.4-74.8-18.7v7c55,0.5,102.8,28,122.3,70.2   c0.6,1.3,1.8,2,3.1,2c0.5,0,1-0.1,1.4-0.3C385.6,246.2,386.4,244.2,385.6,242.4z"/><path class="st1" d="M375.9,207.7c-12.8-18.2-30.4-32.2-52.4-41.6c-19.5-8.3-42.5-12.8-66.4-12.9v6.9c49.8,0.2,90,18.5,113.2,51.6   c0.7,1,1.7,1.5,2.8,1.5c0.7,0,1.4-0.2,2-0.6C376.6,211.4,377,209.2,375.9,207.7z"/><path class="st1" d="M369.7,184.4c-25.1-29.7-65.1-46.2-112.6-46.4v7c45.5,0.2,83.6,15.7,107.4,43.9c0.7,0.8,1.6,1.1,2.6,1.1   c0.8,0,1.6-0.3,2.2-0.8C370.7,188,370.9,185.9,369.7,184.4z"/><path class="st1" d="M362.6,161.9c-25.1-24.8-62.6-38.7-105.5-38.9v7c41.1,0.2,76.8,13.4,100.7,36.9c0.7,0.7,1.5,1,2.4,1   c0.9,0,1.8-0.3,2.4-1C363.9,165.6,363.9,163.3,362.6,161.9z"/><path class="st1" d="M348.5,136.2c-24.3-17.5-55.9-27-91.5-27.2v7c34.1,0.2,64.4,9.2,87.5,25.9c0.6,0.4,1.3,0.8,2,0.8   c1.1,0,2.1-0.4,2.8-1.4C350.4,139.7,350.1,137.3,348.5,136.2z"/><path class="st1" d="M331.6,113.3c-21.3-10.8-47.1-16.5-74.6-16.7v6.4c26.4,0.1,51.1,5.9,71.5,16.2c0.5,0.3,1,0.5,1.5,0.5   c1.3,0,2.5-0.6,3.1-1.8C334,116.2,333.3,114.1,331.6,113.3z"/><path class="st1" d="M318.5,92.3c-14.4-4.4-32.2-9.9-61.1-10.3c-0.1,0-0.1,0-0.2,0c-0.1,0-0.2,0-0.2,0v6.9   c25.9,0.2,41.6,4.5,59.4,10c0.3,0.1,0.7,0.2,1,0.2c1.5,0,2.8-0.9,3.3-2.4C321.3,94.8,320.3,92.9,318.5,92.3z"/></g><g><path class="st2" d="M498.2,280.7H13.8c-4.3,0-7.8-3.5-7.8-7.8v-0.4c0-4.3,3.5-7.8,7.8-7.8h484.4c4.3,0,7.8,3.5,7.8,7.8v0.4   C506,277.2,502.5,280.7,498.2,280.7z"/></g><path class="st3" d="M498.2,264.7H257.1v16h241.1c4.3,0,7.8-3.5,7.8-7.8v-0.4C506,268.2,502.5,264.7,498.2,264.7z"/></svg>