<?xml version="1.0" ?><!DOCTYPE svg  PUBLIC '-//W3C//DTD SVG 1.1//EN'  'http://www.w3.org/Graphics/SVG/1.1/DTD/svg11.dtd'><svg enable-background="new 0 0 50 50" height="50px" id="Layer_1" version="1.1" viewBox="0 0 50 50" width="50px" xml:space="preserve" xmlns="http://www.w3.org/2000/svg" xmlns:xlink="http://www.w3.org/1999/xlink"><g><path clip-rule="evenodd" d="M20.051,48.36c-1.013-0.268-1.652-1.32-2.271-2.342   c-0.24-0.394-0.466-0.768-0.714-1.1c-0.047-0.779-0.192-1.058-0.332-1.327c-0.097-0.187-0.189-0.362-0.251-0.738   c-0.031-0.187-0.026-0.343-0.022-0.481c0.008-0.289,0.017-0.564-0.324-0.859c0.013-1.644-0.03-3.082-0.585-4.051l-0.001-0.125   c-0.013-1.004-0.025-1.962,0.388-2.448c-0.259,2.235,0.209,4.551,0.663,6.794c0.169,0.838,0.33,1.629,0.448,2.398l0.008,0.051   l0.033,0.04c0.628,0.753,1,1.812,1.359,2.835l0.011,0.032l0.031,0.052c0.223,0.268,0.514,0.455,0.795,0.635   C19.581,47.915,19.863,48.097,20.051,48.36z" fill="#404041" fill-rule="evenodd"/><path clip-rule="evenodd" d="M24.391,47.56c-0.222,0-0.423-0.063-0.609-0.168l0.016-0.002   c0.069-0.01,0.132-0.014,0.191-0.014c0.251,0,0.42,0.076,0.611,0.167C24.528,47.554,24.458,47.56,24.391,47.56z M23.598,47.271   c-0.334-0.25-0.621-0.628-0.902-0.999c-0.302-0.398-0.588-0.777-0.936-1.023c0.056-0.373-0.052-0.591-0.149-0.785   c-0.089-0.181-0.16-0.323-0.106-0.61l0.018-0.099l-0.072-0.07c-0.524-0.506-0.925-0.973-0.889-1.897h0.324   c0.155,0.19,0.265,0.437,0.382,0.694c0.188,0.417,0.381,0.847,0.788,1.092c-0.129,1.307,0.385,1.978,0.882,2.627   C23.196,46.539,23.442,46.86,23.598,47.271L23.598,47.271z" fill="#404041" fill-rule="evenodd"/><path clip-rule="evenodd" d="M25.568,46.92c-0.193-0.132-0.409-0.257-0.635-0.388   c-0.757-0.437-1.604-0.926-1.851-1.91c0.35,0.226,0.608,0.552,0.878,0.893c0.414,0.521,0.841,1.059,1.62,1.258   C25.583,46.83,25.577,46.878,25.568,46.92z" fill="#404041" fill-rule="evenodd"/><path clip-rule="evenodd" d="M28.958,46.06c-0.305-0.035-0.578-0.1-0.83-0.189   c0.096-0.014,0.186-0.02,0.268-0.02C28.661,45.851,28.843,45.916,28.958,46.06z M27.935,45.796   c-0.793-0.335-1.35-0.914-1.928-1.516c-0.084-0.088-0.168-0.174-0.252-0.26c0.031-0.023,0.059-0.049,0.082-0.078   c0.068,0.027,0.139,0.054,0.208,0.08c0.454,0.167,0.71,0.283,0.694,0.723l-0.006,0.15l0.145,0.038   c0.535,0.139,0.877,0.408,1.041,0.822L27.935,45.796z" fill="#404041" fill-rule="evenodd"/><path clip-rule="evenodd" d="M32.985,44.333c-0.037-0.079-0.063-0.193-0.037-0.372l0.004-0.032   c0.18,0.09,0.365,0.175,0.559,0.252v0.152H32.985z M32.601,43.737c-0.828-0.081-1.278-0.541-1.753-1.027   c-0.362-0.371-0.735-0.752-1.282-0.971c0.06-0.111,0.08-0.221,0.063-0.33c-0.048-0.303-0.362-0.471-0.668-0.633   c-0.114-0.062-0.231-0.124-0.319-0.188c0.071-0.645-0.24-0.945-0.535-1.15c0.188-0.434-0.086-0.749-0.332-1.031   c-0.255-0.292-0.519-0.594-0.432-1.096l0.018-0.1l-0.074-0.068c-0.045-0.041-0.086-0.086-0.127-0.131   c-0.102-0.109-0.213-0.23-0.369-0.313c0.064-0.4-0.023-0.75-0.096-1.036c-0.08-0.314-0.105-0.464-0.021-0.557   c0.115,0.267,0.237,0.515,0.354,0.753c0.377,0.766,0.703,1.428,0.645,2.342c0.076,0.328,0.372,0.328,0.47,0.328l0.257-0.008   c0.043,0,0.072,0.003,0.09,0.006v0.916l0.475,0.627C29.989,41.435,31.044,42.837,32.601,43.737z M26.467,34.574   c-0.244-0.302-0.405-0.729-0.496-1.312h0.2C26.226,33.756,26.333,34.187,26.467,34.574z" fill="#404041" fill-rule="evenodd"/><path clip-rule="evenodd" d="M25.232,43.653c-0.322,0-0.861-0.651-1.217-1.083   c-0.022-0.026-0.043-0.053-0.064-0.077l0.212,0.096c0.153,0.068,0.293,0.1,0.443,0.1c0.058,0,0.112-0.004,0.166-0.01   c0.042-0.004,0.084-0.008,0.129-0.008c0.023,0,0.046,0.002,0.067,0.004c-0.009,0.195,0.033,0.348,0.129,0.461   c0.095,0.113,0.233,0.176,0.412,0.186C25.451,43.492,25.361,43.653,25.232,43.653z M23.918,42.455   c-0.114-0.138-0.218-0.259-0.308-0.349c0.012-0.687-0.159-1.189-0.324-1.676c-0.084-0.246-0.165-0.482-0.222-0.74   c0.062-0.002,0.354-0.012,0.433-0.012c0.055,0,0.19,0,0.291,0.027c-0.159,0.697,0.1,1.209,0.311,1.625   c0.237,0.471,0.322,0.672,0.015,0.948L23.918,42.455z" fill="#404041" fill-rule="evenodd"/><path clip-rule="evenodd" d="M33.923,43.194c0.039-0.062,0.107-0.108,0.207-0.172   c0.104-0.066,0.22-0.143,0.305-0.266l0.038-0.055c0.001,0.05-0.002,0.104-0.009,0.162c-0.105,0.051-0.184,0.121-0.249,0.182   C34.118,43.134,34.054,43.192,33.923,43.194z M34.376,42.49c-0.93-0.546-1.529-1.405-2.165-2.315   c-0.47-0.675-0.956-1.371-1.587-1.922c0.012-0.006,0.027-0.01,0.041-0.014c0.08-0.023,0.179-0.051,0.254-0.136l0.066-0.076   L30.978,38c0.248,0.498,0.51,0.987,0.791,1.45c0.061,0.242,0.334,0.248,0.469,0.25c0.047,0.002,0.123,0.003,0.146,0.014   l0.005,0.061c0.203,0.568,0.433,1.208,1.122,1.394c0.027,0.472,0.314,0.7,0.55,0.888c0.184,0.146,0.334,0.268,0.39,0.479   L34.376,42.49z M22.979,38.97c-0.018-0.039-0.041-0.072-0.069-0.104c-0.04-0.043-0.087-0.076-0.142-0.1   c0.003-0.002,0.007-0.004,0.011-0.007c0.076-0.051,0.17-0.113,0.228-0.231l0.043-0.09l-0.051-0.086   c-0.43-0.725-0.377-2.002-0.326-3.237c0.027-0.657,0.055-1.335,0.011-1.94c0.373-0.258,0.565-0.723,0.576-1.383   c0.411-0.205,0.714-0.426,1.008-0.64c0.479-0.349,0.896-0.651,1.688-0.799c2.087,1.271,3.169,3.64,4.217,5.932   c0.207,0.453,0.417,0.913,0.636,1.366c-0.178-0.201-0.451-0.287-0.685-0.359c-0.024-0.008-0.047-0.014-0.07-0.021   c0.077-0.679-0.286-0.95-0.618-1.154c-0.283-2.318-1.342-3.438-2.566-4.729c-0.166-0.175-0.556-0.593-0.556-0.593l-0.073-0.007   c-0.113-0.01-0.223-0.014-0.327-0.014c-1.385,0-1.962,0.802-2.521,1.577c-0.148,0.206-0.297,0.413-0.462,0.603l-0.058,0.066   l0.015,0.088c0.071,0.424,0.032,0.98-0.005,1.521c-0.063,0.909-0.129,1.847,0.312,2.341c-0.014,0.012-0.032,0.025-0.056,0.043   c-0.089,0.063-0.222,0.16-0.25,0.357l-0.007,0.045l0.015,0.043c0.07,0.201,0.168,0.369,0.262,0.532   c0.126,0.217,0.247,0.424,0.292,0.7c0,0-0.002,0-0.003,0c-0.263,0-0.382,0.163-0.461,0.271   C22.982,38.964,22.98,38.967,22.979,38.97z" fill="#404041" fill-rule="evenodd"/><path clip-rule="evenodd" d="M20.443,41.314c-0.074,0-0.138-0.075-0.277-0.26   C20.125,41,20.08,40.94,20.029,40.879c0.024-0.019,0.057-0.026,0.104-0.026h0.199c0,0,0.006-0.207,0.006-0.211   c0.053,0.183,0.19,0.281,0.29,0.352c0.092,0.066,0.138,0.102,0.152,0.164C20.593,41.285,20.495,41.314,20.443,41.314z    M20.317,40.537c-0.062-0.198-0.251-0.298-0.565-0.298c-0.017,0-0.035,0-0.053,0c-0.117-0.345-0.219-0.725-0.302-1.127l0.056,0.084   c0.145,0.225,0.326,0.502,0.771,0.502c0.058,0,0.121-0.004,0.19-0.016l0.219-0.034c-0.059,0.233-0.155,0.461-0.292,0.688   l-0.023,0.038l-0.003,0.045C20.313,40.462,20.313,40.501,20.317,40.537z M20.559,39.428c-0.146-0.354-0.135-0.694-0.124-1.024   c0.015-0.445,0.029-0.902-0.341-1.329c0.051-0.052,0.092-0.11,0.126-0.173c0.408,1.119,0.609,1.957,0.421,2.725L20.559,39.428z    M19.381,39.032c-0.357-1.787-0.357-4.013,0.301-5.734c0.141,0.053,0.227,0.152,0.269,0.308c-0.664,0.782-0.616,2.23-0.57,3.632   c0.02,0.605,0.04,1.23,0.002,1.781L19.381,39.032z M20.37,36.54c0.067-0.182,0.121-0.285,0.216-0.33   c0.004,0.131-0.058,0.188-0.157,0.275C20.409,36.503,20.39,36.521,20.37,36.54z" fill="#404041" fill-rule="evenodd"/><path clip-rule="evenodd" d="M11.202,39.903c-0.001-0.084,0.034-0.129,0.09-0.196   c0.045-0.056,0.101-0.124,0.136-0.218c0.104,0.041,0.164,0.107,0.16,0.184C11.582,39.781,11.446,39.896,11.202,39.903z" fill="#404041" fill-rule="evenodd"/><path clip-rule="evenodd" d="M20.555,34.263c-0.023-0.368-0.049-0.785,0.092-0.936   c0.02-0.021,0.05-0.046,0.108-0.061c-0.016,0.087-0.035,0.185-0.057,0.291c-0.046,0.231-0.1,0.498-0.138,0.785   C20.558,34.316,20.557,34.29,20.555,34.263z" fill="#404041" fill-rule="evenodd"/><path clip-rule="evenodd" d="M16.106,34.075c-0.09,0-0.151-0.018-0.181-0.054   c-0.019-0.022-0.043-0.071-0.042-0.175h0.229v0.229C16.11,34.075,16.108,34.075,16.106,34.075z" fill="#404041" fill-rule="evenodd"/><path clip-rule="evenodd" d="M21.791,33.104c-0.017-0.355,0.076-0.768,0.223-1.125   c0.242-0.588,0.624-1.035,0.896-1.053c-0.062,0.11-0.139,0.21-0.219,0.313c-0.243,0.313-0.517,0.667-0.412,1.376   C22.047,32.733,21.884,32.896,21.791,33.104z M23.256,30.415c0.007-0.053,0.016-0.122,0.029-0.173   c0.069,0.007,0.134,0.011,0.196,0.011c0.474,0,0.809-0.204,0.998-0.605c0.003,0,0.44-0.01,0.44-0.01   c0.062,0,0.117,0.002,0.163,0.007c-0.441,0.421-1.047,0.716-1.844,0.895C23.246,30.497,23.251,30.455,23.256,30.415z" fill="#404041" fill-rule="evenodd"/><path clip-rule="evenodd" d="M40.515,27.152c-0.627-0.097-1.08-0.574-1.558-1.077   c-0.452-0.477-0.919-0.968-1.57-1.193V24.21l-0.095-0.054c-0.088-0.048-0.184-0.089-0.28-0.128   c-0.346-0.142-0.51-0.227-0.444-0.612l0.022-0.139l-0.127-0.061c-1.216-0.581-2.788-1.784-3.913-2.995l-0.002-0.002   c0.146,0.107,0.289,0.219,0.435,0.332c0.575,0.448,1.169,0.911,2.01,1.131l0.165,0.207c0.445,0.558,0.906,1.134,1.676,1.414   l0.049,0.096c0.217,0.441,0.462,0.937,1.066,1.077v0.647l0.089,0.055c0.155,0.096,0.313,0.188,0.472,0.28   C39.315,25.931,40.081,26.378,40.515,27.152z M10.905,23.97c0.081-0.418,0.358-0.652,0.875-0.752l0.07-0.013l0.043-0.058   c0.308-0.404,0.724-0.699,1.165-1.012c0.504-0.356,1.024-0.725,1.375-1.274c0.892-0.241,1.518-0.662,2.124-1.069   c0.712-0.479,1.39-0.934,2.454-1.043l-0.064,0.095c-0.04,0.06-0.161,0.095-0.278,0.128c-0.189,0.055-0.463,0.133-0.546,0.406   c-2.291,0.539-3.728,1.871-4.83,3.124c-0.731,0.052-1.126,0.458-1.475,0.818C11.551,23.595,11.297,23.856,10.905,23.97z    M32.149,20.238c-0.24,0-0.529-0.241-0.741-0.417c-0.138-0.115-0.238-0.197-0.335-0.232c-0.234-0.082-0.482-0.153-0.736-0.216   c0.898,0.042,1.518,0.356,2.08,0.753l-0.104,0.064C32.263,20.223,32.209,20.238,32.149,20.238z M30.044,19.304   c-0.395-0.086-0.802-0.158-1.201-0.229c-0.538-0.096-1.046-0.186-1.521-0.308c-0.058-0.015-0.147-0.085-0.227-0.146   c-0.118-0.093-0.241-0.188-0.377-0.208c-0.61-0.09-1.251-0.137-1.903-0.137c-1.519,0-3.145,0.244-4.831,0.727   c-0.052,0.004-0.127,0.009-0.197,0.009c-0.249,0-0.429-0.063-0.55-0.191l-0.08-0.084c0.114-0.009,0.232-0.013,0.355-0.013   c0.266,0,0.551,0.02,0.849,0.059l0.095,0.008c0.25,0,0.364-0.162,0.432-0.258c0.057-0.08,0.072-0.096,0.105-0.1   c1.086-0.149,2.261-0.229,3.401-0.229C26.966,18.204,29.02,18.604,30.044,19.304z" fill="#404041" fill-rule="evenodd"/><path clip-rule="evenodd" d="M40.761,25.496c-0.145,0-0.25-0.126-0.41-0.333   c-0.201-0.256-0.449-0.574-0.913-0.574c-0.015,0-0.03,0-0.046,0.002c-0.441-0.61-0.984-1.122-1.51-1.618   c-0.514-0.483-1.043-0.985-1.465-1.565l-0.068-0.096l-0.116,0.021c-0.05,0.01-0.097,0.014-0.138,0.014   c-0.182,0-0.257-0.082-0.385-0.239c-0.129-0.159-0.305-0.378-0.674-0.378c-0.006,0-0.012,0-0.017,0   c-0.038-0.097-0.104-0.162-0.165-0.209c0.182,0.064,0.381,0.104,0.604,0.104c0.147,0,0.301-0.018,0.459-0.053   c0.222,0.5,0.642,0.783,1.048,1.057c0.437,0.293,0.848,0.57,0.988,1.104l0.041,0.161l0.165-0.022   c0.048-0.007,0.093-0.01,0.135-0.01c0.099,0,0.181,0.018,0.253,0.055c0.156,0.793,0.735,1.177,1.25,1.518   c0.436,0.288,0.849,0.563,1.027,1.057C40.802,25.493,40.78,25.496,40.761,25.496z M34.214,20.192c-0.379,0-0.541-0.194-0.748-0.44   c-0.068-0.083-0.141-0.17-0.227-0.251c0.219,0.039,0.431,0.217,0.674,0.418c0.105,0.088,0.219,0.184,0.344,0.273   C34.241,20.192,34.228,20.192,34.214,20.192z" fill="#404041" fill-rule="evenodd"/><path clip-rule="evenodd" d="M10.333,24.95c-0.026-0.057-0.046-0.131-0.046-0.233   c0.06-0.017,0.103-0.04,0.138-0.06c0.025-0.014,0.043-0.023,0.06-0.029c0.016,0.04,0.027,0.096,0.027,0.158   c0,0.066-0.013,0.124-0.029,0.164H10.333z" fill="#404041" fill-rule="evenodd"/><path clip-rule="evenodd" d="M41.206,23.948c-0.471-0.276-0.808-0.693-1.162-1.133   c-0.457-0.568-0.93-1.154-1.723-1.434V20.94l-0.096-0.053c-0.959-0.541-1.793-1.25-2.601-1.936l-0.173-0.146   c-0.051-0.044-0.117-0.157-0.18-0.267c-0.152-0.265-0.341-0.594-0.703-0.704c-0.061-0.018-0.129-0.026-0.207-0.026   c-0.086,0-0.179,0.011-0.271,0.021c-0.078,0.01-0.156,0.02-0.229,0.02c-0.019,0-0.034-0.001-0.049-0.002l-0.016-0.025   c-0.117-0.207-0.174-0.296-0.264-0.331l-0.033-0.014l-0.076-0.008c-0.113,0-0.221,0.061-0.299,0.105l0.068,0.037   c-0.283-0.137-0.537-0.383-0.785-0.621c-0.262-0.252-0.532-0.513-0.85-0.664c-0.221-0.104-0.448-0.112-0.648-0.12   c-0.315-0.012-0.511-0.019-0.643-0.32c1.514,0.188,2.486,0.905,3.426,1.688l0.053,0.042h0.067c1.051,0.001,1.706,0.711,2.399,1.463   c0.416,0.449,0.846,0.914,1.363,1.2c0.047,0.026,0.102,0.038,0.166,0.038c0.056,0,0.121-0.01,0.186-0.022   c0.041-0.008,0.082-0.017,0.117-0.017c0.384,0.315,0.736,0.743,1.076,1.156c0.439,0.533,0.893,1.084,1.492,1.461   c-0.036,0.397,0.221,0.621,0.396,0.775C41.157,23.798,41.223,23.86,41.206,23.948z M29.563,15.692   c-0.68-0.029-1.075-0.08-1.221-0.344c0.148,0.029,0.301,0.052,0.451,0.074c0.383,0.058,0.777,0.116,1.026,0.281   C29.735,15.7,29.649,15.696,29.563,15.692z" fill="#404041" fill-rule="evenodd"/><path clip-rule="evenodd" d="M9.142,20.162c0.289-0.364,0.73-0.601,1.196-0.849   c0.315-0.169,0.643-0.344,0.937-0.566c0.204-0.155,0.329-0.283,0.437-0.395c0.221-0.225,0.342-0.35,1.011-0.508   c0.421-0.1,0.985-0.48,1.529-0.85c0.177-0.121,0.351-0.238,0.513-0.342c0.155-0.099,0.295-0.266,0.407-0.4   c0.055-0.064,0.129-0.154,0.159-0.173c0.161-0.069,0.39-0.084,0.634-0.101c0.26-0.017,0.529-0.034,0.757-0.128   c0.26-0.107,0.466-0.315,0.666-0.518c0.171-0.173,0.333-0.336,0.511-0.421c0.335-0.16,0.753-0.27,1.196-0.386   c0.684-0.179,1.39-0.364,1.836-0.766c0.617-0.022,1.208-0.077,1.781-0.13c0.684-0.063,1.389-0.129,2.139-0.137   c-0.321,0.031-0.651,0.109-0.973,0.186c-0.4,0.096-0.779,0.185-1.122,0.185c-0.211,0-0.387-0.034-0.537-0.106l-0.063-0.029   l-0.067,0.018c-0.343,0.094-0.651,0.224-0.949,0.348c-0.552,0.232-1.072,0.45-1.807,0.464l-0.054,0.001l-0.045,0.029   c-0.79,0.52-1.72,0.932-2.619,1.33c-1.358,0.602-2.762,1.224-3.764,2.242c-0.068-0.012-0.132-0.017-0.194-0.017   c-0.24,0-0.396,0.082-0.535,0.154c-0.12,0.063-0.213,0.112-0.362,0.112h-0.09l-0.071,0.07c-0.579,0.732-1.178,1.49-2.336,1.684   l-0.119,0.02C9.143,20.177,9.143,20.17,9.142,20.162z M25.803,13.606c-0.122-0.051-0.254-0.086-0.398-0.106   c0.131,0.005,0.263,0.01,0.398,0.019V13.606z" fill="#404041" fill-rule="evenodd"/><path clip-rule="evenodd" d="M35.612,19.814c-0.258-0.031-0.511-0.209-0.798-0.415   c0.101,0.045,0.202,0.083,0.302,0.121c0.183,0.068,0.357,0.134,0.496,0.225V19.814z M34.313,19.062   c-0.207-0.123-0.432-0.23-0.688-0.295c-0.449-0.111-0.941-0.158-1.418-0.205c-0.926-0.089-1.799-0.173-2.354-0.686l-0.056-0.051   l-0.077,0.002c-0.22,0.008-0.376,0.014-0.525,0.014c-0.546,0-0.827-0.082-0.943-0.273l-0.054-0.09h-0.104   c-0.509-0.005-1.073-0.066-1.671-0.133c-0.657-0.072-1.336-0.146-1.985-0.146c-0.699,0-1.268,0.089-1.736,0.271   c-0.182-0.031-0.361-0.048-0.533-0.048c-0.031,0-0.062,0.001-0.092,0.002c0.422-0.091,0.827-0.208,1.167-0.395   c0.454-0.033,0.908-0.05,1.35-0.05c2.478,0,4.476,0.529,6.408,1.041c1.002,0.267,2.039,0.541,3.134,0.74   C34.177,18.88,34.239,18.978,34.313,19.062z M19.443,18.114c0.469-0.29,1.13-0.416,1.786-0.532c-0.19,0.063-0.369,0.14-0.544,0.214   c-0.388,0.164-0.755,0.318-1.206,0.318C19.466,18.114,19.455,18.114,19.443,18.114z" fill="#404041" fill-rule="evenodd"/><path clip-rule="evenodd" d="M10.236,15.147c-0.123,0-0.215-0.01-0.274-0.028   c0.006-0.012,0.014-0.025,0.022-0.042c0.021-0.039,0.049-0.09,0.066-0.156c0.172,0.006,0.262,0.082,0.345,0.223L10.236,15.147z" fill="#404041" fill-rule="evenodd"/><path clip-rule="evenodd" d="M40.674,14.342c-0.116,0-0.224-0.068-0.36-0.155   c-0.182-0.114-0.406-0.257-0.721-0.257c-0.076,0-0.155,0.009-0.236,0.024c-2.468-2.34-5.498-3.79-9.219-4.404   c0.066-0.145,0.297-0.237,0.591-0.237c0.321,0,0.622,0.114,0.702,0.265l0.046,0.088l0.099,0.011   c2.902,0.306,4.721,1.622,6.646,3.017c0.65,0.471,1.323,0.958,2.033,1.395l0.262,0.16l0.022-0.307   c0.042-0.583-0.704-1.24-1.401-1.443v-0.465c0.445,0.434,0.918,0.856,1.486,1.183c-0.03,0.485,0.021,0.845,0.158,1.108   C40.744,14.336,40.708,14.342,40.674,14.342z M38.993,11.994c-0.602-0.138-0.932-0.56-1.279-1.006   c-0.121-0.156-0.243-0.312-0.376-0.457l-0.028-0.029l-0.037-0.017c-0.994-0.422-1.885-0.925-2.646-1.494l-0.039-0.029l-0.398-0.051   c-0.679-0.082-1.379-0.166-1.771-0.498L32.36,8.366L32.286,8.37c-0.097,0.005-0.189,0.008-0.28,0.008   c-0.712,0-1.251-0.164-1.667-0.357c0.051,0.008,0.102,0.016,0.152,0.022c0.506,0.072,1.027,0.147,1.619,0.147   c0.213,0,0.436-0.01,0.67-0.032c0.447,0.128,0.916,0.322,1.369,0.511c0.609,0.254,1.24,0.516,2.004,0.643   c0.041,0.078,0.07,0.195,0.045,0.387l-0.021,0.152l0.145,0.05c1.045,0.362,1.74,1.058,2.477,1.794   c0.109,0.109,0.221,0.221,0.334,0.331L38.993,11.994z M13.831,11.337c0.152-0.564,0.676-0.813,1.749-0.842   c-0.269,0.066-0.521,0.138-0.747,0.222c-0.208,0.077-0.372,0.222-0.514,0.351c-0.162,0.146-0.302,0.271-0.466,0.271   C13.846,11.339,13.838,11.338,13.831,11.337z M15.668,10.474c0.411-0.137,0.778-0.341,1.166-0.556   c0.668-0.37,1.36-0.753,2.062-0.753c0.222,0,0.43,0.037,0.636,0.114c-0.116,0.002-0.23,0.009-0.341,0.026   c-0.306,0.047-0.561,0.193-0.807,0.336c-0.164,0.094-0.332,0.191-0.513,0.257c-0.525,0.192-1.099,0.322-1.652,0.447   C16.03,10.389,15.846,10.431,15.668,10.474z M29.685,9.48c-0.512-0.074-1.038-0.133-1.577-0.177l-0.122,0.016   c-0.004-0.002-0.02-0.041-0.029-0.066c-0.037-0.096-0.102-0.256-0.292-0.295c-0.198,0.008-0.349,0.012-0.5,0.012   c-0.563,0-1.173-0.07-1.763-0.138c-0.585-0.067-1.19-0.138-1.747-0.138c-0.917,0-1.572,0.193-2.053,0.607   c-0.091-0.012-0.127-0.061-0.202-0.194l-0.045-0.081l-0.126-0.071c-0.003,0-0.006,0-0.008,0c-0.306,0-0.367,0.215-0.394,0.308   c-0.09,0.052-0.189,0.056-0.287,0.056c-0.161,0-0.321-0.011-0.479-0.02c-0.072-0.005-0.145-0.009-0.216-0.013   c1.519-0.469,3.124-0.695,4.903-0.695c0.831,0,1.706,0.047,2.673,0.145c0.305,0.308,0.799,0.385,1.277,0.459   C29.084,9.256,29.454,9.313,29.685,9.48z M19.858,8.362c-0.114,0-0.228-0.013-0.343-0.035c0.195-0.188,0.542-0.254,0.904-0.324   c0.409-0.079,0.831-0.16,1.103-0.431c0.518-0.021,1.08-0.073,1.672-0.13c0.804-0.077,1.635-0.156,2.417-0.156   c1.215,0,2.043,0.191,2.606,0.604l0.057,0.041l0.07-0.006c0.204-0.018,0.398-0.025,0.584-0.025c0.188,0,0.367,0.008,0.545,0.021   c-0.04,0.061-0.06,0.126-0.072,0.168c-0.006,0.023-0.017,0.059-0.023,0.068c-0.463-0.076-0.984-0.176-1.536-0.281   c-0.983-0.188-2-0.382-3.019-0.382c-0.704,0-1.32,0.094-1.881,0.286c-0.173-0.031-0.346-0.046-0.513-0.046   c-0.581,0-1.05,0.184-1.463,0.347C20.595,8.226,20.247,8.362,19.858,8.362z" fill="#404041" fill-rule="evenodd"/><path clip-rule="evenodd" d="M9.816,14.238c0.295-0.462,0.839-0.695,1.41-0.94   c0.126-0.055,0.254-0.11,0.38-0.168c-0.122,0.107-0.237,0.219-0.349,0.326c-0.435,0.42-0.81,0.783-1.4,0.783   C9.843,14.239,9.83,14.239,9.816,14.238z M12.499,12.575c0.109-0.101,0.207-0.213,0.292-0.342c0.045-0.004,0.088-0.006,0.129-0.006   c0.093,0,0.214,0.012,0.262,0.072c0.025,0.031,0.037,0.083,0.036,0.152C12.948,12.454,12.711,12.499,12.499,12.575z" fill="#404041" fill-rule="evenodd"/><path clip-rule="evenodd" d="M10.354,12.454c0.147-0.338,0.519-0.472,1.069-0.633   c0.472-0.138,1.002-0.293,1.256-0.742l0.276-0.006c0.19,0,0.23,0.029,0.238,0.038c0.002,0.002,0.004,0.009,0.006,0.021   c-0.126,0.077-0.257,0.159-0.391,0.245C12.048,11.857,11.191,12.398,10.354,12.454z" fill="#404041" fill-rule="evenodd"/><path clip-rule="evenodd" d="M9.876,11.825c0.074-0.277,0.158-0.543,0.468-0.584   c0.09,0.104,0.125,0.264,0.116,0.468C10.326,11.807,10.148,11.862,9.876,11.825z" fill="#404041" fill-rule="evenodd"/><path clip-rule="evenodd" d="M10.987,10.996c-0.044,0-0.091-0.006-0.14-0.019   c-0.02-0.097,0.014-0.117,0.105-0.174c0.093-0.059,0.236-0.147,0.274-0.338c0.647-0.125,1.131-0.412,1.599-0.689   c0.526-0.312,1.023-0.605,1.743-0.685l0.081-0.009l0.048-0.064c0.415-0.549,0.746-0.827,0.984-0.827   c0.049,0,0.121,0.011,0.205,0.093c-0.001,0.031-0.006,0.049-0.011,0.055c-0.005,0.006-0.042,0.038-0.211,0.038   c-0.054,0-0.11-0.003-0.168-0.007L15.31,8.357l-0.015,0.185c-0.01,0.133-0.005,0.281,0.001,0.43   c0.005,0.141,0.011,0.301-0.003,0.428c-0.139-0.103-0.283-0.154-0.43-0.154c-0.312,0-0.557,0.222-0.772,0.417   c-0.085,0.077-0.172,0.156-0.248,0.204c-0.005-0.006-0.01-0.012-0.015-0.018c-0.064-0.078-0.161-0.197-0.313-0.197   c-0.231,0.044-0.363,0.12-0.503,0.201c-0.154,0.089-0.329,0.189-0.62,0.276c-0.354,0.104-0.597,0.326-0.811,0.522   C11.37,10.844,11.203,10.996,10.987,10.996z" fill="#404041" fill-rule="evenodd"/><path clip-rule="evenodd" d="M16.479,8.985c0.261-0.136,0.529-0.273,0.808-0.273   c0.064,0,0.128,0.008,0.19,0.022c-0.079,0.036-0.168,0.101-0.2,0.218l-0.363-0.007C16.808,8.945,16.642,8.945,16.479,8.985z" fill="#404041" fill-rule="evenodd"/><path clip-rule="evenodd" d="M17.271,8.169c-0.188,0-0.353-0.037-0.438-0.07   c0.014-0.41,0.374-0.518,1.137-0.649c0.603-0.104,1.278-0.223,1.499-0.786c0.079,0.009,0.152,0.013,0.222,0.013   c0.311,0,0.538-0.077,0.758-0.151c0.201-0.068,0.39-0.133,0.639-0.133c0.015,0,0.03,0.001,0.045,0.002   c-0.041,0.484-0.469,0.559-1.18,0.639c-0.605,0.068-1.286,0.146-1.469,0.754h-0.905l0.056,0.23   C17.606,8.114,17.501,8.169,17.271,8.169z" fill="#404041" fill-rule="evenodd"/><path clip-rule="evenodd" d="M38.515,7.696c-0.912-0.354-1.766-0.784-2.594-1.201   c-1.582-0.8-3.218-1.625-5.324-1.955c-0.045-0.154-0.158-0.236-0.233-0.291c-0.088-0.064-0.099-0.079-0.099-0.129V4.079   c1.047,0.104,2.082,0.502,2.775,0.796c0.238,0.101,0.475,0.196,0.708,0.29c0.87,0.353,1.692,0.685,2.408,1.207l0.05,0.035h0.835   c0.126,0.573,0.563,0.711,0.89,0.814C38.232,7.315,38.452,7.385,38.515,7.696z M15.687,5.463c-0.118,0-0.239-0.022-0.369-0.069   V5.392c0.203-0.114,0.459-0.184,0.73-0.257c0.526-0.142,1.118-0.302,1.331-0.861c2.368-0.624,5.223-0.818,7.986-1.008   c0.604-0.041,1.208-0.083,1.808-0.128c0.014-0.001,0.025-0.001,0.035-0.001c0.074,0,0.093,0.019,0.147,0.096   c0.063,0.091,0.159,0.228,0.362,0.255l0.184,0.002l0.691-0.006c0.756,0,1.258,0.076,1.42,0.449l-0.186,0.002   c-0.68,0-1.021-0.055-1.383-0.113s-0.733-0.117-1.441-0.122c-0.234-0.21-0.679-0.366-1.065-0.366c-0.356,0-0.628,0.133-0.769,0.369   c-0.135,0.004-0.273,0.006-0.413,0.006c-0.267,0-0.54-0.006-0.812-0.011c-0.274-0.005-0.549-0.011-0.819-0.011   c-0.671,0-1.437,0.029-2.048,0.237c-0.139-0.032-0.301-0.049-0.483-0.049c-0.856,0-2.064,0.37-2.616,0.974   c-0.113-0.02-0.225-0.029-0.333-0.029c-0.487,0-0.848,0.195-1.166,0.367C16.207,5.335,15.97,5.463,15.687,5.463z" fill="#404041" fill-rule="evenodd"/><path clip-rule="evenodd" d="M12.367,7.405c-0.05-0.016-0.092-0.03-0.13-0.047   c0.294-0.078,0.367-0.381,0.412-0.573c0.011-0.044,0.021-0.087,0.033-0.126c0.041,0.003,0.08,0.004,0.119,0.004   c0.492,0,0.802-0.259,1.075-0.488c0.21-0.177,0.393-0.329,0.624-0.329c0.053,0,0.107,0.007,0.165,0.022   c-0.182,0.43-0.624,0.606-1.128,0.809C13.101,6.852,12.65,7.032,12.367,7.405z" fill="#404041" fill-rule="evenodd"/><path clip-rule="evenodd" d="M31.252,7.044c-1.972-0.553-5.853-0.682-8.934-0.76   C22.799,6.09,23.463,6,24.377,6c0.519,0,1.064,0.026,1.609,0.054c0.553,0.027,1.104,0.055,1.629,0.055   c0.383,0,0.717-0.015,1.013-0.045c0.726,0.474,1.665,0.691,2.728,0.887C31.323,6.974,31.285,7.003,31.252,7.044z" fill="#404041" fill-rule="evenodd"/><path clip-rule="evenodd" d="M36.446,5.103c-0.092-0.009-0.184-0.018-0.266-0.018   c-0.029,0-0.055,0.001-0.08,0.003c-0.439-0.438-1.067-0.667-1.676-0.891c-0.391-0.144-0.769-0.282-1.09-0.468   c1.406,0.08,2.26,0.691,3.162,1.337l0.066,0.046C36.524,5.11,36.485,5.106,36.446,5.103z M32.426,3.365   c-0.649,0-1.089-0.202-1.557-0.417c-0.483-0.221-0.982-0.449-1.712-0.449c-0.127,0-0.26,0.006-0.4,0.021   c-0.26-0.277-0.693-0.341-1.148-0.352c0.076-0.045,0.139-0.109,0.174-0.204c0.012,0,0.023,0,0.033,0   c0.709,0,1.396,0.249,2.125,0.512c0.76,0.274,1.615,0.584,2.623,0.651c0.017,0.107,0.076,0.178,0.141,0.225   C32.606,3.361,32.515,3.365,32.426,3.365z" fill="#404041" fill-rule="evenodd"/><path clip-rule="evenodd" d="M14.671,4.427c0.323-0.428,0.901-0.623,1.506-0.829   c0.673-0.229,1.368-0.464,1.748-1.048c1.334-0.064,2.534-0.354,3.594-0.61c0.751-0.183,1.42-0.344,2.038-0.407   C23.297,1.7,22.93,1.78,22.548,1.864c-0.518,0.113-1.051,0.23-1.378,0.588c-0.033-0.105-0.109-0.285-0.342-0.285   c-0.044,0-0.09,0.006-0.141,0.021c-0.363,0.04-0.528,0.304-0.646,0.556c-0.163-0.024-0.328-0.037-0.495-0.037   c-1.047,0-2.04,0.48-2.999,0.943C15.938,3.944,15.311,4.248,14.671,4.427z" fill="#404041" fill-rule="evenodd"/><path clip-rule="evenodd" d="M23.68,2.765c0.075-0.137,0.193-0.203,0.373-0.215v0.215H23.68z" fill="#404041" fill-rule="evenodd"/><path clip-rule="evenodd" d="M25.057,2.134c-0.229,0.057-0.376-0.535-0.117-0.583   C25.36,1.438,25.146,2.055,25.057,2.134z" fill="#404041" fill-rule="evenodd"/><path clip-rule="evenodd" d="M18.051,48.468c-0.07-0.063-0.121-0.162-0.186-0.301   c-0.118-0.25-0.28-0.592-0.755-0.592c-0.013,0-0.027,0-0.041,0.001v-0.504c0.132,0.161,0.275,0.308,0.408,0.442   C17.858,47.904,18.093,48.164,18.051,48.468z M16.686,46.442c-0.275-0.123-0.459-0.223-0.527-0.434   c0.027-0.035,0.048-0.08,0.063-0.135h0.351C16.576,46.081,16.618,46.27,16.686,46.442z" fill="#404041" fill-rule="evenodd"/><path clip-rule="evenodd" d="M22.714,47.79c-0.052,0-0.117-0.026-0.199-0.059   c-0.095-0.037-0.214-0.085-0.366-0.111c0.056-0.105,0.145-0.174,0.274-0.211c0.082,0.076,0.192,0.154,0.315,0.239   c0.031,0.022,0.072,0.05,0.116,0.082C22.784,47.782,22.742,47.79,22.714,47.79z" fill="#404041" fill-rule="evenodd"/><path clip-rule="evenodd" d="M21.11,47.916c-0.368-0.13-0.63-0.372-0.859-0.661l0.104,0.018   c0.3,0.051,0.665,0.203,0.759,0.418C21.126,47.719,21.158,47.792,21.11,47.916z M20.195,47.183   c-0.105-0.141-0.205-0.291-0.307-0.443c-0.29-0.435-0.589-0.883-1.072-1.165c-0.055-1.052-0.463-1.751-0.858-2.429   c-0.103-0.176-0.206-0.352-0.302-0.534c0.065-1.063-0.227-2.024-0.485-2.872c-0.31-1.02-0.555-1.824-0.132-2.475l0.026-0.039   c0.05,0.376,0.119,0.744,0.206,1.093c-0.263,0.706-0.026,1.421,0.224,2.175c0.192,0.579,0.389,1.177,0.368,1.801l-0.002,0.059   l0.032,0.049c0.439,0.679,0.753,1.518,1.056,2.328c0.144,0.387,0.289,0.773,0.447,1.147c0.101,0.229,0.272,0.378,0.424,0.509   c0.219,0.189,0.392,0.339,0.379,0.695L20.195,47.183z M36.626,38.382c-0.14-0.182-0.286-0.359-0.433-0.535   c-0.454-0.549-0.884-1.066-1.142-1.766c-0.004-0.092-0.042-0.151-0.074-0.188c-0.093-0.1-0.228-0.1-0.271-0.1   c-0.059,0-0.123,0.008-0.189,0.016c-0.008,0.001-0.017,0.002-0.025,0.003c0.014-0.438-0.264-0.614-0.473-0.747   c-0.033-0.021-0.068-0.043-0.102-0.066c0.08-0.038,0.191-0.114,0.201-0.277l0.002-0.055l-0.027-0.049   c-0.15-0.263-0.434-0.367-0.684-0.459c-0.045-0.016-0.092-0.033-0.136-0.051c-0.208-0.814-0.692-1.365-1.147-1.816   c-0.098-1.025-0.627-1.615-1.139-2.188c-0.401-0.446-0.781-0.869-0.957-1.494c0,0.001,0,0.002,0,0.002   c0.137,0.164,0.305,0.207,0.453,0.244c0.104,0.027,0.221,0.057,0.248,0.106c1.392,2.126,2.612,4.034,3.741,5.847   c0.075,0.08,0.116,0.125,0.158,0.169c0.103,0.11,0.214,0.231,0.374,0.315c-0.025,0.262,0.088,0.4,0.174,0.506   c0.074,0.092,0.112,0.137,0.086,0.279l-0.014,0.077l0.045,0.064c0.115,0.162,0.299,0.348,0.492,0.544   c0.412,0.418,0.926,0.938,0.914,1.367C36.7,38.22,36.675,38.303,36.626,38.382z M17.045,37.069c-0.58-1.35-0.025-2.986,0.464-4.432   c0.186-0.549,0.362-1.068,0.475-1.558c0.147-0.119,0.289-0.243,0.422-0.374c-0.1,0.525-0.353,1.04-0.617,1.58   c-0.314,0.64-0.64,1.303-0.741,2.05C16.933,35.188,16.935,36.148,17.045,37.069z M18.866,30.204   c0.339-0.416,0.615-0.877,0.827-1.378h0.414c-0.385,0.399-0.726,0.854-1.003,1.378H18.866z M20.218,28.677   c0.053-0.265,0.181-0.462,0.316-0.671c0.032-0.05,0.064-0.099,0.095-0.149c0.348-0.136,0.707-0.292,1.077-0.451   c0.806-0.349,1.681-0.727,2.574-0.953c-1.388,0.464-2.914,1.125-4.071,2.271L20.218,28.677z M29.907,28.464   c-0.592-0.213-1.012-0.593-1.459-0.995c-0.48-0.433-0.977-0.881-1.701-1.108l-2.015-0.009c0.351-0.066,0.703-0.104,1.055-0.104   c0.506,0,0.973,0.076,1.427,0.234c0.893,0.309,2.076,0.905,2.74,2L29.907,28.464z" fill="#404041" fill-rule="evenodd"/><path clip-rule="evenodd" d="M35.312,41.597c-0.305-0.188-0.47-0.467-0.652-0.775   c-0.261-0.438-0.555-0.933-1.307-1.135c-0.371-0.648-0.76-1.281-1.148-1.914c-1.127-1.838-2.294-3.736-2.998-6.035l-0.021-0.066   l-0.059-0.037c-0.57-0.354-1.046-0.765-1.507-1.162c-0.364-0.315-0.722-0.623-1.112-0.896c0.036,0.02,0.073,0.037,0.11,0.053   c0.066,0.029,0.14,0.043,0.224,0.043c0.086,0,0.176-0.016,0.262-0.031c0.059-0.012,0.115-0.023,0.166-0.023   c0.18,0.088,0.311,0.227,0.45,0.375c0.208,0.22,0.44,0.466,0.771,0.555v0.407l0.078,0.056c0.151,0.111,0.326,0.164,0.533,0.164   c0.004,0,0.008,0,0.012,0c0.113,0.443,0.342,0.761,0.564,1.068c0.305,0.42,0.59,0.816,0.564,1.529   c0.037,0.317,0.336,0.322,0.479,0.326c0.047,0,0.123,0.002,0.146,0.012c0.365,2.038,1.554,3.535,2.703,4.982   C34.233,39.927,34.866,40.726,35.312,41.597z M19.946,32.798c-0.019-0.308,0.115-0.451,0.276-0.626   c0.193-0.208,0.43-0.464,0.367-0.99c0,0,0.046,0.009,0.049,0.009c0.113,0,0.204-0.006,0.291-0.045   c0.388-0.175,0.473-0.433,0.547-0.66c0.049-0.148,0.095-0.289,0.221-0.443c0.447-0.544,2.003-1.584,3.103-1.584   c0.078,0,0.155,0.005,0.229,0.016c0.178,0.027,0.402,0.236,0.64,0.458c0.141,0.13,0.291,0.271,0.456,0.396   c-0.492-0.291-1.047-0.521-1.736-0.64l-0.058-0.01l-0.053,0.025c-1.622,0.758-2.717,2.057-3.684,3.201l-0.054,0.064   c-0.306,0.083-0.406,0.365-0.48,0.574C20.017,32.661,19.984,32.742,19.946,32.798z" fill="#404041" fill-rule="evenodd"/><path clip-rule="evenodd" d="M27.63,46.922c-1.045-0.28-1.714-0.934-2.417-1.62   c-0.565-0.552-1.148-1.121-1.942-1.483c0.005-0.099-0.003-0.187-0.021-0.266c0.021,0.002,0.044,0.003,0.068,0.003   c0.074,0,0.157-0.008,0.24-0.018c0.069-0.006,0.139-0.014,0.201-0.014c0.004,0,0.007,0,0.011,0c0.524,0.934,1.389,1.521,2.226,2.09   C26.599,46.024,27.175,46.415,27.63,46.922z M22.761,42.942c-0.15-0.104-0.28-0.193-0.329-0.348   c-0.035-0.438-0.267-0.799-0.492-1.146c-0.194-0.301-0.376-0.583-0.436-0.931c-0.04-0.231,0.031-0.526,0.106-0.837   c0.071-0.297,0.145-0.604,0.129-0.893c-0.005-0.111-0.014-0.222-0.024-0.333c0.035,0.315,0.124,0.589,0.325,0.768   c-0.15,0.634,0.052,1.165,0.217,1.597c0.148,0.391,0.226,0.619,0.09,0.774l-0.055,0.063l0.01,0.082   c0.036,0.288,0.334,0.294,0.477,0.297c0.03,0.001,0.073,0.002,0.105,0.005v0.991C22.842,43,22.801,42.971,22.761,42.942z    M21.708,38.374c-0.027-0.268-0.063-0.535-0.101-0.814c-0.066-0.493-0.135-0.996-0.153-1.533l0.079,0.096   c0.227,0.247,0.202,0.828,0.178,1.389C21.698,37.806,21.686,38.103,21.708,38.374z M21.45,35.797   c-0.001-0.224,0.007-0.452,0.028-0.688c0.022,0.047,0.044,0.115,0.07,0.214c0.037,0.138,0.078,0.292,0.179,0.409   c0.005,0.063-0.005,0.084-0.005,0.084L21.45,35.797z" fill="#404041" fill-rule="evenodd"/><path clip-rule="evenodd" d="M21.578,46.87c-0.833-0.439-1.194-1.367-1.576-2.34   c-0.176-0.455-0.359-0.923-0.595-1.34c0.008-0.148,0.002-0.285-0.014-0.41l0.102,0.043c0.041,0.018,0.07,0.065,0.115,0.144   c0.067,0.115,0.164,0.281,0.377,0.327c0.158,0.985,0.576,1.711,0.981,2.413C21.192,46.093,21.405,46.462,21.578,46.87z    M19.369,42.637c-0.089-0.417-0.307-0.711-0.562-1.005c-0.049-0.277,0.04-0.382,0.173-0.535c0.044-0.052,0.088-0.104,0.127-0.16   c0.29,0.593,0.505,1.175,0.292,1.637L19.369,42.637z M18.817,40.531c-0.327-0.103-0.529-0.179-0.587-0.384   c-0.034-0.126-0.034-0.126,0.114-0.184c0.054-0.021,0.106-0.043,0.153-0.071l0.074-0.045c0.095,0.224,0.209,0.445,0.327,0.675   c0.007,0.014,0.014,0.027,0.021,0.041C18.884,40.552,18.851,40.542,18.817,40.531z M36.092,39.913c-0.071,0-0.15-0.008-0.229-0.016   c-0.088-0.008-0.176-0.016-0.256-0.017c-0.125-0.61-0.543-0.936-0.914-1.225c-0.424-0.329-0.789-0.613-0.809-1.265   c-0.152-0.373-0.385-0.557-0.609-0.733c-0.33-0.26-0.592-0.464-0.559-1.001c-0.018-0.3-0.215-0.439-0.586-0.439   c-0.008,0-0.016,0-0.022,0c-0.12-0.729-0.446-1.251-0.761-1.758c-0.336-0.539-0.652-1.05-0.732-1.805l-0.008-0.063   c0,0-0.275-0.297-0.385-0.42c0.035-0.004,0.072-0.008,0.109-0.012c0.068-0.006,0.138-0.015,0.201-0.015c0.002,0,0.006,0,0.008,0   c0.074,0.135,0.16,0.257,0.248,0.378c0.22,0.31,0.41,0.576,0.388,1.076l-0.003,0.072l0.045,0.055   c0.965,1.191,1.65,2.432,2.375,3.745c0.349,0.632,0.707,1.282,1.111,1.954l0.064,0.105l0.121-0.016   c0.049-0.008,0.094-0.011,0.135-0.011c0.102,0,0.186,0.019,0.261,0.06c0.133,0.5,0.413,0.844,0.684,1.176   c0.047,0.057,0.094,0.114,0.14,0.172C36.103,39.913,36.097,39.913,36.092,39.913z M18.431,39.351   c-0.679-1.65-0.682-4.534-0.007-6.313C18.193,35.083,18.196,37.099,18.431,39.351z M18.596,32.639   c0.199-0.405,0.442-0.728,0.729-0.927l0.072-0.051c-0.031,0.443-0.304,0.632-0.633,0.859C18.707,32.56,18.65,32.599,18.596,32.639z    M19.729,31.149c-0.042,0-0.087-0.003-0.136-0.01l-0.188-0.025v-0.283c0.617-0.489,1.195-1.021,1.729-1.59v0.443   c-0.529,0.236-1.126,0.555-1.166,1.417C19.898,31.135,19.821,31.149,19.729,31.149z M29.765,30.656   c-0.648-0.732-1.266-1.39-2.19-1.837l0.063,0.02l0.064-0.029c0.053-0.023,0.209-0.095,0.234-0.249   c0.023-0.148-0.084-0.247-0.162-0.32c-0.029-0.026-0.092-0.083-0.096-0.106l0.028-0.066c0.028,0.029,0.057,0.059,0.085,0.089   c0.334,0.349,0.678,0.708,1.193,0.866c0.118,0.463,0.422,0.742,0.693,0.99c0.129,0.118,0.26,0.236,0.369,0.377   c0.008,0.079-0.008,0.088-0.123,0.154C29.877,30.572,29.817,30.606,29.765,30.656z M21.365,28.989   c0.219-0.244,0.429-0.494,0.632-0.75c0.886-0.037,1.431-0.414,1.958-0.778l0.217-0.147c0.171,0.016,0.333,0.021,0.487,0.021   c0.293,0,0.559-0.021,0.807-0.041c0.208-0.017,0.406-0.032,0.598-0.032c0.18,0,0.329,0.014,0.473,0.043   c0.408,0.086,0.701,0.304,0.973,0.564c-0.336-0.038-0.636-0.107-0.953-0.18c-0.463-0.107-0.941-0.218-1.529-0.218   c-0.215,0-0.445,0.015-0.696,0.05l-0.277,0.125C23.15,28.087,22.247,28.527,21.365,28.989z M27.138,28.633   c-0.194-0.073-0.4-0.137-0.623-0.191C26.708,28.45,26.937,28.542,27.138,28.633z" fill="#404041" fill-rule="evenodd"/><path clip-rule="evenodd" d="M14.967,45.814c-0.244-0.194-0.379-0.436-0.513-0.921   c0,0,0.001,0.002,0.002,0.002c0.126,0.146,0.331,0.167,0.479,0.168C14.926,45.331,14.929,45.588,14.967,45.814z M14.342,44.479   c-0.076-0.189-0.222-0.375-0.353-0.542c-0.073-0.092-0.182-0.231-0.195-0.279c-0.226-0.92-0.147-1.705-0.056-2.615   c0.072-0.719,0.153-1.529,0.072-2.494c0.041-0.02,0.082-0.03,0.135-0.03h0.053c-0.093,0.346-0.057,0.79-0.021,1.224   c0.017,0.203,0.034,0.4,0.034,0.574v2.73c0,0,0.108,0.219,0.151,0.309c0.125,0.26,0.253,0.527,0.428,0.758   c-0.089,0.025-0.172,0.063-0.221,0.155C14.33,44.34,14.331,44.417,14.342,44.479z M15.702,44.306   c-0.144-0.055-0.281-0.107-0.368-0.188c0.105-0.547-0.063-0.857-0.213-1.133c-0.144-0.264-0.268-0.493-0.166-0.957   c0.172-0.172,0.362-0.494,0.363-0.539c0.001-0.18-0.13-0.298-0.236-0.393c-0.042-0.038-0.114-0.102-0.122-0.131   c-0.097-0.348-0.058-0.782-0.012-1.285c0.021-0.228,0.043-0.469,0.053-0.72c0.153,0.749,0.238,1.552,0.323,2.339   c0.111,1.037,0.224,2.104,0.491,3.051C15.777,44.334,15.739,44.319,15.702,44.306z M14.146,38.2   c-0.021-0.834,0.172-1.7,0.344-2.469c0.162-0.726,0.304-1.363,0.267-1.896c0.156-0.057,0.212-0.209,0.242-0.291   c0.009-0.025,0.023-0.064,0.032-0.074l0.133,0.037c-0.136,0.419-0.234,0.905-0.221,1.567c-0.296,0.219-0.318,0.663-0.337,1.06   c-0.016,0.318-0.032,0.647-0.177,0.77l-0.117,0.099l0.073,0.134c0.131,0.242,0.242,0.502,0.337,0.776   c-0.222,0.013-0.397,0.089-0.526,0.229C14.176,38.16,14.161,38.18,14.146,38.2z M37.513,36.621   c-0.272-0.071-0.436-0.376-0.654-0.837c-0.24-0.508-0.535-1.129-1.21-1.242c0.013-0.264-0.007-0.529-0.161-0.699   c-0.1-0.109-0.238-0.164-0.41-0.164c-0.035,0-0.07,0.002-0.108,0.007c-0.265-0.521-0.581-0.99-0.888-1.446   c-0.42-0.624-0.855-1.27-1.143-2.031c-0.025-0.244-0.324-0.25-0.467-0.253c-0.031-0.001-0.077-0.001-0.11-0.005   c-0.042-0.553-0.356-0.852-0.634-1.117c-0.223-0.213-0.436-0.416-0.518-0.745l0.098,0.03c0.834,0.25,1.196,0.988,1.58,1.768   l0.059,0.121c0.018,0.228,0.316,0.233,0.459,0.236c0.046,0.001,0.123,0.002,0.146,0.012c0.361,0.986,1.059,1.711,1.699,2.309   c-0.085,0.763,0.324,1.079,0.656,1.336c0.287,0.222,0.514,0.396,0.522,0.816l0.002,0.092l0.075,0.055   c0.152,0.11,0.328,0.164,0.533,0.164c0.012,0,0.021,0,0.033,0c0.084,0.247,0.15,0.52,0.215,0.784   C37.356,36.082,37.424,36.36,37.513,36.621z M16.37,33.135c-0.07,0-0.132-0.009-0.188-0.028c0.086-0.207,0.184-0.377,0.28-0.543   c0.045-0.078,0.09-0.156,0.133-0.234C16.503,32.577,16.419,32.839,16.37,33.135z M15.313,33.101   c-0.052-0.147-0.196-0.205-0.282-0.232c0.398-0.859,0.679-1.721,0.858-2.625c0.109-0.117,0.242-0.219,0.381-0.326   c0.333-0.254,0.706-0.54,0.786-1.115c0.341-0.066,0.539-0.211,0.688-0.32c0.143-0.104,0.217-0.154,0.346-0.154   c0.116,0,0.27,0.044,0.469,0.133l0.042,0.019l-0.029,0.114c-0.133,0.513-0.385,0.847-0.771,1.02c0.229-0.2,0.482-0.461,0.438-0.988   l-0.024-0.277l-0.248,0.127c-0.685,0.352-1.103,0.957-1.507,1.541c-0.171,0.248-0.343,0.496-0.535,0.723l-0.043,0.051l-0.001,0.066   c-0.017,0.911-0.234,1.439-0.466,1.999C15.379,32.935,15.346,33.017,15.313,33.101z M16.814,31.745   c0.037-0.176,0.053-0.379,0.036-0.62c0.069-0.026,0.121-0.065,0.162-0.106C16.97,31.281,16.897,31.516,16.814,31.745z    M17.41,30.565c-0.095-0.441,0.024-0.625,0.22-0.806v0.759C17.565,30.549,17.494,30.564,17.41,30.565z M18.819,28.263   c-0.009-0.064-0.028-0.121-0.05-0.169l0.326-0.237c0.153-0.112,0.31-0.22,0.466-0.327c0.061-0.042,0.123-0.085,0.184-0.127   l-0.003,0.009c-0.206,0.599-0.416,0.949-0.897,1.029L18.819,28.263z M30.835,27.892c-0.111,0-0.169-0.046-0.257-0.113   c-0.03-0.023-0.06-0.047-0.091-0.068c-0.095-0.695-0.643-0.938-1.127-1.153c-0.375-0.166-0.729-0.323-0.859-0.669l-0.034-0.09   c0.252,0.15,0.528,0.289,0.903,0.332c0.203,0.398,0.568,0.609,0.922,0.816c0.402,0.233,0.754,0.438,0.861,0.885l-0.184,0.043   C30.92,27.886,30.874,27.892,30.835,27.892z M19.936,27.269c0.319-0.228,0.629-0.476,0.888-0.777h0.726l0.052-0.101   c0.131-0.252,0.48-0.337,0.849-0.427c0.336-0.082,0.683-0.167,0.921-0.393c0.116,0.019,0.231,0.026,0.343,0.026   c0.532,0,1.006-0.187,1.423-0.351c0.344-0.136,0.669-0.264,0.969-0.264c0.254,0,0.475,0.093,0.693,0.292l0.063,0.056l0.083-0.009   c0.085-0.009,0.165-0.014,0.239-0.014c0.492,0,0.797,0.189,1.12,0.39c0.03,0.02,0.06,0.037,0.089,0.056l-0.098,0.016   c-0.074,0.013-0.15,0.019-0.225,0.019c-0.393,0-0.799-0.154-1.193-0.303c-0.387-0.146-0.751-0.283-1.106-0.283   c-0.316,0-0.579,0.109-0.799,0.334c-1.476,0.055-2.506,0.564-3.504,1.057C20.982,26.833,20.48,27.081,19.936,27.269z" fill="#404041" fill-rule="evenodd"/><path clip-rule="evenodd" d="M30.552,45.729c-0.773-0.062-1.363-0.554-1.985-1.073   c-0.514-0.43-1.044-0.873-1.708-1.097c-0.076-0.383-0.31-0.627-0.682-0.716c-0.032-0.429-0.286-0.65-0.493-0.833   c-0.237-0.208-0.415-0.364-0.359-0.788c0.014,0,0.027,0,0.041,0c0.206,0,0.364-0.063,0.467-0.188   c0.029-0.034,0.053-0.071,0.072-0.112c0.864,1.587,1.895,3.057,3.7,3.751c0.047,0.078,0.084,0.197,0.055,0.404l-0.03,0.219   l0.222-0.006C30.245,45.29,30.462,45.427,30.552,45.729z M32.944,42.932c-2.939-2.301-4.484-5.947-5.609-9.216l-0.014-0.041   l-0.031-0.031c-0.202-0.197-0.357-0.443-0.523-0.705c-0.217-0.342-0.44-0.694-0.782-0.945l-0.043-0.032l-0.135-0.008   c-0.447,0-0.615,0.304-0.732,0.546c-0.087-0.021-0.171-0.033-0.25-0.033c-0.257,0-0.467,0.112-0.615,0.322   c0.017-0.049,0.031-0.098,0.043-0.142c0.046-0.162,0.081-0.27,0.146-0.315h0.026c0.437,0,0.735-0.2,0.886-0.596   c0.024-0.002,0.048-0.002,0.072-0.002c0.506,0,0.729,0.271,0.987,0.583c0.23,0.278,0.487,0.591,0.959,0.688   c0.047,0.76,0.355,1.317,0.938,1.699c0.012,0.136,0.018,0.277,0.023,0.42c0.027,0.668,0.063,1.488,0.791,1.623   c0.067,0.961,0.501,1.553,0.921,2.126c0.37,0.504,0.719,0.979,0.825,1.703l0.014,0.089l0.078,0.046   c0.651,0.377,1.129,0.918,1.635,1.491c0.215,0.244,0.436,0.493,0.672,0.729H32.944z M24.972,40.505   c-0.036-0.091-0.088-0.158-0.133-0.217c-0.063-0.082-0.104-0.137-0.098-0.246c0.011,0,0.022,0,0.033,0   c0.326,0,0.477-0.113,0.542-0.246c0.083,0.163,0.166,0.326,0.25,0.488c-0.094,0.033-0.169,0.08-0.234,0.119   c-0.099,0.062-0.17,0.105-0.292,0.105C25.02,40.509,24.996,40.508,24.972,40.505z M25.104,39.378   c-0.074-0.027-0.149-0.051-0.224-0.072c-0.333-0.099-0.458-0.158-0.454-0.387l-0.012-0.09c0.002,0.003,0.006,0.004,0.012,0.004   c0.013,0,0.033-0.006,0.05-0.01c0.08-0.023,0.18-0.051,0.254-0.136l0.007-0.008C24.861,38.91,24.982,39.144,25.104,39.378z    M24.633,38.382c-0.228-0.097-0.288-0.4-0.353-0.848c-0.033-0.227-0.067-0.471-0.152-0.679c0.152,0.189,0.295,0.356,0.514,0.446   c0,0.055-0.003,0.113-0.006,0.17c-0.012,0.26-0.023,0.526,0.136,0.693c0.018,0.018,0.04,0.037,0.067,0.055   c-0.055,0.021-0.11,0.053-0.156,0.105L24.633,38.382z M23.947,36.564c0.232-0.319,0.108-0.818-0.012-1.304   c-0.165-0.664-0.253-1.143,0.032-1.445c0.006,0.494,0.126,1.032,0.33,1.331c-0.336,0.29-0.161,0.667-0.05,0.905   c0.06,0.127,0.126,0.271,0.098,0.343c-0.017,0.044-0.08,0.089-0.177,0.13l-0.189,0.076C23.968,36.589,23.958,36.577,23.947,36.564z   " fill="#404041" fill-rule="evenodd"/><path clip-rule="evenodd" d="M32.132,45.285v-0.229h0.23c0,0.104-0.023,0.153-0.043,0.176   c-0.029,0.035-0.091,0.054-0.182,0.054C32.136,45.285,32.134,45.285,32.132,45.285z M30.907,44.683   c-0.096-0.226-0.23-0.407-0.391-0.561h0.611c0.089,0.152,0.217,0.255,0.332,0.348c0.097,0.076,0.172,0.14,0.225,0.213H30.907z    M30.366,43.991c-0.25-0.197-0.539-0.346-0.824-0.492c-0.576-0.298-1.123-0.578-1.268-1.238l-0.015-0.07l-0.058-0.041   c-0.152-0.109-0.326-0.164-0.533-0.164c-0.014,0-0.027,0.001-0.043,0.001c-0.072-0.168-0.142-0.339-0.211-0.511   c-0.354-0.87-0.719-1.768-1.465-2.305c0.033-0.709-0.034-1.347-0.205-1.922c0.063,0.03,0.128,0.059,0.193,0.088   c0.175,0.076,0.342,0.148,0.456,0.256c-0.004,0.031-0.023,0.049-0.07,0.092c-0.098,0.088-0.26,0.236-0.162,0.581   c0.03,0.259,0.328,0.265,0.472,0.268c0.046,0.001,0.124,0.003,0.146,0.013c0.021,0.112,0.004,0.128-0.074,0.194   c-0.079,0.069-0.213,0.185-0.199,0.419c0.037,0.299,0.336,0.306,0.479,0.309c0.012,0,0.025,0,0.039,0   c-0.109,0.295,0.019,0.483,0.125,0.64c0.105,0.154,0.215,0.314,0.176,0.654c0.012,0.307,0.213,0.447,0.594,0.447l0.119-0.003   c-0.059,0.146-0.088,0.285-0.008,0.41c0.101,0.157,0.311,0.178,0.482,0.178c0.004,0,0.006,0,0.01,0   c0.139,0.618,0.592,0.925,0.997,1.198c0.382,0.257,0.741,0.501,0.845,0.982L30.366,43.991z M25.625,36.901   c-0.145-0.374-0.338-0.72-0.58-1.04c0.025-0.021,0.059-0.029,0.109-0.029h0.623C25.859,36.172,25.846,36.507,25.625,36.901z    M25.275,35.489c-0.321-0.21-0.294-0.875-0.268-1.518c0.01-0.236,0.02-0.479,0.013-0.709h0.161c-0.111,0.76,0.132,1.349,0.35,1.873   c0.1,0.245,0.194,0.47,0.247,0.692L25.275,35.489z" fill="#404041" fill-rule="evenodd"/><path clip-rule="evenodd" d="M12.605,42.92c-0.01-0.263-0.021-0.53-0.138-0.727   c0.179-0.253,0.163-0.651,0.146-1.038c-0.021-0.511-0.017-0.848,0.215-0.889l0.014-0.002c-0.049,0.92-0.102,1.863-0.233,2.75   C12.608,42.983,12.607,42.952,12.605,42.92z M11.679,40.849c-0.13-0.006-0.174-0.072-0.268-0.26   c-0.048-0.096-0.108-0.217-0.208-0.313c0.339-0.006,0.57-0.153,0.681-0.34C11.793,40.208,11.699,40.489,11.679,40.849z    M12.864,39.854c-0.226-0.357-0.204-0.676,0.065-1.041C12.904,39.159,12.883,39.508,12.864,39.854z M11.96,39.692   c0.015-0.27-0.185-0.564-0.663-0.613l-0.213-0.021l0.007,0.213c0.003,0.084-0.023,0.119-0.089,0.2   c-0.042,0.051-0.089,0.108-0.124,0.185c0.042-1.051,0.316-1.737,0.833-2.09c-0.081,0.28-0.167,0.555-0.26,0.82l-0.026,0.073   l0.034,0.069c0.088,0.184,0.207,0.223,0.29,0.223c0.13,0,0.22-0.09,0.292-0.162c0.001,0,0.002-0.001,0.003-0.002   c0.082,0.471,0.014,0.805-0.086,1.123C11.96,39.704,11.96,39.698,11.96,39.692z M10.028,38.728c-0.145-0.806,0.186-1.47,0.536-2.17   c0.356-0.715,0.726-1.455,0.547-2.35l-0.048-0.244l-0.22,0.114c-0.034,0.019-0.067,0.038-0.098,0.058   c0.014-0.013,0.028-0.025,0.042-0.039c0.607-0.572,1.293-1.217,1.268-2.303c0.257-0.139,0.392-0.383,0.506-0.613   c-0.093,0.52-0.299,0.928-0.516,1.354c-0.314,0.62-0.638,1.26-0.605,2.257c-0.578,1.281-0.988,2.57-1.251,3.936H10.028z    M12.96,38.44c-0.053-0.16-0.196-0.217-0.265-0.243c-0.026-0.011-0.064-0.025-0.075-0.034c-0.075-0.752,0.213-1.143,0.537-1.447   l0.05-0.048C13.089,37.24,13.014,37.837,12.96,38.44z M11.801,37.247c-0.073-0.869,0.155-1.428,0.395-2.018   c0.219-0.535,0.445-1.089,0.437-1.877c0.146-0.292,0.272-0.604,0.399-0.915c0.393-0.968,0.764-1.883,1.696-2.222l0.05-0.018   l0.233-0.296c0.777-0.988,1.513-1.925,2.603-2.524c-0.024,0.04-0.049,0.08-0.075,0.121c-0.079,0.125-0.16,0.254-0.22,0.411   c-0.931,0.346-1.334,0.911-1.723,1.458c-0.263,0.369-0.511,0.718-0.917,0.982l-0.094,0.063l0.011,0.111   c0.057,0.621-0.046,1.107-0.316,1.481c0.061-0.317,0.1-0.656,0.105-1.028l0.008-0.541l-0.34,0.421   c-1.012,1.254-1.448,3.088-1.87,4.86C12.061,36.226,11.938,36.743,11.801,37.247z M13.216,36.569   c-0.066-1.228,0.242-2.059,0.568-2.939c0.134-0.361,0.271-0.73,0.379-1.129c0.005,0.009,0.011,0.018,0.017,0.025   c0.015,0.021,0.032,0.039,0.051,0.055c-0.153,0.256-0.204,0.591-0.253,0.917c-0.062,0.405-0.119,0.787-0.351,0.94l-0.061,0.041   l-0.017,0.07c-0.068,0.271,0.113,0.379,0.196,0.42c-0.236,0.514-0.403,1.068-0.527,1.647L13.216,36.569z M9.857,35.895   c-0.135-0.647,0.187-1.075,0.649-1.53c-0.176,0.232-0.267,0.533-0.356,0.826C10.07,35.458,9.992,35.715,9.857,35.895z    M38.038,34.646c-0.285-0.805-0.904-1.26-1.512-1.695c-1-1.869-2.227-3.123-3.525-4.451l-0.104-0.107   c-0.65-1.514-2.059-2.363-3.42-3.185c-0.434-0.261-0.867-0.522-1.278-0.808l-0.048-0.033h-1.227c-0.227-0.362-0.76-0.362-1-0.362   c-0.125,0-0.255,0.005-0.385,0.01c-0.07,0.003-0.14,0.005-0.209,0.008l0.053-0.029l-0.528-0.091   c-0.348-0.059-0.741-0.09-1.136-0.09c-0.263,0-0.687,0.016-1.13,0.094c0.024-0.032,0.038-0.064,0.049-0.086   c0.377-0.031,0.791-0.04,1.203-0.04c1.311,0,2.433,0.091,3.16,0.255l0.186,0.042c1.418,0.318,3.182,0.716,3.652,1.833l0.045,0.107   L31,26.023c0.349,0.022,0.519,0.225,0.714,0.458c0.211,0.253,0.449,0.537,0.921,0.586c0.272,0.626,0.788,1.148,1.331,1.7   c0.682,0.69,1.385,1.403,1.653,2.374l0.023,0.084l0.081,0.036c0.666,0.298,1.023,0.916,1.4,1.57   c0.365,0.633,0.742,1.286,1.426,1.652c0.005,0.052,0,0.089-0.016,0.107c-0.021,0.026-0.091,0.059-0.303,0.059L38.038,34.646z    M13.214,30.423c0.06-0.342,0.208-0.599,0.4-0.818l-0.056,0.129c-0.036,0.084-0.067,0.174-0.098,0.264   c-0.081,0.236-0.143,0.4-0.258,0.489L13.214,30.423z M13.907,29.642c-0.039,0-0.085-0.005-0.135-0.017l-0.147-0.033   c0.168-0.188,0.368-0.35,0.572-0.515c0.462-0.373,0.938-0.757,1.099-1.475c0.37-0.168,0.716-0.357,1.035-0.568   c-0.81,0.668-1.518,1.443-2.039,2.403c-0.045,0.028-0.087,0.06-0.128,0.091C14.076,29.597,14.018,29.642,13.907,29.642z    M18.254,26.819c0.693-0.594,1.652-0.955,2.585-1.305c0.613-0.23,1.247-0.469,1.81-0.773c0.143,0.006,0.273,0.008,0.393,0.008   c0.174,0,0.328-0.006,0.468-0.019c-1.3,0.234-2.326,0.741-3.326,1.233C19.571,26.267,18.94,26.577,18.254,26.819z M17.064,26.475   c0.325-0.286,0.613-0.6,0.864-0.94c0.641-0.172,1.201-0.427,1.743-0.674c0.142-0.064,0.281-0.129,0.422-0.19l-0.078,0.042   C19.012,25.261,17.993,25.817,17.064,26.475z M23.921,24.667c0.247-0.057,0.461-0.144,0.701-0.264   c0.002,0.05,0.008,0.1,0.015,0.146c0.001,0.017,0.004,0.036,0.006,0.056C24.393,24.616,24.153,24.638,23.921,24.667z M20.254,24.6   c0.51-0.22,1.032-0.408,1.644-0.511c-0.311,0.116-0.591,0.28-0.786,0.511H20.254z" fill="#404041" fill-rule="evenodd"/><path clip-rule="evenodd" d="M11.862,41.834c-0.22-0.13-0.537-0.164-0.584-0.468   c0.117,0,0.233,0,0.351,0C11.484,41.745,12.006,41.456,11.862,41.834z" fill="#404041" fill-rule="evenodd"/><path clip-rule="evenodd" d="M9.655,33.888c0.188-0.35,0.435-0.645,0.692-0.954   c0.172-0.205,0.345-0.413,0.502-0.64C10.775,33.118,10.328,33.562,9.655,33.888z M38.765,32.818   c-0.449-0.198-0.693-0.62-0.948-1.063c-0.298-0.518-0.605-1.051-1.251-1.271c-0.053-0.846-0.615-1.301-1.113-1.705   c-0.387-0.312-0.719-0.581-0.752-0.972l-0.008-0.1l-0.086-0.049c-0.088-0.049-0.184-0.088-0.28-0.128   c-0.346-0.142-0.509-0.227-0.444-0.612l0.029-0.179l-0.177-0.035c-0.493-0.099-0.763-0.437-1.048-0.794   c-0.33-0.412-0.703-0.879-1.449-0.953c-0.039-0.079-0.066-0.194-0.041-0.38l0.021-0.157l-0.15-0.047   c-0.592-0.182-1.127-0.385-1.644-0.579c-1.37-0.517-2.665-1.005-4.649-1.005c-0.397,0-0.819,0.02-1.253,0.059l-0.064,0.006   l-0.047,0.045c-0.103,0.098-0.203,0.198-0.301,0.3c-0.656,0.007-1.262,0.062-1.826,0.157c1.393-0.512,3.063-0.632,4.326-0.632   c0.81,0,1.639,0.049,2.463,0.146c0.066,0.023,0.145,0.08,0.236,0.146c0.151,0.11,0.34,0.247,0.65,0.247   c0.043,0,0.087-0.003,0.133-0.007c0.063,0.147,0.215,0.203,0.285,0.229c0.025,0.01,0.064,0.023,0.075,0.032l-0.055,0.192   l0.175,0.092c2.242,0.475,3.584,1.807,4.908,3.662c0.971,0.795,1.744,1.76,2.492,2.692c0.563,0.7,1.143,1.424,1.793,2.065V32.818z    M11.069,31.94c0.175-0.316,0.31-0.678,0.368-1.117l0.006,0.178C11.54,31.66,11.31,31.859,11.069,31.94z M39.436,31.065   c-0.366-0.215-0.653-0.58-0.955-0.963c-0.116-0.148-0.235-0.298-0.36-0.443c0.037,0.025,0.071,0.061,0.111,0.102   c0.107,0.107,0.253,0.255,0.527,0.257c0.034,0.345,0.266,0.543,0.443,0.694C39.364,30.851,39.455,30.929,39.436,31.065z    M11.442,30.788c0.008-0.066,0.015-0.136,0.019-0.207l0.244-0.285c0.479-0.559,0.974-1.135,1.335-1.844   c0.543-0.138,0.801-0.56,1.03-0.934c0.227-0.371,0.424-0.695,0.861-0.78c0.002,0.05,0.009,0.1,0.015,0.147   c0.005,0.042,0.013,0.105,0.013,0.145c-0.269,0.269-0.568,0.52-0.858,0.762c-0.834,0.699-1.696,1.422-2.038,2.668   c-0.147,0.047-0.228,0.158-0.281,0.23c-0.064,0.087-0.079,0.098-0.129,0.098H11.442z M37.944,29.466   c-0.18-0.186-0.375-0.356-0.604-0.493c-0.568-1.076-1.432-1.862-2.266-2.622c-0.64-0.582-1.301-1.185-1.809-1.905l-0.027-0.038   l-0.731-0.369c-1.157-0.582-2.073-1.041-3.146-1.743l-0.061-0.039l-0.07,0.011c-0.098,0.016-0.187,0.022-0.268,0.022   c-0.375,0-0.576-0.153-0.738-0.318l-0.032-0.034l-0.044-0.014c-0.068-0.021-0.147-0.031-0.242-0.031   c-0.105,0-0.223,0.012-0.34,0.025c-0.104,0.012-0.207,0.023-0.299,0.023c-0.127,0-0.152-0.024-0.152-0.024l0.01-0.269   c0.197,0.021,0.398,0.042,0.604,0.056c3.847,1.21,6.451,2.821,8.154,5.064c0.237,0.303,0.509,0.566,0.771,0.822   C37.21,28.129,37.734,28.639,37.944,29.466z M15.422,26.351c0.92-1.07,1.81-2.066,3.474-2.313c0.199-0.038,0.268-0.185,0.285-0.345   c0.087,0.068,0.21,0.107,0.369,0.119c-1.616,0.592-2.833,1.541-3.908,2.539H15.422z M19.761,22.978   c0.033-0.042,0.063-0.084,0.09-0.123c0.084-0.121,0.141-0.196,0.236-0.225c0.287-0.009,0.564-0.037,0.835-0.076   c-0.393,0.119-0.757,0.264-1.116,0.405C19.792,22.966,19.776,22.972,19.761,22.978z M22.318,22.282   c0.195-0.041,0.392-0.081,0.596-0.117c-0.009,0.031-0.013,0.06-0.017,0.081c0,0.008,0,0.014,0.001,0.018l-0.088-0.001   C22.641,22.263,22.477,22.27,22.318,22.282z M23.569,22.229c-0.011-0.037-0.028-0.095-0.06-0.15   c0.079-0.009,0.158-0.017,0.238-0.023c-0.064,0.053-0.124,0.113-0.175,0.183C23.571,22.235,23.57,22.232,23.569,22.229z    M24.124,21.848c0.061-0.114,0.075-0.26,0.075-0.392c0.194-0.013,0.38-0.019,0.562-0.019c0.646,0,1.236,0.073,1.808,0.144   c0.159,0.021,0.319,0.04,0.479,0.059l-0.199,0.057c-0.098,0.044-0.26,0.064-0.494,0.064c-0.172,0-0.364-0.01-0.564-0.021   c-0.224-0.012-0.458-0.025-0.688-0.025C24.787,21.714,24.433,21.735,24.124,21.848z" fill="#404041" fill-rule="evenodd"/><path clip-rule="evenodd" d="M9.515,32.536c-0.035,0-0.091-0.01-0.177-0.052   c-0.012-0.075,0.017-0.092,0.108-0.146c0.078-0.045,0.186-0.107,0.247-0.229c0.272-0.929,0.683-1.721,1.161-2.44l0.004,0.142   c0.008,0.318-0.115,0.496-0.259,0.703c-0.143,0.207-0.304,0.438-0.324,0.808c-0.234,0.144-0.342,0.444-0.438,0.715   C9.731,32.338,9.65,32.536,9.515,32.536z M10.871,29.645c0.463-0.692,0.987-1.317,1.505-1.931c-0.005,0.275-0.136,0.412-0.3,0.586   c-0.168,0.177-0.373,0.393-0.4,0.773c-0.194,0.07-0.304,0.218-0.39,0.332c-0.095,0.127-0.154,0.199-0.27,0.217L10.871,29.645z    M12.733,27.533c-0.043,0-0.089-0.004-0.141-0.013l-0.046-0.007c0.529-0.626,1.068-1.273,1.536-1.983   c0.549-0.168,0.942-0.515,1.323-0.85c0.264-0.232,0.538-0.474,0.871-0.667c0.84-0.487,1.762-1.114,2.54-1.726h0.449   c-0.377,0.353-0.843,0.58-1.33,0.819c-0.229,0.112-0.458,0.224-0.677,0.349c-0.357,0.204-0.668,0.457-0.998,0.727   c-0.341,0.276-0.694,0.563-1.102,0.791c-0.536,0.299-0.979,0.851-1.113,1.366c-0.541,0.001-0.707,0.413-0.827,0.714   C13.091,27.368,13.012,27.533,12.733,27.533z M19.895,21.928c0.054-0.062,0.104-0.13,0.146-0.211   c0.078,0.006,0.155,0.009,0.23,0.009c0.186,0,0.36-0.018,0.527-0.045c-0.138,0.029-0.257,0.076-0.367,0.119   C20.256,21.866,20.105,21.925,19.895,21.928z M21.436,21.702c-0.096-0.045-0.215-0.057-0.322-0.057   c-0.076,0-0.148,0.006-0.214,0.016c0.215-0.043,0.418-0.104,0.616-0.169c-0.029,0.053-0.044,0.105-0.055,0.142   C21.453,21.656,21.442,21.692,21.436,21.702z M21.986,21.331c0.33-0.112,0.65-0.203,0.994-0.203c0.137,0,0.271,0.014,0.407,0.043   c-0.121,0.121-0.363,0.17-0.781,0.17C22.499,21.341,22.083,21.331,21.986,21.331z" fill="#404041" fill-rule="evenodd"/><path clip-rule="evenodd" d="M9.204,30.443c-0.025-0.03-0.042-0.06-0.047-0.09   c-0.03-0.146,0.149-0.373,0.323-0.594c0.207-0.264,0.438-0.558,0.467-0.886c0.152-0.089,0.255-0.217,0.347-0.332   c0.072-0.09,0.131-0.162,0.199-0.213c-0.07,0.559-0.367,0.895-0.678,1.248C9.589,29.832,9.357,30.094,9.204,30.443z M39.845,29.878   c-0.588-0.326-0.908-0.936-1.244-1.577c-0.414-0.787-0.841-1.6-1.798-1.903c-0.024-0.16-0.122-0.249-0.187-0.308   c-0.074-0.065-0.089-0.08-0.055-0.201l0.014-0.044c0.67,0.205,1.112,0.639,1.579,1.096c0.329,0.322,0.663,0.649,1.083,0.898   c-0.055-0.008-0.113-0.013-0.177-0.013c-0.118,0-0.244,0.016-0.384,0.048l-0.219,0.05l0.09,0.206   c0.137,0.318,0.405,0.572,0.664,0.82C39.536,29.258,39.823,29.531,39.845,29.878z M9.036,28.647   c-0.05-0.076-0.111-0.141-0.183-0.193c0.071-0.128,0.134-0.262,0.197-0.396c0.248-0.531,0.463-0.988,1.149-0.988   c0.042,0,0.181,0.009,0.181,0.009c-0.016,0.034-0.032,0.069-0.048,0.105C9.819,27.275,9.63,27.7,9.476,28.046   C9.358,28.31,9.252,28.544,9.036,28.647z M40.283,28.609c-0.113-0.068-0.202-0.171-0.298-0.282c-0.07-0.08-0.145-0.167-0.234-0.246   c0.164,0.059,0.34,0.105,0.532,0.137V28.609z M10.971,27.841c0.167-0.404,0.401-0.741,0.668-1.057   C11.54,27.389,11.376,27.743,10.971,27.841z M10.565,26.71c-0.01-0.206-0.17-0.285-0.243-0.32l-0.105,0.068   c0.374-0.257,0.628-0.619,0.875-0.971c0.343-0.488,0.666-0.949,1.283-1.104l0.086-0.021C11.723,25.033,11.061,25.79,10.565,26.71z    M12.029,26.351c0.057-0.061,0.116-0.121,0.174-0.183c0.49-0.514,0.997-1.044,1.304-1.778h0.662l0.056-0.068   c2.111-2.556,5.832-4.021,10.208-4.021c0.998,0,2.024,0.078,3.049,0.234c0.188,0.064,0.381,0.132,0.575,0.199l-0.56-0.044   c-1.211-0.097-2.585-0.206-3.905-0.206c-2.466,0-4.067,0.381-5.028,1.197h-0.696l-0.052,0.041   c-0.091,0.074-0.178,0.152-0.264,0.231c-0.3,0.274-0.558,0.511-1.034,0.546l-0.095,0.007l-0.05,0.081   c-0.434,0.698-1.124,1.136-1.854,1.6c-0.869,0.551-1.766,1.121-2.201,2.164H12.029z M36.026,25.538   c-0.735-1.229-1.83-2.175-3.318-2.857l0.088-0.118c0.115-0.154,0.153-0.292,0.117-0.42c-0.057-0.197-0.258-0.275-0.451-0.352   c-0.309-0.12-0.404-0.187-0.363-0.366c0.102,0.031,0.212,0.05,0.335,0.05c0.003,0,0.007,0,0.009,0   c0.755,0.942,1.708,1.704,2.834,2.269c0.113,0.699,0.508,0.883,0.89,1.062c0.195,0.092,0.396,0.186,0.573,0.359   c-0.024,0.001-0.053,0.001-0.075,0.002c-0.139,0.005-0.312,0.012-0.415,0.148c-0.047,0.062-0.068,0.137-0.064,0.225   C36.159,25.538,36.026,25.538,36.026,25.538z M12.503,24.269c0.23-0.602,0.781-0.898,1.363-1.215c0.601-0.325,1.221-0.66,1.51-1.35   h0.532c-0.398,0.309-0.806,0.605-1.207,0.897c-0.758,0.552-1.527,1.112-2.229,1.75L12.503,24.269z M32.536,22.604   c-0.586-0.256-1.23-0.474-1.936-0.651c-0.042-0.163-0.16-0.25-0.237-0.306c-0.065-0.048-0.088-0.067-0.096-0.096   C31.052,21.865,31.825,22.212,32.536,22.604z M15.993,21.612c0.835-1.412,3.754-1.813,6.099-2.135   c0.797-0.109,1.55-0.213,2.185-0.347c0.079-0.026,0.106-0.028,0.115-0.028c0.052,0.096,0.107,0.195,0.22,0.244   c-0.111-0.004-0.224-0.006-0.339-0.006c-1.913,0-3.888,0.533-5.631,1.004c-0.551,0.148-1.078,0.291-1.568,0.406l-0.048,0.012   l-0.037,0.033c-0.324,0.301-0.67,0.587-1.024,0.863L15.993,21.612z M29.585,21.285c-0.486-0.059-0.933-0.169-1.197-0.436   C28.78,20.988,29.182,21.133,29.585,21.285z M31.476,21.006c-0.838-0.168-1.549-0.367-2.127-0.673   c0.238,0.052,0.493,0.061,0.742,0.068c0.318,0.012,0.62,0.022,0.848,0.119c0.143,0.062,0.273,0.203,0.412,0.353   C31.392,20.916,31.433,20.96,31.476,21.006z M27.315,19.929c-0.715-0.318-1.498-0.505-2.379-0.566c0,0,1.668,0.005,1.682,0.005   c0.081,0,0.1,0.019,0.153,0.096c0.063,0.091,0.161,0.228,0.362,0.255l0.047,0.006l0.043-0.016c0.127-0.048,0.25-0.07,0.371-0.07   c0.295,0,0.563,0.137,0.842,0.291H27.315z" fill="#404041" fill-rule="evenodd"/><path clip-rule="evenodd" d="M8.872,26.409c0.154-0.378,0.382-0.798,0.793-0.848   c0.035,0.1,0.031,0.285,0.028,0.434C9.283,26.013,9.056,26.229,8.872,26.409z" fill="#404041" fill-rule="evenodd"/><path clip-rule="evenodd" d="M8.808,25.112c-0.037-0.158-0.014-0.326,0.069-0.467   c0.06-0.101,0.202-0.27,0.487-0.27c0.02,0,0.041,0,0.062,0.002C9.265,24.681,9.082,24.947,8.808,25.112z M9.713,23.735   c-0.066-0.251-0.184-0.306-0.264-0.315c0.426-0.457,0.928-0.849,1.418-1.229c0.625-0.486,1.27-0.989,1.772-1.634   c0.034,0.005,0.067,0.007,0.1,0.007c0.221,0,0.343-0.119,0.422-0.198c0.069-0.069,0.094-0.091,0.16-0.091   c0.034,0,0.076,0.008,0.125,0.021l0.028,0.008c-0.203,0.479-0.636,0.744-1.092,1.023c-0.486,0.297-0.989,0.604-1.237,1.188   c-0.794,0.131-1.149,0.709-1.431,1.279V23.735z M14.258,19.747c0.74-0.574,1.507-1.076,2.55-1.317l0.041-0.01l0.033-0.026   c1.298-1.027,2.617-1.635,4.125-1.895c-1.353,0.436-2.478,1.072-3.571,1.692C16.443,18.753,15.422,19.332,14.258,19.747z    M31.337,17.22c-0.284-0.036-0.572-0.107-0.865-0.197c0.066-0.003,0.131-0.006,0.193-0.006   C31.065,17.017,31.251,17.101,31.337,17.22z M29.487,16.678c-0.668-0.247-1.355-0.503-2.07-0.601   c-0.416-0.057-0.848-0.084-1.32-0.084c-0.8,0-1.605,0.082-2.385,0.16c-0.666,0.066-1.354,0.137-2.046,0.156   c-0.058,0.015-0.114,0.029-0.171,0.045c0.452-0.402,1.364-0.422,2.247-0.441c0.837-0.018,1.702-0.035,2.273-0.377   c0.484,0.172,1,0.316,1.5,0.455c0.832,0.234,1.691,0.475,2.396,0.843C29.771,16.784,29.63,16.731,29.487,16.678z" fill="#404041" fill-rule="evenodd"/><path clip-rule="evenodd" d="M9.422,21.88c0.203-0.586,0.751-0.871,1.329-1.173   c0.23-0.12,0.467-0.243,0.677-0.387c-0.001,0.032-0.002,0.063-0.002,0.087c-0.001,0.047-0.002,0.124-0.013,0.146   c-0.531,0.1-0.974,0.484-1.401,0.854C9.814,21.58,9.621,21.747,9.422,21.88z M41.05,21.665c-0.232-0.043-0.389-0.188-0.394-0.617   l-0.001-0.121l-0.111-0.049c-0.085-0.035-0.174-0.066-0.264-0.098c-0.415-0.142-0.611-0.229-0.56-0.641l0.03-0.239l-0.238,0.03   c-0.029,0.004-0.057,0.006-0.083,0.006c-0.331,0-0.528-0.295-0.735-0.607c-0.1-0.146-0.199-0.298-0.318-0.418   C39.542,19.474,40.722,20.482,41.05,21.665z M12.409,19.437c0.375-0.381,0.761-0.773,1.184-1.029   c0.537-0.324,1.206-0.576,1.853-0.818c0.416-0.156,0.845-0.317,1.239-0.498c0.003,0.035,0.02,0.168,0.022,0.201   c-0.919,0.318-1.796,0.844-2.722,1.398c-0.61,0.365-1.239,0.741-1.885,1.057C12.202,19.646,12.305,19.542,12.409,19.437z    M37.949,18.655c-0.136-0.042-0.277-0.064-0.409-0.084c-0.184-0.028-0.357-0.055-0.471-0.13c-0.264-0.173-0.483-0.42-0.715-0.681   c-0.362-0.41-0.773-0.873-1.432-1.092l-0.776-0.008c-0.162-0.224-0.354-0.408-0.568-0.563h0.872   c0.421,0.326,0.896,0.599,1.357,0.862C36.651,17.443,37.448,17.899,37.949,18.655z M17.201,16.624   c0.051-0.064,0.103-0.131,0.149-0.2c0.681-0.192,1.325-0.429,1.95-0.657c1.451-0.532,2.954-1.082,4.959-1.082   c0.18,0,0.365,0.004,0.554,0.014c0.017,0.008,0.068,0.016,0.117,0.016c0.257,0,0.338-0.205,0.376-0.304   c0.01-0.025,0.025-0.063,0.035-0.074c0.077-0.005,0.189-0.011,0.307-0.011c0.175,0,0.362,0.012,0.548,0.023   c0.195,0.012,0.389,0.024,0.571,0.024c0.312,0,0.688-0.03,0.929-0.249c0.263,0.032,0.539,0.05,0.815,0.066   c0.446,0.028,0.907,0.057,1.287,0.152c0.069,0.017,0.091,0.042,0.141,0.104c0.058,0.07,0.136,0.167,0.298,0.236   c0.186,0.08,0.455,0.096,0.742,0.113c0.277,0.018,0.592,0.037,0.772,0.119c-0.001,0-0.002,0-0.002,0   c-0.015,0,0.013,0.056,0.03,0.09c0.056,0.117,0.109,0.229,0.222,0.267c0.231,0.079,0.46,0.116,0.662,0.149   c0.503,0.08,0.75,0.137,0.853,0.538l0.031,0.118c-0.559-0.393-1.255-0.595-1.936-0.793c-0.375-0.108-0.762-0.221-1.115-0.362   c-0.793-0.319-1.856-0.495-2.992-0.495c-0.57,0-1.154,0.043-1.739,0.128c-0.042-0.009-0.08-0.013-0.117-0.013   c-0.256,0-0.337,0.205-0.376,0.303c-0.01,0.025-0.025,0.064-0.035,0.074c-0.195-0.038-0.446-0.05-0.685-0.05   c-0.579,0-1.091,0.071-1.587,0.14c-0.483,0.067-0.982,0.137-1.536,0.137c-0.073,0-0.273-0.005-0.273-0.005l-0.045,0.025   C19.737,15.938,18.521,16.394,17.201,16.624z" fill="#404041" fill-rule="evenodd"/><path clip-rule="evenodd" d="M41.084,18.944c-0.313,0-0.575-0.274-0.851-0.564   c-0.188-0.195-0.381-0.398-0.604-0.527c-0.208-0.12-0.437-0.161-0.657-0.2c-0.191-0.034-0.373-0.066-0.508-0.148   c-0.025-0.021-0.07-0.131-0.096-0.196c-0.056-0.141-0.119-0.301-0.25-0.385c-0.336-0.215-0.729-0.365-1.11-0.51   c-0.649-0.248-1.265-0.482-1.644-1.014c0.637,0.354,1.297,0.718,1.992,1.033l0.121,0.055l0.092-0.096   c0.065-0.069,0.154-0.178,0.139-0.316c-0.018-0.146-0.135-0.223-0.221-0.279c-0.128-0.084-0.176-0.115-0.112-0.285l0.056-0.147   c0.264,0.193,0.458,0.435,0.52,0.812l0.018,0.112l0.107,0.036c0.667,0.222,1.072,0.709,1.5,1.225   c0.172,0.205,0.342,0.409,0.528,0.598l0.05,0.051l0.072,0.004c0.492,0.027,0.789,0.256,0.948,0.736   C41.144,18.941,41.114,18.944,41.084,18.944z M9.125,18.896c0.044-0.486,0.377-0.668,0.783-0.89c0.38-0.207,0.806-0.439,0.94-0.969   c0.791-0.009,1.459-0.444,2.105-0.866c0.384-0.25,0.782-0.51,1.193-0.668c0.014,0,0.027-0.001,0.039-0.001   c0.061,0,0.104,0.008,0.146,0.015c0.072,0.013,0.144,0.023,0.21,0.023c0.08,0,0.147-0.015,0.207-0.045   c0.173-0.091,0.279-0.166,0.376-0.236c0.147-0.106,0.266-0.192,0.629-0.299c-0.247,0.144-0.488,0.29-0.728,0.436   c-0.964,0.586-1.96,1.192-3.21,1.504c-0.328,0.02-0.382,0.32-0.383,0.577c-0.621,0.036-1.074,0.433-1.512,0.817   C9.672,18.514,9.414,18.739,9.125,18.896z M9.174,16.896c0.135-0.439,0.484-0.674,0.982-0.819l-0.052,0.046   c-0.109,0.097-0.2,0.211-0.291,0.325C9.632,16.679,9.485,16.864,9.174,16.896z M10.158,16.076c0.352-0.103,0.779-0.159,1.257-0.212   l0.092-0.01l0.047-0.079c0.338-0.559,0.972-0.837,1.643-1.13c0.377-0.166,0.767-0.336,1.104-0.563c0.003,0,0.042-0.002,0.049-0.002   c0.035,0.065,0.071,0.132,0.126,0.183c-0.769,0.361-1.487,0.767-2.194,1.165c-0.387,0.219-0.774,0.437-1.168,0.647H10.158z    M37.245,15.265c-0.668-0.167-1.159-0.503-1.68-0.858c-0.633-0.433-1.285-0.878-2.266-0.998c-0.045-0.188-0.223-0.253-0.303-0.281   c-0.025-0.009-0.064-0.024-0.074-0.032l0.068-0.24l-0.231-0.048c-0.7,0-1.161-0.194-1.649-0.401c-0.502-0.211-1.021-0.43-1.76-0.43   c-0.108,0-0.221,0.004-0.34,0.014l-0.092,0.017c-0.004-0.003-0.02-0.042-0.029-0.067c-0.037-0.096-0.1-0.255-0.291-0.296   l-0.352-0.046c-1.179-0.154-2.792-0.365-4.274-0.365c-1.625,0-2.778,0.246-3.522,0.752c-0.084-0.006-0.166-0.009-0.244-0.009   c-0.678,0-1.13,0.222-1.568,0.437c-0.393,0.192-0.764,0.373-1.296,0.396l-0.123,0.005l-0.044,0.115   c-0.021,0.055-0.073,0.094-0.156,0.152c-0.104,0.073-0.238,0.169-0.296,0.347c-0.619,0.167-1.196,0.377-1.747,0.612   c-0.005-0.127-0.114-0.198-0.186-0.246c-0.011-0.008-0.026-0.018-0.041-0.028h0.907l0.048-0.034c0.21-0.146,0.315-0.383,0.408-0.59   c0.052-0.117,0.102-0.229,0.164-0.316c1.55-0.133,2.701-0.634,3.839-1.18c0.007,0,0.015,0,0.022,0c0.082,0,0.212-0.011,0.342-0.022   c0.74-0.063,1.504-0.13,1.965-0.543h5.009c0.594,0.378,1.39,0.542,2.16,0.7c0.823,0.17,1.674,0.346,2.215,0.777l0.048,0.037   l0.06,0.003c0.854,0.038,1.406,0.37,1.99,0.722c0.5,0.3,1.016,0.609,1.748,0.774c0.256,0.454,0.708,0.689,1.146,0.917   c0.172,0.09,0.338,0.176,0.486,0.271L37.245,15.265z M34.72,15.046c-0.805-0.212-1.54-0.508-2.254-0.797   c-1.386-0.559-2.818-1.137-4.809-1.137c-0.264,0-0.535,0.011-0.82,0.031c-0.053-0.116-0.146-0.185-0.211-0.23   c-0.09-0.066-0.102-0.08-0.098-0.143l0.01-0.186l-0.186-0.012c-0.063-0.004-0.126-0.005-0.191-0.005   c-0.108,0-0.221,0.004-0.333,0.009c-0.107,0.003-0.215,0.008-0.318,0.008c-0.261,0-0.412-0.03-0.5-0.075   c0.254-0.157,0.518-0.229,0.821-0.229c0.398,0,0.82,0.128,1.265,0.264c0.513,0.156,1.094,0.334,1.729,0.334   c0.148,0,0.297-0.01,0.441-0.029c0.153,0.238,0.465,0.287,0.723,0.329c0.281,0.045,0.455,0.081,0.492,0.216l0.033,0.115l0.117,0.02   C32.235,13.782,33.517,14.395,34.72,15.046z M16.2,14.71c0.045-0.057,0.083-0.115,0.117-0.169c0.059-0.095,0.111-0.177,0.184-0.214   c0.015-0.001,0.028-0.001,0.041-0.001c0.061,0,0.103,0.008,0.145,0.015c0.069,0.012,0.139,0.023,0.203,0.023   C16.651,14.474,16.423,14.589,16.2,14.71z M17.33,14.176c0.098-0.079,0.188-0.173,0.277-0.265c0.159-0.163,0.323-0.332,0.501-0.391   c1.03-0.335,1.636-0.5,2.496-0.676c-0.208,0.074-0.354,0.174-0.497,0.271c-0.23,0.157-0.429,0.292-0.771,0.292   c-0.065,0-0.134-0.005-0.209-0.016l-0.078-0.01l-0.062,0.049c-0.118,0.092-0.195,0.217-0.25,0.331   C18.229,13.86,17.765,14.004,17.33,14.176z M20.825,12.8c0.322-0.063,0.683-0.129,1.112-0.207c0.061-0.011,0.177-0.045,0.329-0.092   c0.409-0.125,1.093-0.335,1.648-0.335c0.293,0,0.468,0.059,0.574,0.128c-0.884,0.324-2.053,0.4-3.185,0.475L20.825,12.8z" fill="#404041" fill-rule="evenodd"/><path clip-rule="evenodd" d="M41.052,16.937c-0.298-0.185-0.604-0.45-0.92-0.727   c-0.505-0.439-1.026-0.894-1.635-1.146c-0.025-0.042-0.055-0.08-0.084-0.119c-0.09-0.115-0.145-0.185-0.097-0.392l0.015-0.065   c0.128,0.085,0.256,0.168,0.383,0.25C39.663,15.353,40.565,15.937,41.052,16.937z M37.392,14.325   c-2.611-2.506-6.576-3.455-11.481-4.434l-0.072-0.015l-0.063,0.038c-0.179,0.109-0.423,0.16-0.767,0.16   c-0.26,0-0.542-0.027-0.831-0.057c-0.319-0.031-0.647-0.064-0.968-0.064c-0.166,0-0.359,0.008-0.562,0.041   c0.628-0.182,1.3-0.269,2.061-0.269c1.729,0,3.617,0.458,5.281,0.863c0.768,0.187,1.49,0.362,2.156,0.485   c0.186,0.009,0.252,0.086,0.367,0.234c0.096,0.124,0.215,0.278,0.43,0.344c0.95,0.021,1.497,0.376,2.076,0.752   c0.492,0.319,1.002,0.65,1.732,0.762c0.381,0.457,0.85,0.823,1.338,1.158H37.392z M11.921,13.975   c0.465-0.436,0.979-0.686,1.608-0.798l0.059-0.01l0.042-0.043c0.091-0.092,0.185-0.181,0.278-0.27   c0.265-0.251,0.538-0.51,0.746-0.843h0.758l0.042-0.022c2.023-1.098,4.067-1.647,6.428-1.728c-0.102,0.06-0.2,0.132-0.294,0.218   l-0.139,0.015c-1.413,0.152-2.347,0.253-3.703,0.808c-0.099,0.041-0.274,0.129-0.477,0.23c-0.35,0.176-0.786,0.395-1.023,0.465   c-0.019,0-0.036,0.002-0.052,0.002c-0.062,0-0.103-0.008-0.144-0.014c-0.07-0.01-0.141-0.02-0.206-0.02   c-0.08,0-0.147,0.013-0.207,0.041c-0.258,0.117-0.499,0.327-0.755,0.549c-0.278,0.242-0.566,0.492-0.871,0.614   c-0.177,0.071-0.382,0.102-0.581,0.132c-0.439,0.065-0.933,0.14-1.125,0.673H11.921z" fill="#404041" fill-rule="evenodd"/><path clip-rule="evenodd" d="M40.032,11.304c0.026-0.019,0.033-0.096,0.038-0.146   c0.003-0.036,0.007-0.073,0.009-0.109c0.132,0.072,0.209,0.12,0.221,0.24h-0.18L40.032,11.304z M39.229,10.705   c-0.066-0.275-0.238-0.445-0.381-0.586c-0.174-0.173-0.313-0.309-0.295-0.618l0.012-0.197h-0.949   c-0.105-0.086-0.218-0.18-0.338-0.278c-0.236-0.197-0.504-0.419-0.789-0.64c0.049,0.035,0.099,0.068,0.148,0.099   c0.148,0.085,0.367,0.11,0.598,0.136c0.152,0.018,0.38,0.043,0.436,0.085c0.012,0.009,0.039,0.046,0.059,0.072   c0.109,0.142,0.289,0.381,0.664,0.381c0.079,0,0.164-0.012,0.254-0.034c0.068,0.109,0.111,0.228,0.156,0.352   c0.117,0.318,0.247,0.675,0.843,0.765c-0.038,0.203-0.015,0.352,0.041,0.465H39.229z M11.819,8.956   c0.026-0.172,0.116-0.307,0.197-0.396c0.182-0.2,0.459-0.329,0.705-0.329c0.12,0,0.28,0.031,0.376,0.18   c-0.094,0.053-0.182,0.109-0.267,0.164C12.536,8.763,12.258,8.941,11.819,8.956z M36.41,8.324   c-0.467-0.358-0.979-0.712-1.494-0.963C35.01,7.349,35.14,7.31,35.241,7.25c0.211,0.104,0.438,0.345,0.656,0.576   C36.062,8.001,36.23,8.179,36.41,8.324z M13.565,8.208c0.016-0.087,0.014-0.176,0.013-0.242c-0.001-0.062-0.004-0.163,0.01-0.191   c0.38-0.148,0.726-0.33,1.061-0.506c0.635-0.334,1.234-0.648,2.16-0.865l0.038-0.01l0.031-0.023   c0.49-0.367,1.199-0.558,1.884-0.742c0.683-0.185,1.389-0.375,1.927-0.744c1.312-0.152,2.62-0.229,3.887-0.229   c2.891,0,5.333,0.398,7.063,1.153c0.496,0.52,1.286,0.813,2.289,0.833c0.002,0,0.002,0,0.002,0c0.17,0,0.27,0.131,0.407,0.329   c0.052,0.074,0.104,0.149,0.163,0.216c-0.203-0.062-0.434-0.07-0.676-0.08c-0.293-0.012-0.596-0.023-0.881-0.127   c-0.334-0.121-0.645-0.35-0.943-0.57c-0.453-0.332-0.92-0.677-1.5-0.677c-0.114,0-0.23,0.014-0.346,0.04   c-0.148-0.17-0.359-0.26-0.55-0.34c-0.175-0.074-0.339-0.144-0.429-0.26l-0.056-0.072h-0.091c-0.833-0.005-1.689-0.063-2.518-0.121   c-0.85-0.059-1.654-0.113-2.422-0.113c-1.352,0-2.324,0.186-3.051,0.584h-1.396l-0.04,0.02c-0.607,0.301-1.289,0.549-1.949,0.79   c-1.292,0.47-2.626,0.956-3.534,1.875l-0.017-0.001C13.899,8.134,13.723,8.163,13.565,8.208z" fill="#404041" fill-rule="evenodd"/></g></svg>