<?xml version="1.0" ?><!DOCTYPE svg  PUBLIC '-//W3C//DTD SVG 1.1//EN'  'http://www.w3.org/Graphics/SVG/1.1/DTD/svg11.dtd'><svg enable-background="new 0 0 200 200" height="200px" id="Layer_1" version="1.1" viewBox="0 0 200 200" width="200px" xml:space="preserve" xmlns="http://www.w3.org/2000/svg" xmlns:xlink="http://www.w3.org/1999/xlink"><g><g><g><path d="M53.477,173.063c-2.054,0-3.721-1.667-3.721-3.721c0-2.058,1.667-3.725,3.721-3.725     c27.129,0,52.285-12.322,69.018-33.809c1.263-1.624,3.604-1.914,5.223-0.65c1.623,1.263,1.912,3.602,0.649,5.225     C110.215,159.694,82.92,173.063,53.477,173.063z" fill="#3F4A5A"/><path d="M144.662,81.878c-2.055,0-3.723-1.667-3.723-3.721c0-22.573-18.364-40.938-40.939-40.938     c-22.575,0-40.939,18.364-40.939,40.938c0,2.054-1.668,3.721-3.722,3.721c-2.054,0-3.723-1.667-3.723-3.721     c0-26.678,21.704-48.382,48.384-48.382s48.384,21.704,48.384,48.382C148.384,80.211,146.716,81.878,144.662,81.878z" fill="#3F4A5A"/><path d="M53.477,98.626H25.565c-2.055,0-3.722-1.667-3.722-3.721c0-2.056,1.667-3.723,3.722-3.723h27.912     c7.185,0,13.027-5.843,13.027-13.025c0-18.47,15.026-33.496,33.496-33.496c18.471,0,33.496,15.026,33.496,33.496     c0,2.054-1.666,3.721-3.723,3.721c-2.055,0-3.722-1.667-3.722-3.721c0-14.365-11.687-26.052-26.052-26.052     S73.949,63.792,73.949,78.158C73.949,89.443,64.766,98.626,53.477,98.626z" fill="#3F4A5A"/><path d="M53.477,158.176c-2.054,0-3.721-1.667-3.721-3.723c0-2.054,1.667-3.721,3.721-3.721     c28.789,0,54.885-17.07,66.481-43.486c0.825-1.883,3.018-2.741,4.902-1.912c1.883,0.825,2.737,3.022,1.912,4.903     C113.991,139.358,85.22,158.176,53.477,158.176z" fill="#3F4A5A"/><path d="M53.477,143.284c-2.054,0-3.721-1.666-3.721-3.721c0-2.056,1.667-3.722,3.721-3.722     c31.81,0,57.689-25.879,57.689-57.688c0-6.156-5.01-11.166-11.166-11.166c-6.155,0-11.165,5.01-11.165,11.166     c0,19.496-15.859,35.358-35.358,35.358H25.565c-2.055,0-3.722-1.667-3.722-3.723s1.667-3.723,3.722-3.723h27.912     c15.394,0,27.915-12.522,27.915-27.913c0-10.26,8.348-18.61,18.608-18.61c10.261,0,18.61,8.35,18.61,18.61     C118.61,114.067,89.392,143.284,53.477,143.284z" fill="#3F4A5A"/><path d="M79.574,200c-1.709,0-3.249-1.185-3.633-2.92c-0.443-2.007,0.827-3.994,2.832-4.437     c17.593-3.887,34.339-11.978,48.424-23.402c1.599-1.299,3.939-1.051,5.234,0.546c1.296,1.597,1.052,3.94-0.543,5.235     c-14.982,12.148-32.793,20.756-51.509,24.89C80.107,199.971,79.839,200,79.574,200z" fill="#3F4A5A"/><path d="M174.436,81.878c-2.056,0-3.723-1.667-3.723-3.721c0-38.991-31.722-70.713-70.713-70.713     c-38.991,0-70.713,31.722-70.713,70.713c0,2.054-1.667,3.721-3.722,3.721c-2.055,0-3.722-1.667-3.722-3.721     C21.843,35.062,56.904,0,100,0s78.158,35.062,78.158,78.158C178.158,80.211,176.491,81.878,174.436,81.878z" fill="#3F4A5A"/><path d="M55.292,187.922c-2.026,0-3.686-1.626-3.72-3.659c-0.034-2.056,1.602-3.748,3.658-3.784     c26.138-0.442,50.881-10.77,69.668-29.082c1.47-1.434,3.83-1.403,5.264,0.068c1.435,1.472,1.405,3.828-0.069,5.264     c-20.15,19.641-46.693,30.718-74.737,31.191C55.334,187.922,55.313,187.922,55.292,187.922z" fill="#3F4A5A"/><path d="M159.548,81.878c-2.056,0-3.723-1.667-3.723-3.721c0-30.783-25.042-55.827-55.825-55.827     c-30.783,0-55.826,25.044-55.826,55.827c0,2.054-1.667,3.721-3.723,3.721c-2.055,0-3.721-1.667-3.721-3.721     c0-34.888,28.382-63.271,63.27-63.271c34.887,0,63.269,28.384,63.269,63.271C163.269,80.211,161.602,81.878,159.548,81.878z" fill="#3F4A5A"/><path d="M53.477,128.398H25.565c-2.055,0-3.722-1.667-3.722-3.723s1.667-3.722,3.722-3.722h27.912     c23.601,0,42.801-19.199,42.801-42.8c0-2.056,1.668-3.722,3.722-3.722c2.055,0,3.723,1.667,3.723,3.722     C103.723,105.859,81.182,128.398,53.477,128.398z" fill="#3F4A5A"/><path d="M53.477,143.284H27.055c-2.056,0-3.723-1.666-3.723-3.721c0-2.056,1.667-3.722,3.723-3.722h26.421     c2.058,0,3.724,1.666,3.724,3.722C57.201,141.618,55.534,143.284,53.477,143.284z" fill="#3F4A5A"/><path d="M53.477,158.172H31.759c-2.055,0-3.722-1.666-3.722-3.722c0-2.055,1.667-3.721,3.722-3.721h21.718     c2.058,0,3.724,1.666,3.724,3.721C57.201,156.506,55.534,158.172,53.477,158.172z" fill="#3F4A5A"/><path d="M53.477,173.06H40.452c-2.055,0-3.721-1.666-3.721-3.722s1.667-3.723,3.721-3.723h13.025     c2.058,0,3.724,1.667,3.724,3.723S55.534,173.06,53.477,173.06z" fill="#3F4A5A"/><path d="M150.332,183.242c-0.289,0-0.579-0.032-0.871-0.103c-7.4-1.774-14.643-4.348-21.529-7.653     c-1.854-0.889-2.635-3.113-1.743-4.966c0.889-1.852,3.112-2.632,4.964-1.744c6.411,3.076,13.154,5.474,20.043,7.124     c1.998,0.479,3.23,2.488,2.752,4.485C153.539,182.095,152.012,183.242,150.332,183.242z" fill="#3F4A5A"/><path d="M161.563,170.264c-0.179,0-0.363-0.013-0.547-0.042c-12.645-1.862-24.583-6.235-35.481-12.995     c-1.748-1.084-2.285-3.379-1.201-5.127c1.084-1.746,3.379-2.278,5.124-1.199c10.029,6.219,21.014,10.244,32.646,11.958     c2.031,0.301,3.438,2.192,3.138,4.225C164.968,168.933,163.379,170.264,161.563,170.264z" fill="#3F4A5A"/><path d="M169.099,156.12c-0.091,0-0.183-0.004-0.276-0.01c-16.786-1.234-33.066-8.057-45.84-19.211     c-1.549-1.353-1.708-3.703-0.355-5.252c1.353-1.548,3.701-1.706,5.251-0.355c11.569,10.102,26.302,16.276,41.489,17.393     c2.049,0.15,3.589,1.936,3.439,3.984C172.663,154.627,171.029,156.12,169.099,156.12z" fill="#3F4A5A"/><path d="M173.303,141.409c-0.024,0-0.046,0-0.07,0c-21.904-0.405-41.741-11.9-53.06-30.752     c-1.057-1.763-0.487-4.049,1.276-5.107c1.761-1.06,4.049-0.488,5.107,1.276c9.99,16.638,27.49,26.784,46.813,27.141     c2.056,0.037,3.691,1.733,3.652,3.79C176.986,139.788,175.326,141.409,173.303,141.409z" fill="#3F4A5A"/><path d="M174.436,126.536c-26.678,0-48.384-21.702-48.384-48.382c0-2.056,1.667-3.722,3.722-3.722     c2.057,0,3.723,1.667,3.723,3.722c0,22.575,18.364,40.939,40.939,40.939c2.056,0,3.723,1.666,3.723,3.722     C178.158,124.87,176.491,126.536,174.436,126.536z" fill="#3F4A5A"/><path d="M174.436,96.764c-10.262,0-18.61-8.35-18.61-18.61c0-2.056,1.667-3.722,3.723-3.722     c2.054,0,3.721,1.667,3.721,3.722c0,6.156,5.01,11.166,11.167,11.166c2.056,0,3.723,1.667,3.723,3.722     S176.491,96.764,174.436,96.764z" fill="#3F4A5A"/><path d="M174.436,111.65c-18.471,0-33.496-15.026-33.496-33.496c0-2.056,1.668-3.722,3.723-3.722     c2.054,0,3.722,1.667,3.722,3.722c0,14.365,11.687,26.052,26.052,26.052c2.056,0,3.723,1.666,3.723,3.724     C178.158,109.983,176.491,111.65,174.436,111.65z" fill="#3F4A5A"/><path d="M53.477,98.626H25.565c-2.055,0-3.722-1.667-3.722-3.721c0-2.056,1.667-3.723,3.722-3.723h27.912     c7.185,0,13.027-5.843,13.027-13.025c0-2.056,1.667-3.723,3.723-3.723s3.722,1.667,3.722,3.723     C73.949,89.443,64.766,98.626,53.477,98.626z" fill="#3F4A5A"/></g></g><rect fill="#F67656" height="14.888" width="195.391" x="2.304" y="87.462"/></g></svg>