<?xml version="1.0" encoding="UTF-8"?><svg version="1.1" viewBox="0 0 512 512" xmlns="http://www.w3.org/2000/svg" xmlns:xlink="http://www.w3.org/1999/xlink"><!--Generated by IJSVG (https://github.com/iconjar/IJSVG)--><g transform="matrix(12.8,0,0,12.8,0,0)"><path fill="none" d="M-1,-1h582v402h-582Z"></path><path fill="#60AB60" fill-rule="evenodd" d="M28.218,30.009c1.963,-1.108 3.178,-2.915 3.178,-5.696c0.185,-4.073 -2.383,-5.924 -4.218,-8.611c-2.31,-3.384 -2.918,-6.306 -3.438,-6.043c-0.101,0.051 0.161,1.668 0.975,3.848c0.198,0.532 1.53,3.683 1.727,4.152c1.624,3.869 2.764,8.536 -0.262,12.116c-0.185,0.219 -0.38,0.423 -0.584,0.612c-1.68,1.57 2.012,-0.033 2.622,-0.378v0Zm-8.9,2.53c-0.094,0.059 -0.193,0.118 -0.294,0.177c-0.893,0.514 -1.688,0.809 -1.777,0.655c-0.088,-0.153 0.564,-0.695 1.457,-1.211c0.7,-0.404 0.88,-0.25 1.875,-0.258c0.837,-0.007 1.201,-0.176 1.953,0.258c0.893,0.515 1.545,1.058 1.457,1.211c-0.089,0.153 -0.884,-0.14 -1.777,-0.656c-0.122,-0.07 -0.24,-0.142 -0.352,-0.212c0.745,0.888 1.199,1.658 1.043,1.798c-0.165,0.147 -0.956,-0.462 -1.81,-1.384c-0.054,1.106 -0.232,1.933 -0.436,1.931c-0.212,-0.002 -0.38,-0.902 -0.404,-2.081c-0.906,1.005 -1.772,1.689 -1.947,1.534c-0.155,-0.139 0.285,-0.889 1.012,-1.762v0Zm-0.361,-26.988c0.244,-1.124 0.873,-0.763 0.821,0.488c-0.1,2.416 -0.267,4.382 -0.477,6.03c0.703,-2.233 1.368,-4.302 1.689,-5.986c0.339,-1.781 1.249,-0.301 1.299,1.416c0.78,5.177 2.008,8.101 2.998,10.459c0.872,2.077 1.555,3.872 1.555,6.232v-0.163h0.001c0,2.688 -0.908,4.579 -2.215,5.793c-0.571,0.531 -1.221,0.936 -1.904,1.221c-0.9,0.377 -1.508,0.599 -2.339,-0.001c-0.2,-0.146 -0.396,-0.323 -0.583,-0.535c-2.151,-1.751 -2.907,-4.253 -2.906,-7.058c-0.016,0.276 -0.024,0.563 -0.024,0.863c0,1.108 0.094,2.098 0.262,2.968c0.242,1.259 0.612,2.288 1.129,3.044c0.831,1.214 0.803,1.117 -0.965,0.81c-0.261,-0.045 -0.506,-0.141 -0.75,-0.222c-1.81,-0.603 -3.946,-1.516 -5.509,-2.804c0.482,0.722 1.081,1.366 1.762,1.941c0.971,0.818 1.015,1.061 -0.754,0.409c-3.516,-1.294 -5.919,-3.637 -5.308,-7.913c0.466,-3.266 2.817,-4.566 5.003,-6.604c4.835,-4.513 2.322,-1.381 -0.182,1.843c-0.771,0.991 -1.291,2.069 -1.573,3.336c1.868,-2.738 5.545,-5.811 7.354,-10.754c0.698,-1.303 1.197,-2.884 1.616,-4.813v0Zm10.499,10.854c2.495,1.844 4.59,3.451 5.039,6.139c0.393,2.357 -0.439,4.263 -2.044,5.681c-0.72,0.636 -2.069,2.084 -0.568,-0.459c0.545,-0.925 0.73,-2.107 0.73,-3.453c0,-3.422 -1.644,-5.304 -3.509,-7.439c-0.893,-0.936 -0.75,-1.284 0.352,-0.469Z"></path></g></svg>