<?xml version="1.0" ?><!DOCTYPE svg  PUBLIC '-//W3C//DTD SVG 1.1//EN'  'http://www.w3.org/Graphics/SVG/1.1/DTD/svg11.dtd'><svg enable-background="new 0 0 200 200" height="200px" id="Layer_1" version="1.1" viewBox="0 0 200 200" width="200px" xml:space="preserve" xmlns="http://www.w3.org/2000/svg" xmlns:xlink="http://www.w3.org/1999/xlink"><g><g><g><g><path d="M141.518,0.009H43.04c-1.487,0-2.974,0.559-4.092,1.695c-1.142,1.124-1.702,2.61-1.702,4.094v86.606      h17.923v17.934H37.246V146.2h17.923v17.94l35.859-0.005V146.2H73.101v-17.933h17.927V146.2h17.934v17.932h35.861v-35.864      h-17.932v-17.93h17.932v-17.93h17.933l0.003-71.158L141.518,0.009z M108.964,110.338H91.025V92.404h17.939V110.338z" fill="#E6E5E5"/></g></g><rect fill="#FFFFFF" height="17.93" width="17.933" x="144.825" y="110.338"/></g><path d="M162.756,21.239h-15.448c-1.484,0-2.967-0.562-4.099-1.691c-1.13-1.133-1.696-2.617-1.696-4.102V0   L162.756,21.239z" fill="#CCCBCA"/><g><rect fill="#3F4A5A" height="6.498" width="83.03" x="58.483" y="47.227"/><rect fill="#3F4A5A" height="6.497" width="83.03" x="58.483" y="60.216"/><rect fill="#3F4A5A" height="6.497" width="83.03" x="58.483" y="73.212"/><rect fill="#3F4A5A" height="6.5" width="41.514" x="58.483" y="21.239"/><rect fill="#3F4A5A" height="6.492" width="83.03" x="58.483" y="34.235"/></g><g><path d="M55.171,199.991H43.035c-1.482,0-2.967-0.563-4.098-1.692c-1.131-1.133-1.696-2.618-1.696-4.097v-12.141    h17.93V199.991z" fill="#F67656"/><rect fill="#F67656" height="17.93" width="17.93" x="91.031" y="110.338"/><rect fill="#F67656" height="17.932" width="17.933" x="144.823" y="146.209"/><rect fill="#F67656" height="17.93" width="17.932" x="126.892" y="164.132"/><rect fill="#F67656" height="17.93" width="17.93" x="73.101" y="164.141"/><rect fill="#F67656" height="17.933" width="17.93" x="37.241" y="128.268"/><rect fill="#F67656" height="17.93" width="17.93" x="91.031" y="182.07"/><path d="M162.756,194.202c0,1.479-0.565,2.961-1.698,4.096c-1.13,1.131-2.615,1.693-4.096,1.693h-12.139v-17.93    h17.933V194.202z" fill="#F67656"/></g></g></svg>