<?xml version="1.0" ?><!DOCTYPE svg  PUBLIC '-//W3C//DTD SVG 1.1//EN'  'http://www.w3.org/Graphics/SVG/1.1/DTD/svg11.dtd'><svg enable-background="new 0 0 136 136" id="Layer_1" version="1.1" viewBox="0 0 136 136" xml:space="preserve" xmlns="http://www.w3.org/2000/svg" xmlns:xlink="http://www.w3.org/1999/xlink"><g><g><circle cx="68" cy="68" fill="#3EB9E3" r="64"/></g><g><g><rect fill="#4F5565" height="19.7" width="23.4" x="56.4" y="96.9"/></g><g><polygon fill="#4F5565" points="90.6,111.3 45.6,111.3 41.1,119.8 95.1,119.8    "/></g><g><rect fill="#646B79" height="78.2" width="114.5" x="10.8" y="23.2"/></g><g><rect fill="#FFFFFF" height="64.8" width="103.2" x="16.4" y="28.8"/></g><g><g><g><path d="M55.2,81.9H40.7V48.4h10.1V37.2h30.9v10.4h12.9v23.9H83.5v13.3H69.2v-4.1H58.2L55.2,81.9z M72.2,81.8       h8.3V68.5h11.1V50.6H78.7V40.2H53.8v11.2H43.7v27.5h14.2v-1.2h14.2V81.8z" fill="#646B79"/></g></g><g><rect fill="#F0582F" height="10.4" width="15.9" x="75.2" y="77.2"/></g><g><rect fill="#F0582F" height="10.4" width="15.9" x="35" y="60.3"/></g><g><rect fill="#73D658" height="10.4" width="15.9" x="85.2" y="54.5"/></g><g><rect fill="#EE4A68" height="8.5" width="12.9" x="74.6" y="34.9"/></g><g><rect fill="#73D658" height="8.5" width="12.9" x="46.7" y="46"/></g><g><rect fill="#F3EB0B" height="7.3" width="11.1" x="51.7" y="76.4"/></g><g><path d="M55,53.2l-0.6-1.3h-2.5l-0.6,1.3h-1.4l2.6-6h1.3l2.6,6H55z M53.1,49l-0.8,1.7h1.5L53.1,49z" fill="#FFFFFF"/></g><g><path d="M83,36.9c0.6,0.5,0.9,1.3,0.9,2.2c0,0.9-0.3,1.7-0.8,2.2c-0.6,0.5-1.4,0.8-2.6,0.8h-2.1v-6h2.1      C81.6,36.1,82.4,36.4,83,36.9z M82,40.5c0.3-0.3,0.5-0.8,0.5-1.3c0-0.6-0.2-1-0.5-1.4s-0.8-0.5-1.5-0.5h-0.7v3.6h0.8      C81.2,40.9,81.7,40.8,82,40.5z" fill="#FFFFFF"/></g><g><path d="M84.1,79.7h1.5l-1.7,2.6l1.8,2.8h-1.5l-1.2-1.8l-1.2,1.8h-1.5l1.8-2.8l-1.7-2.7h1.5l1,1.6L84.1,79.7z" fill="#FFFFFF"/></g><g><g><path d="M43.2,64.7l-1.6,3.2h-0.8l-1.6-3.2v3.7H38v-5.8h1.8l1.5,3.2l1.5-3.2h1.8v5.8h-1.3V64.7z" fill="#FFFFFF"/></g><g><path d="M45.5,62.6h2.4v5.8h-1.3v-4.7h-1.1V62.6z" fill="#FFFFFF"/></g></g><g><g><path d="M55.8,78.1h0.9v4h-0.9l-1.9-2.5v2.5H53v-4h0.8l2,2.6V78.1z" fill="#646B79"/></g><g><path d="M60.6,82.1l-0.4-0.9h-1.7l-0.4,0.9h-1l1.7-4h0.9l1.7,4H60.6z M59.3,79.3l-0.5,1.2h1L59.3,79.3z" fill="#646B79"/></g></g><g><g><path d="M93.3,62.7h-2.6v-6H93c0.4,0,0.8,0,1.1,0.1c0.3,0.1,0.5,0.2,0.7,0.4c0.3,0.3,0.4,0.7,0.4,1       c0,0.5-0.2,0.8-0.5,1c-0.1,0.1-0.2,0.1-0.2,0.2c0,0-0.1,0.1-0.2,0.1c0.4,0.1,0.7,0.2,0.9,0.5c0.2,0.3,0.3,0.6,0.3,0.9       c0,0.4-0.1,0.8-0.4,1.1C94.7,62.5,94.1,62.7,93.3,62.7z M92,59.1h0.6c0.4,0,0.6,0,0.8-0.1c0.2-0.1,0.3-0.3,0.3-0.5       c0-0.3-0.1-0.4-0.2-0.5c-0.2-0.1-0.4-0.1-0.8-0.1H92V59.1z M92,61.6h0.9c0.4,0,0.7,0,0.9-0.1c0.2-0.1,0.3-0.3,0.3-0.6       s-0.1-0.5-0.3-0.5c-0.2-0.1-0.5-0.1-1-0.1H92V61.6z" fill="#FFFFFF"/></g></g></g></g></g></svg>