<?xml version="1.0" ?><!DOCTYPE svg  PUBLIC '-//W3C//DTD SVG 1.1//EN'  'http://www.w3.org/Graphics/SVG/1.1/DTD/svg11.dtd'><svg enable-background="new 0 0 200 200" height="200px" id="Layer_1" version="1.1" viewBox="0 0 200 200" width="200px" xml:space="preserve" xmlns="http://www.w3.org/2000/svg" xmlns:xlink="http://www.w3.org/1999/xlink"><g><g><g><polygon fill="#D9D8D7" points="120.793,124.625 112.133,133.285 88.971,110.127 97.632,101.454    "/><rect fill="#D9D8D7" height="12.246" width="35.132" x="126.632" y="127.286"/></g></g><g><path d="M130.718,133.002c0,5.641-4.566,10.21-10.21,10.21c-5.64,0-10.21-4.569-10.21-10.21    c0-5.643,4.57-10.208,10.21-10.208C126.151,122.794,130.718,127.359,130.718,133.002z" fill="#3F4A5A"/><path d="M124.194,133.002c0,2.027-1.646,3.684-3.687,3.684c-2.037,0-3.682-1.656-3.682-3.684    c0-2.038,1.645-3.685,3.682-3.685C122.548,129.317,124.194,130.964,124.194,133.002z" fill="#FFFFFF"/></g><g><path d="M161.19,133.411c0,18.043,14.631,32.674,32.686,32.674v-65.353    C175.821,100.732,161.19,115.366,161.19,133.411z" fill="#EFEFEF"/><path d="M193.876,99.979c0-0.852,0.318-1.708,0.977-2.356c0.646-0.658,1.496-0.977,2.355-0.977H200v73.525h-2.792    c-0.859,0-1.709-0.318-2.355-0.977c-0.658-0.646-0.977-1.496-0.977-2.355V99.979z" fill="#3F4A5A"/></g><g><rect fill="#3F4A5A" height="28.591" transform="matrix(0.7071 -0.7071 0.7071 0.7071 -40.3009 79.6267)" width="129.082" x="11.426" y="74.165"/><rect fill="#EFEFEF" height="49.013" transform="matrix(0.7071 -0.7071 0.7071 0.7071 -40.3002 79.6263)" width="116.831" x="17.553" y="63.954"/><path d="M0,129.762h34.657l73.948-73.94c2.215-2.224,3.586-5.281,3.586-8.672c0-3.38-1.371-6.447-3.586-8.66    l-8.659-8.662L0,129.762z" fill="#D9D8D7"/></g></g></svg>