<?xml version="1.0" encoding="utf-8"?>
<!-- Generator: Adobe Illustrator 17.0.0, SVG Export Plug-In . SVG Version: 6.00 Build 0)  -->
<!DOCTYPE svg PUBLIC "-//W3C//DTD SVG 1.1//EN" "http://www.w3.org/Graphics/SVG/1.1/DTD/svg11.dtd">
<svg version="1.1" id="Layer_1" xmlns="http://www.w3.org/2000/svg" xmlns:xlink="http://www.w3.org/1999/xlink" x="0px" y="0px"
	 width="480.543px" height="99.582px" viewBox="0 0 480.543 99.582" enable-background="new 0 0 480.543 99.582"
	 xml:space="preserve">
<g>
	<g>
		<g>
			<path fill="#1C75BC" d="M104.973,82.276l3.089-18.366c0.082-0.487-0.103-0.982-0.483-1.296c-0.382-0.315-0.901-0.403-1.363-0.229
				L88.764,68.89c-0.463,0.173-0.798,0.579-0.881,1.066c-0.082,0.487,0.103,0.982,0.483,1.296l3.648,3.012
				c-7.332,6.763-17.531,9.462-27.257,7.214l17.248-44.633c6.359,0.451,12.456-3.354,14.78-9.367
				c2.924-7.567-0.852-16.102-8.419-19.026s-16.102,0.854-19.026,8.42c-2.324,6.014-0.37,12.929,4.64,16.872L56.733,78.378
				c-8.711-4.876-14.444-13.733-15.322-23.668l4.726,0.224c0.493,0.023,0.962-0.218,1.228-0.635s0.293-0.943,0.066-1.381
				c0,0-9.21-17.276-9.704-17.299c-0.493-0.023-11.293,16.306-11.293,16.306c-0.267,0.416-0.292,0.942-0.066,1.381
				c0.227,0.439,0.67,0.724,1.163,0.747l5.227,0.247c0.875,15.187,10.486,28.418,24.776,33.94
				c14.289,5.522,30.301,2.192,41.16-8.459l4.034,3.332c0.382,0.315,0.902,0.402,1.363,0.229
				C104.556,83.169,104.892,82.763,104.973,82.276z M85.268,16.477c3.142,1.214,4.71,4.759,3.496,7.901
				c-1.214,3.142-4.758,4.711-7.9,3.497c-3.143-1.215-4.711-4.759-3.496-7.901C78.581,16.831,82.125,15.262,85.268,16.477z"/>
		</g>
	</g>
	<g>
		<g>
			<g>
				<path fill="#09AEFF" d="M129.681,49.456c-8.289-1.45-12.434-6.17-12.434-14.162V18.846c0-7.173-4.219-10.873-12.657-11.096V0
					c6.839,0,12.22,1.617,16.142,4.851c3.921,3.234,5.882,7.694,5.882,13.382v17.062c0,3.606,1.096,6.254,3.29,7.945
					c2.193,1.692,5.705,2.574,10.538,2.648v7.862c-4.536,0-7.973,0.828-10.315,2.481c-2.342,1.654-3.513,4.414-3.513,8.28v16.894
					c0,5.687-1.905,10.12-5.715,13.298c-3.811,3.178-9.247,4.804-16.309,4.879v-7.806c4.126-0.075,7.267-0.967,9.423-2.676
					c2.155-1.71,3.234-4.461,3.234-8.252v-16.56c0-4.238,1.022-7.471,3.067-9.702c2.044-2.23,5.166-3.717,9.367-4.461V49.456z"/>
			</g>
		</g>
		<g>
			<g>
				<path fill="#09AEFF" d="M10.761,50.125c8.289,1.45,12.434,6.17,12.434,14.162v16.448c0,7.173,4.219,10.873,12.657,11.096v7.75
					c-6.839,0-12.22-1.617-16.142-4.851c-3.921-3.234-5.882-7.694-5.882-13.382V64.288c0-3.606-1.096-6.254-3.29-7.945
					C8.345,54.65,4.833,53.768,0,53.694l0-7.862c4.536,0,7.973-0.828,10.315-2.481c2.342-1.654,3.513-4.414,3.513-8.28V18.177
					c0-5.687,1.905-10.12,5.715-13.298C23.354,1.701,28.79,0.075,35.852,0v7.806c-4.126,0.075-7.267,0.967-9.423,2.676
					c-2.155,1.71-3.234,4.461-3.234,8.252v16.56c0,4.238-1.022,7.471-3.067,9.702c-2.044,2.23-5.166,3.717-9.367,4.461V50.125z"/>
			</g>
		</g>
	</g>
	<g>
		<path fill="#09AEFF" d="M154.747,45.299V3.841h7.98v41.458H154.747z"/>
		<path fill="#09AEFF" d="M177.067,39.24h17.279l-0.84,6.06h-25.139v-5.64c13.859-13.68,17.159-17.819,17.159-23.339
			c0-3.899-2.34-6.06-5.82-6.06c-3.12,0-5.28,1.319-7.74,4.26l-4.74-3.72c3.24-4.2,7.56-6.6,13.14-6.6
			c8.279,0,13.079,5.039,13.079,11.579C193.446,22.38,189.606,27.781,177.067,39.24z"/>
		<path fill="#09AEFF" d="M213.487,30.84h-4.8v14.459h-7.979V3.841h12.059c10.68,0,16.979,4.26,16.979,13.199
			C229.746,26.76,223.086,30.84,213.487,30.84z M213.067,9.66h-4.38v15.24h4.62c4.92,0,8.16-1.92,8.16-7.86
			C221.466,11.821,218.286,9.66,213.067,9.66z"/>
		<path fill="#1C75BC" d="M165.787,94.2c-6.72,0-11.82-2.34-15.24-5.7l4.26-4.68c2.94,2.7,6.42,4.26,10.68,4.26
			c4.44,0,7.68-2.16,7.68-6.18c0-3.42-1.8-5.04-8.1-7.02c-8.879-2.7-12.54-6.18-12.54-12.479c0-7.02,6.12-11.46,14.22-11.46
			c6.06,0,10.139,1.801,13.679,5.101l-4.02,4.56c-2.82-2.521-5.76-3.6-9.12-3.6c-3.84,0-6.54,1.68-6.54,4.919
			c0,3,1.5,4.32,8.399,6.48c7.26,2.34,12.3,5.279,12.3,13.02C181.447,88.919,175.567,94.2,165.787,94.2z"/>
		<path fill="#1C75BC" d="M193.867,61.561v22.019c0,2.46,0.48,4.681,3.48,4.681c2.939,0,4.919-1.62,6.6-3.96V61.561h7.68v31.738
			h-6.66l-0.42-3.96c-2.34,3.181-5.879,4.86-9.6,4.86c-6.12,0-8.759-3.72-8.759-9.66V61.561H193.867z"/>
		<path fill="#1C75BC" d="M219.607,93.299V61.561h6.66l0.54,3.96c2.7-3.24,5.88-4.86,9.3-4.86c4.08,0,6.54,1.74,7.68,4.86
			c2.7-3.12,6.12-4.86,9.479-4.86c5.82,0,8.4,3.48,8.4,9.42v23.219h-7.68V71.1c0-3.359-0.96-4.68-3.42-4.68
			c-2.28,0-4.5,1.92-6.06,4.38v22.499h-7.68V70.981c0-3.301-1.02-4.561-3.42-4.561c-2.28,0-4.56,1.92-6.12,4.38v22.499H219.607z"/>
		<path fill="#1C75BC" d="M269.407,93.299V61.561h6.659l0.54,3.96c2.7-3.24,5.88-4.86,9.3-4.86c4.08,0,6.54,1.74,7.68,4.86
			c2.7-3.12,6.12-4.86,9.48-4.86c5.819,0,8.399,3.48,8.399,9.42v23.219h-7.68V71.1c0-3.359-0.96-4.68-3.42-4.68
			c-2.28,0-4.5,1.92-6.061,4.38v22.499h-7.68V70.981c0-3.301-1.02-4.561-3.42-4.561c-2.279,0-4.56,1.92-6.119,4.38v22.499H269.407z"
			/>
		<path fill="#1C75BC" d="M325.026,79.8c0.6,6,3.54,8.579,7.8,8.579c2.7,0,4.979-0.779,7.68-2.939l3.3,4.62
			c-3,2.46-6.84,4.14-11.46,4.14c-10.199,0-15.299-6.899-15.299-16.739c0-9.479,5.1-16.8,14.279-16.8c8.699,0,13.8,6,13.8,16.02
			c0,1.021-0.12,2.28-0.181,3.12H325.026z M324.967,74.821h12.539c-0.06-5.46-1.74-8.7-6.12-8.7
			C327.726,66.12,325.386,68.821,324.967,74.821z"/>
		<path fill="#1C75BC" d="M350.586,93.299V61.561h6.779l0.72,6c1.62-4.32,4.5-6.84,8.16-6.84c1.14,0,2.16,0.12,3.18,0.42
			l-1.32,7.439c-0.96-0.24-1.739-0.36-2.819-0.36c-3.9,0-6,3.601-7.02,7.86v17.219H350.586z"/>
		<path fill="#1C75BC" d="M397.684,93.299h-11.339V51.841h10.619c10.5,0,20.819,3.359,20.819,20.52
			C417.784,89.339,407.524,93.299,397.684,93.299z M398.344,57.781h-4.02V87.36h4.02c5.88,0,11.16-2.939,11.16-14.999
			C409.505,59.881,403.984,57.781,398.344,57.781z"/>
		<path fill="#1C75BC" d="M429.724,79.8c0.6,6,3.54,8.579,7.8,8.579c2.7,0,4.979-0.779,7.68-2.939l3.3,4.62
			c-3,2.46-6.84,4.14-11.46,4.14c-10.199,0-15.299-6.899-15.299-16.739c0-9.479,5.1-16.8,14.279-16.8c8.699,0,13.8,6,13.8,16.02
			c0,1.021-0.12,2.28-0.181,3.12H429.724z M429.665,74.821h12.539c-0.06-5.46-1.74-8.7-6.12-8.7
			C432.425,66.12,430.085,68.821,429.665,74.821z"/>
		<path fill="#1C75BC" d="M470.043,93.299h-8.999l-10.56-31.738h8.279l6.78,25.259h0.239l6.9-25.259h7.859L470.043,93.299z"/>
	</g>
</g>
</svg>
