<svg xmlns="http://www.w3.org/2000/svg" viewBox="0 0 486 560">
<style><![CDATA[.B{font-family:Arial}.C{font-size:24px}]]></style>
<g fill="#fff" stroke="#000" stroke-width="2">
<path d="M23.4 383.8h360v60h-360zm0-60h180v60h-180zm180 0h180v60h-180zm-180-60h180v60h-180zm180 0h180v60h-180zm-180-60h360v60h-360zm0 0"/>
<path d="M23.4 143.8h360v60h-360zm0 0"/>
<path d="M23.4 83.8h360v60h-360zm0-60h180v60h-180zm180 0h180v60h-180zm0 0"/></g>
<text xml:space="preserve" x="36.6" y="37.2" class="B C"><tspan x="59" y="60">Streaming</tspan></text>
<text xml:space="preserve" x="211.8" y="37.1" class="B C"><tspan x="234.2" y="59.9">Datagrams</tspan></text>
<text xml:space="preserve" x="153.7" y="99.6" class="B C"><tspan x="176.1" y="122.4">I2CP</tspan></text>
<text xml:space="preserve" x="89.8" y="157.2" class="B C"><tspan x="112.2" y="180">Garlic Encryption</tspan></text>
<text xml:space="preserve" x="51.4" y="279.6" class="B C"><tspan x="73.8" y="302.4">NTCP2</tspan></text><text xml:space="preserve" x="239.7" y="279.6" class="B C"><tspan x="262.1" y="302.4">SSU2</tspan></text>
<text xml:space="preserve" x="67.2" y="339.6" class="B C"><tspan x="89.6" y="362.4">TCP</tspan></text>
<text xml:space="preserve" x="245.2" y="339.4" class="B C"><tspan x="267.6" y="362.2">UDP</tspan></text>
<text xml:space="preserve" x="169.1" y="399.6" class="B C"><tspan x="191.5" y="422.4">IP</tspan></text>
<text xml:space="preserve" x="86.9" y="217.1" class="B C"><tspan x="109.3" y="239.9">Tunnel Messages</tspan></text>
</svg>