<?xml version="1.0" encoding="UTF-8" standalone="no"?>
<svg
   xmlns:dc="http://purl.org/dc/elements/1.1/"
   xmlns:cc="http://creativecommons.org/ns#"
   xmlns:rdf="http://www.w3.org/1999/02/22-rdf-syntax-ns#"
   xmlns:svg="http://www.w3.org/2000/svg"
   xmlns="http://www.w3.org/2000/svg"
   xmlns:sodipodi="http://sodipodi.sourceforge.net/DTD/sodipodi-0.dtd"
   xmlns:inkscape="http://www.inkscape.org/namespaces/inkscape"
   width="7cm"
   height="7cm"
   viewBox="102 159 129 139"
   id="svg3091"
   version="1.1"
   inkscape:version="0.47pre4 r22446"
   sodipodi:docname="sjabloon.svg">
  <metadata
     id="metadata3257">
    <rdf:RDF>
      <cc:Work
         rdf:about="">
        <dc:format>image/svg+xml</dc:format>
        <dc:type
           rdf:resource="http://purl.org/dc/dcmitype/StillImage" />
        <dc:title></dc:title>
      </cc:Work>
    </rdf:RDF>
  </metadata>
  <defs
     id="defs3255">
    <inkscape:perspective
       sodipodi:type="inkscape:persp3d"
       inkscape:vp_x="0 : 124.01575 : 1"
       inkscape:vp_y="0 : 1000 : 0"
       inkscape:vp_z="248.03149 : 124.01575 : 1"
       inkscape:persp3d-origin="124.01575 : 82.677165 : 1"
       id="perspective3259" />
  </defs>
  <sodipodi:namedview
     pagecolor="#ffffff"
     bordercolor="#666666"
     borderopacity="1"
     objecttolerance="10"
     gridtolerance="10"
     guidetolerance="10"
     inkscape:pageopacity="0"
     inkscape:pageshadow="2"
     inkscape:window-width="1680"
     inkscape:window-height="976"
     id="namedview3253"
     showgrid="false"
     inkscape:zoom="0.95149207"
     inkscape:cx="124.01575"
     inkscape:cy="124.01575"
     inkscape:window-x="0"
     inkscape:window-y="25"
     inkscape:window-maximized="1"
     inkscape:current-layer="svg3091" />
  <g
     id="g3093">
    <path
       style="fill: #b7b79d"
       d="M 170.897 186.814 L 210.865,186.814 L 210.865,194.2 L 170.897,194.2 L 170.897,186.814z"
       id="path3095" />
    <path
       style="fill: none; fill-opacity:0; stroke-width: 0.02; stroke: #494936"
       d="M 170.897 186.814 L 210.865,186.814 L 210.865,194.2 L 170.897,194.2 L 170.897,186.814"
       id="path3097" />
    <path
       style="fill: #c9c9b6"
       d="M 170.897 186.814 L 175.135,182.796 L 215.103,182.796 L 210.865,186.814 L 170.897,186.814z"
       id="path3099" />
    <path
       style="fill: none; fill-opacity:0; stroke-width: 0.02; stroke: #494936"
       d="M 170.897 186.814 L 175.135,182.796 L 215.103,182.796 L 210.865,186.814 L 170.897,186.814"
       id="path3101" />
    <path
       style="fill: none; fill-opacity:0; stroke-width: 2.12; stroke: #000000"
       d="M 208.63 190.176 L 199.039,190.176"
       id="path3103" />
    <path
       style="fill: #7a7a5a"
       d="M 210.865 194.2 L 215.103,189.95 L 215.103,182.796 L 210.865,186.814 L 210.865,194.2z"
       id="path3105" />
    <path
       style="fill: none; fill-opacity:0; stroke-width: 0.02; stroke: #494936"
       d="M 210.865 194.2 L 215.103,189.95 L 215.103,182.796 L 210.865,186.814 L 210.865,194.2"
       id="path3107" />
    <path
       style="fill: #c9c9b6"
       d="M 171.123 198.885 L 175.582,193.3 L 206.401,193.3 L 201.942,198.885 L 171.123,198.885z"
       id="path3109" />
    <path
       style="fill: none; fill-opacity:0; stroke-width: 0.02; stroke: #494936"
       d="M 171.123 198.885 L 175.582,193.3 L 206.401,193.3 L 201.942,198.885 L 171.123,198.885"
       id="path3111" />
    <path
       style="fill: #7a7a5a"
       d="M 201.942 200 L 206.401,195.315 L 206.401,193.3 L 201.942,198.885 L 201.942,200z"
       id="path3113" />
    <path
       style="fill: none; fill-opacity:0; stroke-width: 0.02; stroke: #494936"
       d="M 201.942 200 L 206.401,195.315 L 206.401,193.3 L 201.942,198.885 L 201.942,200"
       id="path3115" />
    <path
       style="fill: #b7b79d"
       d="M 171.123 198.885 L 201.942,198.885 L 201.942,200 L 171.123,200 L 171.123,198.885z"
       id="path3117" />
    <path
       style="fill: none; fill-opacity:0; stroke-width: 0.02; stroke: #494936"
       d="M 171.123 198.885 L 201.942,198.885 L 201.942,200 L 171.123,200 L 171.123,198.885"
       id="path3119" />
    <path
       style="fill: #000000"
       d="M 176.923 185.926 L 180.28,182.796 L 208.63,182.796 L 205.513,185.926 L 176.923,185.926z"
       id="path3121" />
    <path
       style="fill: none; fill-opacity:0; stroke-width: 0.02; stroke: #000000"
       d="M 176.923 185.926 L 180.28,182.796 L 208.63,182.796 L 205.513,185.926 L 176.923,185.926"
       id="path3123" />
    <path
       style="fill: #c9c9b6"
       d="M 176.696 162.903 L 179.832,160 L 208.195,160 L 205.059,162.903 L 176.696,162.903z"
       id="path3125" />
    <path
       style="fill: none; fill-opacity:0; stroke-width: 0.02; stroke: #494936"
       d="M 176.696 162.903 L 179.832,160 L 208.195,160 L 205.059,162.903 L 176.696,162.903"
       id="path3127" />
    <path
       style="fill: #b7b79d"
       d="M 176.696 162.903 L 205.286,162.903 L 205.286,185.472 L 176.696,185.472 L 176.696,162.903z"
       id="path3129" />
    <path
       style="fill: none; fill-opacity:0; stroke-width: 0.02; stroke: #494936"
       d="M 176.696 162.903 L 205.273,162.903 L 205.273,185.466 L 176.696,185.466 L 176.696,162.903"
       id="path3131" />
    <path
       style="fill: #ffffff"
       d="M 179.152 165.8 L 202.824,165.8 L 202.824,183.237 L 179.152,183.237 L 179.152,165.8z"
       id="path3133" />
    <path
       style="fill: none; fill-opacity:0; stroke-width: 0.02; stroke: #494936"
       d="M 179.152 165.8 L 202.824,165.8 L 202.824,183.23 L 179.152,183.23 L 179.152,165.8"
       id="path3135" />
    <path
       style="fill: #7a7a5a"
       d="M 205.059 185.258 L 208.195,182.128 L 208.195,160 L 205.059,162.903 L 205.059,185.258z"
       id="path3137" />
    <path
       style="fill: none; fill-opacity:0; stroke-width: 0.02; stroke: #494936"
       d="M 205.059 185.258 L 208.195,182.128 L 208.195,160 L 205.059,162.903 L 205.059,185.258"
       id="path3139" />
  </g>
  <g
     id="g3141">
    <path
       style="fill: #0078aa"
       d="M 231.384 274.56 L 231.356,274.24 L 231.288,273.913 L 231.172,273.586 L 231.002,273.273 L 230.791,272.945 L 230.532,272.639 L 230.232,272.325 L 229.871,272.026 L 229.483,271.733 L 229.046,271.446 L 228.563,271.153 L 228.045,270.888 L 227.486,270.622 L 226.893,270.37 L 226.253,270.131 L 225.592,269.899 L 224.89,269.681 L 224.154,269.477 L 223.397,269.279 L 222.607,269.102 L 221.796,268.939 L 220.951,268.789 L 220.092,268.639 L 219.22,268.516 L 218.328,268.421 L 217.421,268.332 L 216.494,268.257 L 215.575,268.203 L 214.641,268.162 L 213.687,268.128 L 212.747,268.128 L 212.747,268.128 L 211.806,268.128 L 210.859,268.162 L 209.925,268.203 L 208.999,268.257 L 208.079,268.332 L 207.172,268.421 L 206.273,268.516 L 205.401,268.639 L 204.542,268.789 L 203.704,268.939 L 202.886,269.102 L 202.096,269.279 L 201.339,269.477 L 200.603,269.681 L 199.908,269.899 L 199.241,270.131 L 198.607,270.37 L 198.007,270.622 L 197.448,270.888 L 196.931,271.153 L 196.447,271.446 L 196.011,271.733 L 195.622,272.026 L 195.268,272.325 L 194.968,272.639 L 194.709,272.945 L 194.491,273.273 L 194.328,273.586 L 194.205,273.913 L 194.137,274.24 L 194.116,274.56 L 194.116,274.56 L 194.137,274.894 L 194.205,275.221 L 194.328,275.542 L 194.491,275.862 L 194.709,276.182 L 194.968,276.496 L 195.268,276.802 L 195.622,277.109 L 196.011,277.402 L 196.447,277.688 L 196.931,277.968 L 197.448,278.247 L 198.007,278.513 L 198.607,278.758 L 199.241,278.997 L 199.908,279.235 L 200.603,279.453 L 201.339,279.658 L 202.096,279.842 L 202.886,280.032 L 203.704,280.189 L 204.542,280.346 L 205.401,280.482 L 206.273,280.605 L 207.172,280.7 L 208.079,280.802 L 208.999,280.864 L 209.925,280.925 L 210.859,280.973 L 211.806,280.993 L 212.747,281 L 212.747,281 L 213.687,280.993 L 214.641,280.973 L 215.575,280.925 L 216.494,280.864 L 217.421,280.802 L 218.328,280.7 L 219.22,280.605 L 220.092,280.482 L 220.951,280.346 L 221.796,280.189 L 222.607,280.032 L 223.397,279.842 L 224.154,279.658 L 224.89,279.453 L 225.592,279.235 L 226.253,278.997 L 226.893,278.758 L 227.486,278.513 L 228.045,278.247 L 228.563,277.968 L 229.046,277.688 L 229.483,277.402 L 229.871,277.109 L 230.232,276.802 L 230.532,276.496 L 230.791,276.182 L 231.002,275.862 L 231.172,275.542 L 231.288,275.221 L 231.356,274.894 L 231.384,274.56z"
       id="path3143" />
    <path
       style="fill: none; fill-opacity:0; stroke-width: 0.02; stroke: #aae6ff"
       d="M 231.172 274.458 L 231.138,274.138 L 231.084,273.818 L 230.954,273.497 L 230.791,273.191 L 230.573,272.864 L 230.321,272.557 L 230.021,272.264 L 229.667,271.964 L 229.271,271.664 L 228.842,271.385 L 228.365,271.112 L 227.847,270.847 L 227.295,270.581 L 226.702,270.336 L 226.069,270.09 L 225.401,269.872 L 224.706,269.654 L 223.977,269.45 L 223.227,269.266 L 222.443,269.075 L 221.626,268.925 L 220.801,268.768 L 219.949,268.639 L 219.084,268.509 L 218.198,268.414 L 217.285,268.332 L 216.379,268.257 L 215.452,268.203 L 214.525,268.162 L 213.578,268.128 L 212.644,268.128 L 212.644,268.128 L 211.704,268.128 L 210.764,268.162 L 209.83,268.203 L 208.91,268.257 L 207.997,268.332 L 207.091,268.414 L 206.205,268.509 L 205.326,268.639 L 204.474,268.768 L 203.656,268.925 L 202.839,269.075 L 202.062,269.266 L 201.312,269.45 L 200.583,269.654 L 199.881,269.872 L 199.22,270.09 L 198.586,270.336 L 197.994,270.581 L 197.435,270.847 L 196.924,271.112 L 196.447,271.385 L 196.011,271.664 L 195.615,271.964 L 195.268,272.264 L 194.968,272.557 L 194.709,272.864 L 194.491,273.191 L 194.328,273.497 L 194.212,273.818 L 194.144,274.138 L 194.137,274.213"
       id="path3145" />
    <path
       style="fill: none; fill-opacity:0; stroke-width: 0.02; stroke: #aae6ff"
       d="M 194.137 274.697 L 194.144,274.779 L 194.212,275.099 L 194.328,275.412 L 194.491,275.733 L 194.709,276.046 L 194.968,276.353 L 195.268,276.652 L 195.615,276.945 L 196.011,277.239 L 196.447,277.538 L 196.924,277.797 L 197.435,278.077 L 197.994,278.336 L 198.586,278.588 L 199.22,278.819 L 199.881,279.051 L 200.583,279.262 L 201.312,279.46 L 202.062,279.651 L 202.839,279.835 L 203.656,279.991 L 204.474,280.141 L 205.326,280.271 L 206.205,280.394 L 207.091,280.489 L 207.997,280.584 L 208.91,280.652 L 209.83,280.7 L 210.764,280.755 L 211.704,280.782 L 212.644,280.782 L 212.644,280.782 L 213.578,280.782 L 214.525,280.755 L 215.452,280.7 L 216.379,280.652 L 217.285,280.584 L 218.198,280.489 L 219.084,280.394 L 219.949,280.271 L 220.801,280.141 L 221.626,279.991 L 222.443,279.835 L 223.227,279.651 L 223.977,279.46 L 224.706,279.262 L 225.401,279.051 L 226.069,278.819 L 226.702,278.588 L 227.295,278.336 L 227.847,278.077 L 228.365,277.797 L 228.842,277.538 L 229.271,277.239 L 229.667,276.945 L 230.021,276.652 L 230.321,276.353 L 230.573,276.046 L 230.791,275.733 L 230.954,275.412 L 231.084,275.099 L 231.138,274.779 L 231.172,274.458"
       id="path3147" />
    <path
       style="fill: #0078aa"
       d="M 194.116 247.555 L 194.116,274.683 L 231.172,274.683 L 231.172,247.555 L 194.116,247.555z"
       id="path3149" />
    <path
       style="fill: #00b4ff"
       d="M 231.384 247.433 L 231.356,247.112 L 231.288,246.785 L 231.172,246.458 L 231.002,246.145 L 230.791,245.818 L 230.532,245.511 L 230.232,245.204 L 229.871,244.898 L 229.483,244.605 L 229.046,244.319 L 228.563,244.026 L 228.045,243.76 L 227.486,243.494 L 226.893,243.249 L 226.253,242.997 L 225.592,242.772 L 224.89,242.554 L 224.154,242.349 L 223.397,242.152 L 222.607,241.974 L 221.796,241.804 L 220.951,241.661 L 220.092,241.511 L 219.22,241.402 L 218.328,241.293 L 217.421,241.204 L 216.494,241.129 L 215.575,241.082 L 214.641,241.034 L 213.687,241 L 212.747,241 L 212.747,241 L 211.806,241 L 210.859,241.034 L 209.925,241.082 L 208.999,241.129 L 208.079,241.204 L 207.172,241.293 L 206.273,241.402 L 205.401,241.511 L 204.542,241.661 L 203.704,241.804 L 202.886,241.974 L 202.096,242.152 L 201.339,242.349 L 200.603,242.554 L 199.908,242.772 L 199.241,242.997 L 198.607,243.249 L 198.007,243.494 L 197.448,243.76 L 196.931,244.026 L 196.447,244.319 L 196.011,244.605 L 195.622,244.898 L 195.268,245.204 L 194.968,245.511 L 194.709,245.818 L 194.491,246.145 L 194.328,246.458 L 194.205,246.785 L 194.137,247.112 L 194.116,247.433 L 194.116,247.433 L 194.137,247.767 L 194.205,248.094 L 194.328,248.407 L 194.491,248.734 L 194.709,249.048 L 194.968,249.368 L 195.268,249.681 L 195.622,249.981 L 196.011,250.274 L 196.447,250.56 L 196.931,250.84 L 197.448,251.119 L 198.007,251.385 L 198.607,251.637 L 199.241,251.869 L 199.908,252.107 L 200.603,252.325 L 201.339,252.53 L 202.096,252.721 L 202.886,252.905 L 203.704,253.061 L 204.542,253.218 L 205.401,253.354 L 206.273,253.477 L 207.172,253.586 L 208.079,253.675 L 208.999,253.736 L 209.925,253.804 L 210.859,253.845 L 211.806,253.865 L 212.747,253.879 L 212.747,253.879 L 213.687,253.865 L 214.641,253.845 L 215.575,253.804 L 216.494,253.736 L 217.421,253.675 L 218.328,253.586 L 219.22,253.477 L 220.092,253.354 L 220.951,253.218 L 221.796,253.061 L 222.607,252.905 L 223.397,252.721 L 224.154,252.53 L 224.89,252.325 L 225.592,252.107 L 226.253,251.869 L 226.893,251.637 L 227.486,251.385 L 228.045,251.119 L 228.563,250.84 L 229.046,250.56 L 229.483,250.274 L 229.871,249.981 L 230.232,249.681 L 230.532,249.368 L 230.791,249.048 L 231.002,248.734 L 231.172,248.407 L 231.288,248.094 L 231.356,247.767 L 231.384,247.433z"
       id="path3151" />
    <path
       style="fill: none; fill-opacity:0; stroke-width: 0.02; stroke: #aae6ff"
       d="M 231.172 247.33 L 231.138,247.003 L 231.084,246.69 L 230.954,246.37 L 230.791,246.063 L 230.573,245.736 L 230.321,245.429 L 230.021,245.129 L 229.667,244.83 L 229.271,244.543 L 228.842,244.257 L 228.365,243.978 L 227.847,243.719 L 227.295,243.453 L 226.702,243.208 L 226.069,242.956 L 225.401,242.744 L 224.706,242.526 L 223.977,242.322 L 223.227,242.138 L 222.443,241.954 L 221.626,241.797 L 220.801,241.641 L 219.949,241.511 L 219.084,241.388 L 218.198,241.293 L 217.285,241.204 L 216.379,241.123 L 215.452,241.082 L 214.525,241.034 L 213.578,241 L 212.644,241"
       id="path3153" />
    <path
       style="fill: none; fill-opacity:0; stroke-width: 0.02; stroke: #aae6ff"
       d="M 212.644 241 L 211.704,241 L 210.764,241.034 L 209.83,241.082 L 208.91,241.123 L 207.997,241.204 L 207.091,241.293 L 206.205,241.388 L 205.326,241.511 L 204.474,241.641 L 203.656,241.797 L 202.839,241.954 L 202.062,242.138 L 201.312,242.322 L 200.583,242.526 L 199.881,242.744 L 199.22,242.956 L 198.586,243.208 L 197.994,243.453 L 197.435,243.719 L 196.924,243.978 L 196.447,244.257 L 196.011,244.543 L 195.615,244.83 L 195.268,245.129 L 194.968,245.429 L 194.709,245.736 L 194.491,246.063 L 194.328,246.37 L 194.212,246.69 L 194.144,247.003 L 194.137,247.085"
       id="path3155" />
    <path
       style="fill: none; fill-opacity:0; stroke-width: 0.02; stroke: #aae6ff"
       d="M 194.137 247.576 L 194.144,247.651 L 194.212,247.971 L 194.328,248.278 L 194.491,248.605 L 194.709,248.918 L 194.968,249.225 L 195.268,249.525 L 195.615,249.818 L 196.011,250.111 L 196.447,250.411 L 196.924,250.67 L 197.435,250.949 L 197.994,251.208 L 198.586,251.46 L 199.22,251.692 L 199.881,251.923 L 200.583,252.135 L 201.312,252.332 L 202.062,252.523 L 202.839,252.707 L 203.656,252.871 L 204.474,253.007 L 205.326,253.143 L 206.205,253.266 L 207.091,253.375 L 207.997,253.457 L 208.91,253.525 L 209.83,253.586 L 210.764,253.627 L 211.704,253.647 L 212.644,253.654 L 212.644,253.654 L 213.578,253.647 L 214.525,253.627 L 215.452,253.586 L 216.379,253.525 L 217.285,253.457 L 218.198,253.375 L 219.084,253.266 L 219.949,253.143 L 220.801,253.007 L 221.626,252.871 L 222.443,252.707 L 223.227,252.523 L 223.977,252.332 L 224.706,252.135 L 225.401,251.923 L 226.069,251.692 L 226.702,251.46 L 227.295,251.208 L 227.847,250.949 L 228.365,250.67 L 228.842,250.411 L 229.271,250.111 L 229.667,249.818 L 230.021,249.525 L 230.321,249.225 L 230.573,248.918 L 230.791,248.605 L 230.954,248.278 L 231.084,247.971 L 231.138,247.651 L 231.172,247.33"
       id="path3157" />
    <path
       style="fill: #000000"
       d="M 213.094 245.974 L 215.806,246.874 L 222.355,244.155 L 225.292,245.068 L 223.704,242.813 L 216.038,242.813 L 219.193,243.487 L 213.094,245.974z"
       id="path3159" />
    <path
       style="fill: #000000"
       d="M 211.956 248.455 L 209.251,247.555 L 202.927,250.274 L 199.772,249.354 L 201.353,251.855 L 209.251,251.855 L 205.871,250.949 L 211.956,248.455z"
       id="path3161" />
    <path
       style="fill: #000000"
       d="M 200.447 243.487 L 203.145,242.574 L 209.701,245.068 L 212.644,244.394 L 211.063,246.649 L 203.377,246.649 L 206.532,245.974 L 200.447,243.487z"
       id="path3163" />
    <path
       style="fill: #000000"
       d="M 224.835 251.174 L 222.123,252.073 L 215.806,249.354 L 212.644,250.274 L 214.218,248.005 L 222.123,248.005 L 218.743,248.693 L 224.835,251.174z"
       id="path3165" />
    <path
       style="fill: #ffffff"
       d="M 213.319 246.193 L 216.038,247.092 L 222.573,244.394 L 225.517,245.3 L 223.936,243.037 L 216.263,243.037 L 219.418,243.705 L 213.319,246.193z"
       id="path3167" />
    <path
       style="fill: #ffffff"
       d="M 212.188 248.693 L 209.469,247.78 L 203.145,250.492 L 199.99,249.586 L 201.571,252.073 L 209.469,252.073 L 206.089,251.174 L 212.188,248.693z"
       id="path3169" />
    <path
       style="fill: #ffffff"
       d="M 200.672 243.705 L 203.377,242.813 L 209.925,245.3 L 212.862,244.618 L 211.288,246.874 L 203.595,246.874 L 206.764,246.193 L 200.672,243.705z"
       id="path3171" />
    <path
       style="fill: #ffffff"
       d="M 225.06 251.392 L 222.355,252.305 L 216.038,249.586 L 212.862,250.492 L 214.443,248.237 L 222.355,248.237 L 218.982,248.918 L 225.06,251.392z"
       id="path3173" />
    <path
       style="fill: none; fill-opacity:0; stroke-width: 0.02; stroke: #aae6ff"
       d="M 194.116 247.33 L 194.116,274.451"
       id="path3175" />
    <path
       style="fill: none; fill-opacity:0; stroke-width: 0.02; stroke: #aae6ff"
       d="M 231.172 247.33 L 231.172,274.451"
       id="path3177" />
    <path
       style="fill: #000000"
       d="M 202.477 254.56 L 202.477,257.504 L 209.019,257.504 L 212.413,263.61 L 216.038,257.504 L 222.573,257.504 L 222.573,254.56 L 226.648,258.172 L 222.573,261.79 L 222.573,259.31 L 217.837,259.31 L 213.994,266.09 L 217.837,273.095 L 222.573,273.095 L 222.573,270.608 L 226.648,274.009 L 222.573,277.62 L 222.573,274.908 L 216.038,274.908 L 212.413,268.584 L 209.019,275.133 L 202.477,275.133 L 202.477,277.62 L 198.409,274.009 L 202.477,270.608 L 202.477,273.095 L 206.989,273.095 L 211.063,266.09 L 206.989,259.31 L 202.477,259.31 L 202.477,261.572 L 198.409,258.172 L 202.477,254.56z"
       id="path3179" />
    <path
       style="fill: #ffffff"
       d="M 202.702 254.792 L 202.702,257.736 L 209.251,257.736 L 212.644,263.828 L 216.263,257.736 L 222.798,257.736 L 222.798,254.792 L 226.873,258.404 L 222.798,262.029 L 222.798,259.535 L 218.069,259.535 L 214.218,266.322 L 218.069,273.32 L 222.798,273.32 L 222.798,270.833 L 226.873,274.22 L 222.798,277.845 L 222.798,275.133 L 216.263,275.133 L 212.644,268.802 L 209.251,275.365 L 202.702,275.365 L 202.702,277.845 L 198.634,274.22 L 202.702,270.833 L 202.702,273.32 L 207.227,273.32 L 211.288,266.322 L 207.227,259.535 L 202.702,259.535 L 202.702,261.79 L 198.634,258.404 L 202.702,254.792z"
       id="path3181" />
  </g>
  <g
     id="g3183">
    <path
       style="fill: #0078aa"
       d="M 171.824 286.241 L 171.775,285.652 L 171.645,285.053 L 171.425,284.464 L 171.116,283.885 L 170.716,283.296 L 170.237,282.717 L 169.668,282.158 L 169.029,281.609 L 168.291,281.07 L 167.482,280.551 L 166.594,280.031 L 165.625,279.532 L 164.587,279.053 L 163.479,278.584 L 162.301,278.145 L 161.073,277.725 L 159.776,277.326 L 158.408,276.957 L 157,276.587 L 155.543,276.278 L 154.036,275.969 L 152.478,275.699 L 150.891,275.439 L 149.254,275.22 L 147.607,275.03 L 145.91,274.87 L 144.203,274.731 L 142.486,274.621 L 140.749,274.541 L 139.002,274.511 L 137.235,274.481 L 137.235,274.481 L 135.488,274.511 L 133.751,274.541 L 132.014,274.621 L 130.297,274.731 L 128.59,274.87 L 126.893,275.03 L 125.246,275.22 L 123.609,275.439 L 122.022,275.699 L 120.464,275.969 L 118.947,276.278 L 117.5,276.587 L 116.092,276.957 L 114.724,277.326 L 113.427,277.725 L 112.199,278.145 L 111.021,278.584 L 109.913,279.053 L 108.875,279.532 L 107.896,280.031 L 107.018,280.551 L 106.199,281.07 L 105.471,281.609 L 104.832,282.158 L 104.263,282.717 L 103.784,283.296 L 103.384,283.885 L 103.075,284.464 L 102.845,285.053 L 102.725,285.652 L 102.676,286.241 L 102.676,286.241 L 102.725,286.85 L 102.845,287.438 L 103.075,288.027 L 103.384,288.616 L 103.784,289.195 L 104.263,289.774 L 104.832,290.333 L 105.471,290.882 L 106.199,291.422 L 107.018,291.951 L 107.896,292.45 L 108.875,292.969 L 109.913,293.448 L 111.021,293.907 L 112.199,294.336 L 113.427,294.766 L 114.724,295.165 L 116.092,295.544 L 117.5,295.894 L 118.947,296.223 L 120.464,296.523 L 122.022,296.792 L 123.609,297.052 L 125.246,297.271 L 126.893,297.461 L 128.59,297.631 L 130.297,297.75 L 132.014,297.86 L 133.751,297.94 L 135.488,297.99 L 137.235,298 L 137.235,298 L 139.002,297.99 L 140.749,297.94 L 142.486,297.86 L 144.203,297.75 L 145.91,297.631 L 147.607,297.461 L 149.254,297.271 L 150.891,297.052 L 152.478,296.792 L 154.036,296.523 L 155.543,296.223 L 157,295.894 L 158.408,295.544 L 159.776,295.165 L 161.073,294.766 L 162.301,294.336 L 163.479,293.907 L 164.587,293.448 L 165.625,292.969 L 166.594,292.45 L 167.482,291.951 L 168.291,291.422 L 169.029,290.882 L 169.668,290.333 L 170.237,289.774 L 170.716,289.195 L 171.116,288.616 L 171.425,288.027 L 171.645,287.438 L 171.775,286.85 L 171.824,286.241z"
       id="path3185" />
    <path
       style="fill: none; fill-opacity:0; stroke-width: 0.02; stroke: #aae6ff"
       d="M 171.425 286.061 L 171.375,285.462 L 171.246,284.893 L 171.026,284.304 L 170.726,283.735 L 170.327,283.156 L 169.838,282.597 L 169.299,282.048 L 168.64,281.499 L 167.911,280.97 L 167.103,280.441 L 166.224,279.952 L 165.256,279.462 L 164.238,278.973 L 163.14,278.524 L 161.962,278.085 L 160.724,277.686 L 159.436,277.286 L 158.089,276.917 L 156.701,276.577 L 155.234,276.248 L 153.726,275.959 L 152.199,275.689 L 150.612,275.439 L 148.994,275.22 L 147.347,275.03 L 145.66,274.87 L 143.973,274.731 L 142.266,274.651 L 140.529,274.561 L 138.792,274.511 L 137.045,274.511 L 137.045,274.511 L 135.308,274.511 L 133.561,274.561 L 131.834,274.651 L 130.127,274.731 L 128.43,274.87 L 126.753,275.03 L 125.106,275.22 L 123.479,275.439 L 121.902,275.689 L 120.375,275.959 L 118.857,276.248 L 117.41,276.577 L 116.022,276.917 L 114.665,277.286 L 113.357,277.686 L 112.119,278.085 L 110.961,278.524 L 109.853,278.973 L 108.825,279.462 L 107.876,279.952 L 107.008,280.441 L 106.189,280.97 L 105.451,281.499 L 104.812,282.048 L 104.253,282.597 L 103.754,283.156 L 103.384,283.735 L 103.065,284.304 L 102.845,284.893 L 102.725,285.462 L 102.676,286.061 L 102.676,286.061 L 102.725,286.65 L 102.845,287.229 L 103.065,287.808 L 103.384,288.377 L 103.754,288.956 L 104.253,289.515 L 104.812,290.064 L 105.451,290.593 L 106.189,291.142 L 107.008,291.671 L 107.876,292.17 L 108.825,292.649 L 109.853,293.129 L 110.961,293.588 L 112.119,294.017 L 113.357,294.426 L 114.665,294.806 L 116.022,295.195 L 117.41,295.534 L 118.857,295.854 L 120.375,296.163 L 121.902,296.423 L 123.479,296.662 L 125.106,296.892 L 126.753,297.072 L 128.43,297.221 L 130.127,297.371 L 131.834,297.461 L 133.561,297.541 L 135.308,297.581 L 137.045,297.601 L 137.045,297.601 L 138.792,297.581 L 140.529,297.541 L 142.266,297.461 L 143.973,297.371 L 145.66,297.221 L 147.347,297.072 L 148.994,296.892 L 150.612,296.662 L 152.199,296.423 L 153.726,296.163 L 155.234,295.854 L 156.701,295.534 L 158.089,295.195 L 159.436,294.806 L 160.724,294.426 L 161.962,294.017 L 163.14,293.588 L 164.238,293.129 L 165.256,292.649 L 166.224,292.17 L 167.103,291.671 L 167.911,291.142 L 168.64,290.593 L 169.299,290.064 L 169.838,289.515 L 170.327,288.956 L 170.726,288.377 L 171.026,287.808 L 171.246,287.229 L 171.375,286.65 L 171.425,286.061"
       id="path3187" />
    <path
       style="fill: #0078aa"
       d="M 102.676 269.969 L 102.676,286.46 L 171.425,286.46 L 171.425,269.969 L 102.676,269.969z"
       id="path3189" />
    <path
       style="fill: #00b4ff"
       d="M 171.824 269.739 L 171.775,269.16 L 171.645,268.562 L 171.425,267.973 L 171.116,267.384 L 170.716,266.795 L 170.237,266.226 L 169.668,265.667 L 169.029,265.108 L 168.291,264.578 L 167.482,264.049 L 166.594,263.54 L 165.625,263.021 L 164.587,262.552 L 163.479,262.083 L 162.301,261.644 L 161.073,261.234 L 159.776,260.835 L 158.408,260.456 L 157,260.106 L 155.543,259.777 L 154.036,259.467 L 152.478,259.208 L 150.891,258.938 L 149.254,258.719 L 147.607,258.529 L 145.91,258.369 L 144.203,258.25 L 142.486,258.14 L 140.749,258.06 L 139.002,258 L 137.235,258 L 137.235,258 L 135.488,258 L 133.751,258.06 L 132.014,258.14 L 130.297,258.25 L 128.59,258.369 L 126.893,258.529 L 125.246,258.719 L 123.609,258.938 L 122.022,259.208 L 120.464,259.467 L 118.947,259.777 L 117.5,260.106 L 116.092,260.456 L 114.724,260.835 L 113.427,261.234 L 112.199,261.644 L 111.021,262.083 L 109.913,262.552 L 108.875,263.021 L 107.896,263.54 L 107.018,264.049 L 106.199,264.578 L 105.471,265.108 L 104.832,265.667 L 104.263,266.226 L 103.784,266.795 L 103.384,267.384 L 103.075,267.973 L 102.845,268.562 L 102.725,269.16 L 102.676,269.739 L 102.676,269.739 L 102.725,270.348 L 102.845,270.947 L 103.075,271.536 L 103.384,272.115 L 103.784,272.704 L 104.263,273.263 L 104.832,273.842 L 105.471,274.391 L 106.199,274.93 L 107.018,275.459 L 107.896,275.969 L 108.875,276.478 L 109.913,276.957 L 111.021,277.396 L 112.199,277.855 L 113.427,278.275 L 114.724,278.674 L 116.092,279.053 L 117.5,279.403 L 118.947,279.722 L 120.464,280.031 L 122.022,280.301 L 123.609,280.561 L 125.246,280.78 L 126.893,280.97 L 128.59,281.13 L 130.297,281.249 L 132.014,281.359 L 133.751,281.449 L 135.488,281.499 L 137.235,281.499 L 137.235,281.499 L 139.002,281.499 L 140.749,281.449 L 142.486,281.359 L 144.203,281.249 L 145.91,281.13 L 147.607,280.97 L 149.254,280.78 L 150.891,280.561 L 152.478,280.301 L 154.036,280.031 L 155.543,279.722 L 157,279.403 L 158.408,279.053 L 159.776,278.674 L 161.073,278.275 L 162.301,277.855 L 163.479,277.396 L 164.587,276.957 L 165.625,276.478 L 166.594,275.969 L 167.482,275.459 L 168.291,274.93 L 169.029,274.391 L 169.668,273.842 L 170.237,273.263 L 170.716,272.704 L 171.116,272.115 L 171.425,271.536 L 171.645,270.947 L 171.775,270.348 L 171.824,269.739z"
       id="path3191" />
    <path
       style="fill: none; fill-opacity:0; stroke-width: 0.02; stroke: #aae6ff"
       d="M 171.425 269.57 L 171.375,268.971 L 171.246,268.382 L 171.026,267.823 L 170.726,267.234 L 170.327,266.665 L 169.838,266.106 L 169.299,265.567 L 168.64,265.008 L 167.911,264.489 L 167.103,263.95 L 166.224,263.45 L 165.256,262.951 L 164.238,262.482 L 163.14,262.043 L 161.962,261.584 L 160.724,261.184 L 159.436,260.795 L 158.089,260.426 L 156.701,260.086 L 155.234,259.747 L 153.726,259.457 L 152.199,259.188 L 150.612,258.938 L 148.994,258.719 L 147.347,258.529 L 145.66,258.389 L 143.973,258.25 L 142.266,258.15 L 140.529,258.06 L 138.792,258.02 L 137.045,258 L 137.045,258 L 135.308,258.02 L 133.561,258.06 L 131.834,258.15 L 130.127,258.25 L 128.43,258.389 L 126.753,258.529 L 125.106,258.719 L 123.479,258.938 L 121.902,259.188 L 120.375,259.457 L 118.857,259.747 L 117.41,260.086 L 116.022,260.426 L 114.665,260.795 L 113.357,261.184 L 112.119,261.584 L 110.961,262.043 L 109.853,262.482 L 108.825,262.951 L 107.876,263.45 L 107.008,263.95 L 106.189,264.489 L 105.451,265.008 L 104.812,265.567 L 104.253,266.106 L 103.754,266.665 L 103.384,267.234 L 103.065,267.823 L 102.845,268.382 L 102.725,268.971 L 102.676,269.57 L 102.676,269.57 L 102.725,270.149 L 102.845,270.738 L 103.065,271.297 L 103.384,271.876 L 103.754,272.455 L 104.253,273.014 L 104.812,273.573 L 105.451,274.122 L 106.189,274.651 L 107.008,275.17 L 107.876,275.679 L 108.825,276.148 L 109.853,276.637 L 110.961,277.087 L 112.119,277.526 L 113.357,277.935 L 114.665,278.324 L 116.022,278.694 L 117.41,279.033 L 118.857,279.363 L 120.375,279.672 L 121.902,279.922 L 123.479,280.181 L 125.106,280.391 L 126.753,280.58 L 128.43,280.75 L 130.127,280.89 L 131.834,280.97 L 133.561,281.05 L 135.308,281.1 L 137.045,281.11 L 137.045,281.11 L 138.792,281.1 L 140.529,281.05 L 142.266,280.97 L 143.973,280.89 L 145.66,280.75 L 147.347,280.58 L 148.994,280.391 L 150.612,280.181 L 152.199,279.922 L 153.726,279.672 L 155.234,279.363 L 156.701,279.033 L 158.089,278.694 L 159.436,278.324 L 160.724,277.935 L 161.962,277.526 L 163.14,277.087 L 164.238,276.637 L 165.256,276.148 L 166.224,275.679 L 167.103,275.17 L 167.911,274.651 L 168.64,274.122 L 169.299,273.573 L 169.838,273.014 L 170.327,272.455 L 170.726,271.876 L 171.026,271.297 L 171.246,270.738 L 171.375,270.149 L 171.425,269.57"
       id="path3193" />
    <path
       style="fill: #000000"
       d="M 137.874 267.074 L 142.915,268.731 L 155.084,263.77 L 160.524,265.427 L 157.569,261.304 L 143.344,261.304 L 149.194,262.552 L 137.874,267.074z"
       id="path3195" />
    <path
       style="fill: #000000"
       d="M 135.768 271.626 L 130.766,269.969 L 119.017,274.93 L 113.157,273.263 L 116.092,277.805 L 130.766,277.805 L 124.467,276.148 L 135.768,271.626z"
       id="path3197" />
    <path
       style="fill: #000000"
       d="M 114.405 262.552 L 119.436,260.895 L 131.585,265.427 L 137.045,264.199 L 134.12,268.312 L 119.855,268.312 L 125.715,267.074 L 114.405,262.552z"
       id="path3199" />
    <path
       style="fill: #000000"
       d="M 159.676 276.568 L 154.655,278.215 L 142.915,273.263 L 137.045,274.93 L 139.98,270.798 L 154.655,270.798 L 148.356,272.015 L 159.676,276.568z"
       id="path3201" />
    <path
       style="fill: #ffffff"
       d="M 138.293 267.483 L 143.344,269.131 L 155.493,264.199 L 160.944,265.856 L 158.009,261.714 L 143.744,261.714 L 149.623,262.951 L 138.293,267.483z"
       id="path3203" />
    <path
       style="fill: #ffffff"
       d="M 136.217 272.015 L 131.166,270.378 L 119.436,275.33 L 113.566,273.673 L 116.501,278.215 L 131.166,278.215 L 124.897,276.568 L 136.217,272.015z"
       id="path3205" />
    <path
       style="fill: #ffffff"
       d="M 114.834 262.951 L 119.855,261.304 L 132.014,265.856 L 137.465,264.598 L 134.53,268.731 L 120.275,268.731 L 126.154,267.483 L 114.834,262.951z"
       id="path3207" />
    <path
       style="fill: #ffffff"
       d="M 160.105 276.977 L 155.084,278.634 L 143.344,273.673 L 137.465,275.33 L 140.39,271.217 L 155.084,271.217 L 148.795,272.445 L 160.105,276.977z"
       id="path3209" />
    <path
       style="fill: none; fill-opacity:0; stroke-width: 0.02; stroke: #aae6ff"
       d="M 102.676 269.57 L 102.676,286.041"
       id="path3211" />
    <path
       style="fill: none; fill-opacity:0; stroke-width: 0.02; stroke: #aae6ff"
       d="M 171.425 269.57 L 171.425,286.041"
       id="path3213" />
    <path
       style="fill: #000000"
       d="M 124.467 283.995 L 132.014,283.995 L 136.626,287.708 L 141.228,283.995 L 148.356,283.995 L 148.356,282.347 L 153.397,284.803 L 148.356,287.289 L 148.356,285.642 L 142.077,285.642 L 137.874,288.527 L 142.077,291.811 L 148.356,291.811 L 148.356,289.774 L 153.397,292.649 L 148.356,295.135 L 148.356,293.468 L 141.228,293.468 L 136.626,289.774 L 132.014,293.468 L 124.467,293.468 L 124.467,295.135 L 119.436,292.649 L 124.467,289.774 L 124.467,291.811 L 131.166,291.811 L 135.368,288.936 L 131.166,285.642 L 124.467,285.642 L 124.467,287.289 L 119.436,284.803 L 124.467,282.347 L 124.467,283.995z"
       id="path3215" />
    <path
       style="fill: #ffffff"
       d="M 124.897 284.394 L 132.433,284.394 L 137.045,288.097 L 141.647,284.394 L 148.795,284.394 L 148.795,282.747 L 153.806,285.232 L 148.795,287.708 L 148.795,286.061 L 142.496,286.061 L 138.293,288.936 L 142.496,292.23 L 148.795,292.23 L 148.795,290.174 L 153.806,293.059 L 148.795,295.534 L 148.795,293.877 L 141.647,293.877 L 137.045,290.174 L 132.433,293.877 L 124.897,293.877 L 124.897,295.534 L 119.855,293.059 L 124.897,290.174 L 124.897,292.23 L 131.585,292.23 L 135.768,289.345 L 131.585,286.061 L 124.897,286.061 L 124.897,287.708 L 119.855,285.232 L 124.897,282.747 L 124.897,284.394z"
       id="path3217" />
  </g>
  <g
     id="g3219">
    <path
       style="fill: #b7b79d"
       d="M 139.83 178.978 L 139.83,216 L 161.712,216 L 161.712,178.978 L 139.83,178.978z"
       id="path3221" />
    <path
       style="fill: none; fill-opacity:0; stroke-width: 0.02; stroke: #494936"
       d="M 139.83 178.978 L 139.83,216 L 161.712,216 L 161.712,178.978 L 139.83,178.978"
       id="path3223" />
    <path
       style="fill: #c9c9b6"
       d="M 139.83 178.978 L 142.795,176 L 164.67,176 L 161.712,178.978 L 139.83,178.978z"
       id="path3225" />
    <path
       style="fill: none; fill-opacity:0; stroke-width: 0.02; stroke: #494936"
       d="M 139.83 178.978 L 142.795,176 L 164.526,176"
       id="path3227" />
    <path
       style="fill: none; fill-opacity:0; stroke-width: 0.02; stroke: #494936"
       d="M 164.526 176.151 L 161.712,178.978 L 139.83,178.978"
       id="path3229" />
    <path
       style="fill: #c9c9b6"
       d="M 141.178 181.132 L 151.173,181.132 L 151.173,185.989 L 141.178,185.989 L 141.178,181.132z"
       id="path3231" />
    <path
       style="fill: none; fill-opacity:0; stroke-width: 0.02; stroke: #626248"
       d="M 141.178 181.132 L 151.167,181.132 L 151.167,185.982 L 141.178,185.982 L 141.178,181.132"
       id="path3233" />
    <path
       style="fill: none; fill-opacity:0; stroke-width: 0.6; stroke: #ecece7"
       d="M 142.527 183.567 L 149.537,183.567"
       id="path3235" />
    <path
       style="fill: #7a7a5a"
       d="M 161.712 216 L 164.67,213.015 L 164.67,176 L 161.712,178.978 L 161.712,216z"
       id="path3237" />
    <path
       style="fill: none; fill-opacity:0; stroke-width: 0.02; stroke: #494936"
       d="M 161.712 216 L 164.526,213.166"
       id="path3239" />
    <path
       style="fill: none; fill-opacity:0; stroke-width: 0.02; stroke: #494936"
       d="M 164.526 176.151 L 161.712,178.978 L 161.712,216"
       id="path3241" />
    <path
       style="fill: none; fill-opacity:0; stroke-width: 0.6; stroke: #ecece7"
       d="M 140.105 213.559 L 161.705,213.559"
       id="path3243" />
    <path
       style="fill: none; fill-opacity:0; stroke-width: 0.6; stroke: #000000"
       d="M 140.105 193.837 L 161.705,193.837"
       id="path3245" />
    <path
       style="fill: none; fill-opacity:0; stroke-width: 0.6; stroke: #494936"
       d="M 139.83 213.29 L 161.685,213.29"
       id="path3247" />
    <path
       style="fill: none; fill-opacity:0; stroke-width: 0.6; stroke: #000000"
       d="M 139.83 193.562 L 161.685,193.562"
       id="path3249" />
    <path
       style="fill: none; fill-opacity:0; stroke-width: 0.02; stroke: #ecece7"
       d="M 141.178 185.727 L 141.178,181.132 L 150.898,181.132"
       id="path3251" />
  </g>
</svg>
